{"glyphs":{"0":{"ha":278,"x_min":0,"x_max":0,"o":"m 496 1056 b 28 642 256 1060 60 860 b 219 69 -3 425 50 211 b 775 68 389 -72 636 -50 b 919 746 933 204 993 539 b 496 1056 856 925 692 1053 z m 336 278 b 278 682 276 326 193 474 b 514 824 322 792 446 831 b 718 614 603 817 696 728 b 632 265 738 507 726 342 b 336 278 546 196 424 207 z "},"1":{"ha":278,"x_min":0,"x_max":0,"o":"m 318 733 b 411 760 339 733 428 758 b 404 94 411 760 397 158 b 515 -12 413 21 476 -10 b 635 89 560 -15 631 24 b 650 854 640 154 650 772 b 550 1063 650 938 644 1040 b 282 965 454 1085 374 1028 b 201 806 189 901 186 853 b 318 733 215 760 256 735 z "},"2":{"ha":278,"x_min":0,"x_max":0,"o":"m 324 774 b 388 829 336 796 353 814 b 510 825 415 842 456 844 b 582 649 579 800 608 736 b 276 294 550 539 386 397 b 132 96 167 193 129 157 b 247 -3 135 36 215 -8 b 735 -3 301 -3 638 -3 b 872 101 831 -3 879 29 b 758 210 872 161 844 199 b 525 215 685 210 528 208 b 654 336 525 215 592 269 b 814 665 739 429 793 506 b 553 1053 833 807 746 1004 b 142 907 358 1101 196 1004 b 183 726 92 819 125 747 b 324 774 240 704 297 729 z "},"3":{"ha":278,"x_min":0,"x_max":0,"o":"m 676 539 b 794 731 676 539 783 633 b 685 1008 808 853 782 943 b 483 1064 617 1054 538 1064 b 257 1006 403 1064 308 1042 b 197 906 219 978 199 943 b 226 833 196 878 207 850 b 376 824 267 799 319 794 b 475 844 390 831 439 844 b 532 826 500 844 519 838 b 551 717 578 788 568 750 b 433 633 536 686 472 654 b 372 500 388 608 351 554 b 485 414 390 454 436 435 l 506 404 b 585 275 533 392 596 343 b 486 217 579 232 528 217 b 465 217 479 217 472 217 b 333 300 417 222 372 260 b 157 285 282 349 193 339 b 207 94 129 242 136 167 b 496 -18 261 40 356 -18 b 569 -12 519 -18 544 -15 b 808 290 717 10 810 143 b 676 539 807 429 676 539 z "},"4":{"ha":278,"x_min":0,"x_max":0,"o":"m 489 1001 b 97 515 436 943 139 569 b 67 350 57 463 42 396 b 204 267 92 304 129 269 b 514 263 281 264 531 256 b 517 65 514 263 508 118 b 629 -18 524 13 586 -18 b 725 71 672 -18 722 18 b 729 261 728 122 742 250 b 829 263 729 261 761 263 b 928 379 897 263 928 324 b 847 483 928 433 885 482 b 735 489 810 486 735 489 b 738 942 735 511 736 803 b 626 1049 738 1008 669 1044 b 489 1001 583 1054 533 1051 z m 344 499 l 517 711 l 511 500 z "},"5":{"ha":278,"x_min":0,"x_max":0,"o":"m 271 1029 b 190 944 224 1029 192 994 b 190 535 190 818 190 588 b 349 443 190 467 264 426 b 550 436 394 453 485 468 b 603 246 628 397 649 307 b 385 225 561 190 446 182 b 219 261 329 264 271 289 b 179 115 176 239 146 175 b 482 -22 214 51 300 -17 b 826 233 668 -28 799 92 b 706 594 854 385 817 515 b 397 649 599 672 397 649 l 396 801 b 658 804 396 801 571 804 b 792 917 744 804 790 853 b 664 1035 794 994 733 1035 b 271 1029 611 1035 392 1032 z "},"6":{"ha":278,"x_min":0,"x_max":0,"o":"m 625 611 b 511 626 585 621 547 626 b 354 585 431 626 379 601 b 426 793 354 669 376 732 b 535 832 447 818 486 832 b 617 819 563 832 590 828 b 671 810 636 813 654 810 b 747 849 715 810 739 833 b 726 976 769 882 776 935 b 524 1047 674 1021 600 1047 b 439 1036 494 1047 465 1043 b 136 568 304 999 156 857 b 381 14 118 265 196 89 b 504 -10 419 -1 460 -10 b 817 213 628 -10 779 60 b 625 611 868 417 760 576 z m 632 328 b 538 210 633 279 599 219 b 503 206 525 207 514 206 b 393 261 456 206 419 225 b 389 376 372 292 376 343 b 506 446 406 424 461 446 b 536 442 517 446 526 444 b 632 328 589 426 629 379 z "},"7":{"ha":278,"x_min":0,"x_max":0,"o":"m 318 825 b 313 642 318 825 318 682 b 210 575 308 601 254 575 b 114 649 164 575 118 603 b 111 892 108 694 110 840 b 276 1039 114 969 164 1040 b 761 1026 389 1036 693 1029 b 879 861 828 1024 903 965 b 586 65 863 788 619 110 b 456 6 546 11 522 -11 b 386 138 401 18 369 71 b 643 822 403 204 643 822 z "},"8":{"ha":278,"x_min":0,"x_max":0,"o":"m 279 563 b 150 357 279 563 165 483 b 275 53 136 239 160 143 b 669 19 393 -39 561 -24 b 831 347 792 69 858 206 b 708 556 807 467 728 547 b 793 674 708 556 775 614 b 724 979 811 733 821 883 b 333 1029 626 1076 438 1085 b 190 753 229 974 188 868 b 279 563 192 638 279 563 z m 583 724 b 469 697 551 694 513 689 b 394 790 413 707 392 764 b 492 885 396 817 415 881 b 603 825 568 888 596 844 b 583 724 615 792 610 747 z m 582 408 b 624 275 622 372 633 326 b 499 182 613 207 535 181 b 368 294 463 183 375 204 b 444 428 360 383 417 418 b 582 408 488 443 550 439 z "},"9":{"ha":278,"x_min":0,"x_max":0,"o":"m 683 1011 b 508 1057 629 1049 558 1057 b 317 1018 440 1057 368 1042 b 150 729 222 971 153 850 b 290 432 149 611 200 500 b 508 381 350 388 453 381 b 517 381 511 381 514 381 b 408 138 496 332 424 179 b 414 39 396 108 399 69 b 468 -8 425 14 444 -1 b 507 -15 482 -12 494 -15 b 594 47 549 -15 571 7 b 758 425 624 94 738 368 b 772 464 763 438 767 450 b 826 700 797 525 829 608 b 683 1011 821 831 776 944 z m 574 625 b 479 601 556 613 515 601 b 435 610 461 601 447 604 b 363 753 383 632 351 694 b 479 857 372 813 432 856 l 485 857 b 614 757 528 857 599 831 b 574 625 625 699 597 639 z "},"\u0000":{"ha":0,"x_min":0,"x_max":0,"o":""},"!":{"ha":-281,"x_min":0,"x_max":0,"o":"m 306 1008 b 218 1047 283 1033 253 1047 b 111 1001 175 1047 136 1031 b 76 885 85 972 74 932 b 122 347 79 821 113 386 b 204 269 133 299 164 269 l 208 269 b 292 346 253 272 283 299 b 342 876 300 390 335 800 b 306 1008 344 929 332 978 z m 224 233 b 194 236 214 235 204 236 b 76 99 114 236 76 156 b 208 -32 76 36 128 -32 b 329 72 267 -32 317 11 b 318 174 338 111 333 146 b 224 233 300 203 268 224 z "},"\"":{"ha":-69,"x_min":0,"x_max":0,"o":"m 176 868 b 150 817 172 838 176 822 b 163 764 133 790 144 774 b 240 806 179 756 211 768 b 285 972 269 844 289 915 b 164 1083 281 1028 228 1086 b 64 938 90 1081 46 1003 b 176 868 81 872 176 868 z m 463 868 b 436 817 457 838 453 842 b 447 764 418 790 431 772 b 525 806 465 756 496 768 b 569 972 554 844 575 915 b 449 1083 565 1028 514 1086 b 350 938 375 1081 332 1003 b 463 868 367 872 463 868 z "},"#":{"ha":399,"x_min":0,"x_max":0,"o":"m 926 664 b 1050 769 1000 664 1046 724 b 944 890 1056 814 1018 882 b 938 892 942 890 940 890 b 944 933 940 911 943 926 b 864 1058 954 999 914 1049 b 739 943 814 1068 754 1044 b 731 897 738 936 735 919 b 519 900 664 899 590 899 b 522 917 521 907 522 913 b 443 1076 538 986 518 1068 b 311 926 353 1086 331 1017 b 306 901 310 921 307 913 b 224 901 267 901 238 901 b 85 779 139 901 79 839 b 218 671 89 719 124 678 b 263 669 226 671 242 671 b 219 421 249 590 233 503 b 186 421 206 421 194 421 b 38 311 97 421 38 367 b 165 199 42 254 76 206 b 183 197 169 199 175 199 b 172 124 178 164 174 138 b 267 -14 163 35 213 -14 b 378 90 322 -14 358 26 b 399 194 382 104 390 142 b 614 192 468 193 543 193 b 601 103 608 149 603 117 b 694 -17 594 18 644 -17 b 800 67 744 -17 781 -3 b 825 190 806 82 814 128 b 886 190 851 190 874 190 b 1024 294 981 190 1022 242 b 918 413 1025 356 988 408 b 863 415 908 414 889 414 b 901 664 875 499 889 586 b 926 664 913 664 921 664 z m 651 418 b 439 419 582 418 507 419 b 479 667 453 501 467 589 b 692 665 549 667 624 665 b 651 418 679 586 664 499 z "},"$":{"ha":40,"x_min":0,"x_max":0,"o":"m 468 554 b 469 724 468 610 469 668 b 469 800 469 750 469 775 b 519 767 492 790 506 778 b 567 735 533 754 547 743 b 686 804 614 715 686 739 b 529 972 686 858 644 932 b 471 988 511 979 492 985 b 443 1051 469 1011 460 1033 b 386 1078 426 1068 407 1078 b 313 1043 361 1078 331 1064 b 292 992 299 1028 292 1011 b 118 913 235 982 172 960 b 57 629 39 843 13 724 b 286 439 96 546 167 496 b 283 247 285 379 285 315 b 219 278 254 260 231 272 b 131 310 190 294 158 310 b 75 290 111 310 93 303 b 33 218 40 265 33 236 b 76 135 32 188 49 157 l 85 129 b 286 35 131 93 183 50 b 335 -28 293 6 310 -17 b 368 -35 344 -33 356 -35 b 444 8 394 -35 429 -24 b 450 33 446 13 449 22 b 696 253 589 54 674 129 b 468 554 719 389 588 492 z m 235 733 b 290 800 244 768 265 789 b 289 646 290 757 289 704 b 235 733 246 676 226 707 z m 501 256 b 464 222 493 239 481 229 b 465 314 465 272 465 313 b 467 353 465 321 465 335 b 508 307 486 339 503 324 b 501 256 514 292 511 275 z "},"%":{"ha":363,"x_min":0,"x_max":0,"o":"m 926 982 b 868 1013 911 1001 890 1013 b 757 946 832 1013 792 988 b 689 864 743 928 718 899 b 506 644 631 796 550 703 b 328 424 474 603 400 513 b 135 183 244 322 158 215 b 115 40 93 126 85 67 b 186 15 131 28 157 15 b 251 42 211 15 233 24 b 432 251 299 88 372 178 l 450 275 b 601 457 472 301 532 374 b 911 833 732 613 893 807 l 913 836 b 926 982 939 876 972 926 z m 444 939 b 257 1033 411 986 336 1033 b 164 1010 224 1033 193 1025 b 40 724 51 949 17 817 b 257 567 64 629 139 574 b 272 565 263 565 268 565 b 463 683 367 565 438 626 b 444 939 500 764 492 871 z m 319 772 b 258 733 315 758 300 733 b 215 753 242 733 226 740 b 200 818 200 772 196 800 b 271 860 204 840 239 860 b 304 850 283 860 296 857 b 319 772 322 835 329 800 z m 1006 308 b 796 471 969 407 888 471 b 739 463 778 471 758 468 b 568 246 631 431 568 353 b 699 33 568 165 626 69 b 789 14 725 21 756 14 b 926 60 839 14 892 31 b 1006 308 979 103 1042 213 z m 786 303 b 850 250 825 303 849 272 b 792 179 851 221 838 183 b 788 179 790 179 789 179 b 731 236 754 179 731 217 b 786 303 731 256 746 303 z "},"&":{"ha":229,"x_min":0,"x_max":0,"o":"m 876 143 b 819 215 867 169 839 197 b 846 314 839 240 851 279 b 739 404 839 360 790 401 l 736 404 b 660 371 706 404 678 385 b 497 526 631 397 563 463 b 554 563 513 538 535 553 b 679 765 613 597 676 675 b 486 1060 683 872 635 1007 b 388 1076 456 1071 422 1076 b 107 910 265 1076 153 1008 b 107 669 69 829 69 753 b 188 554 129 622 165 578 b 75 426 157 529 103 481 b 68 143 28 335 25 235 b 421 -33 128 22 293 -33 b 438 -33 426 -33 432 -33 b 681 78 553 -29 643 43 b 729 42 693 65 713 50 b 835 40 764 24 810 22 b 876 143 865 61 893 100 z m 363 676 b 297 771 344 692 311 726 b 301 832 290 793 292 814 b 349 872 313 854 333 868 b 372 875 356 875 364 875 b 457 811 413 875 449 849 b 363 676 469 764 435 715 z m 319 415 l 521 225 b 383 164 499 201 447 156 b 243 292 300 174 249 221 b 319 415 239 347 293 396 z "},"'":{"ha":-281,"x_min":0,"x_max":0,"o":"m 210 868 b 183 817 206 838 201 842 b 196 764 167 790 178 772 b 274 806 213 756 244 768 b 318 972 303 844 322 915 b 197 1083 314 1028 261 1086 b 97 938 124 1081 81 1003 b 210 868 115 872 210 868 z "},"(":{"ha":-139,"x_min":0,"x_max":0,"o":"m 408 940 b 442 1088 461 1000 472 1056 b 272 1064 400 1129 339 1128 b 68 499 206 1000 60 803 b 311 -49 76 175 247 1 b 456 -51 375 -97 429 -75 b 442 88 482 -28 488 18 b 263 522 394 157 260 300 b 408 940 267 746 368 896 z "},")":{"ha":-139,"x_min":0,"x_max":0,"o":"m 125 940 b 271 522 165 896 267 746 b 92 88 274 300 139 157 b 78 -51 46 18 51 -28 b 222 -49 104 -75 158 -97 b 465 499 286 1 457 175 b 261 1064 472 803 328 1000 b 92 1088 194 1128 133 1129 b 125 940 61 1056 72 1000 z "},"*":{"ha":11,"x_min":0,"x_max":0,"o":"m 606 606 b 474 708 594 614 540 657 b 583 794 526 750 571 785 b 644 881 613 819 642 849 b 629 925 646 896 640 911 b 578 951 614 943 596 951 b 500 917 550 951 524 935 l 496 914 b 426 861 476 899 453 881 b 425 949 426 906 426 935 b 356 1049 424 997 415 1047 b 296 1022 333 1049 313 1039 b 271 946 278 1003 268 976 b 271 865 271 933 271 904 b 186 929 229 899 196 922 b 132 946 168 940 150 946 b 67 906 103 946 79 931 b 108 800 44 863 75 828 b 226 708 117 793 165 756 b 106 615 165 663 117 625 b 83 496 65 581 56 532 b 129 472 96 481 111 472 b 190 496 149 472 168 481 b 269 554 201 503 231 525 b 271 478 271 517 271 489 b 346 389 275 425 304 389 b 353 389 349 389 350 389 b 421 485 410 394 419 424 l 421 499 b 422 560 421 519 422 540 b 514 490 468 525 503 497 b 569 472 531 479 550 472 b 631 503 594 472 617 483 b 606 606 644 522 660 561 z "},"+":{"ha":282,"x_min":0,"x_max":0,"o":"m 803 628 b 714 629 793 628 760 629 b 582 631 678 629 632 629 b 581 911 582 767 582 886 b 472 1015 576 979 532 1024 b 396 897 414 1008 400 951 b 394 631 394 881 394 764 b 292 631 357 631 322 631 b 150 629 224 631 164 631 b 44 532 86 625 44 588 b 146 456 44 504 57 460 b 396 453 168 454 276 453 b 397 282 396 389 396 329 b 397 181 397 229 397 192 b 492 71 397 118 439 71 b 576 168 528 71 572 88 b 581 453 578 189 579 313 b 794 454 649 453 767 453 b 915 492 839 457 889 463 b 932 544 928 506 933 524 b 803 628 928 618 868 628 z "},",":{"ha":-282,"x_min":0,"x_max":0,"o":"m 213 -6 b 188 -56 208 -35 219 -40 b 199 -106 169 -81 182 -97 b 274 -65 215 -114 246 -101 b 317 94 301 -29 321 40 b 200 201 313 149 263 204 b 103 61 128 199 86 124 b 213 -6 119 -1 213 -6 z "},"-":{"ha":-12,"x_min":0,"x_max":0,"o":"m 196 279 b 519 281 251 279 458 264 b 614 386 596 283 618 343 b 486 463 610 431 549 463 b 185 463 425 463 279 457 b 65 351 113 460 64 406 b 196 279 81 293 124 279 z "},".":{"ha":-304,"x_min":0,"x_max":0,"o":"m 203 -36 b 314 71 261 -40 314 22 b 207 196 314 119 294 192 b 82 72 121 201 76 125 b 203 -36 86 19 131 -29 z "},"/":{"ha":25,"x_min":0,"x_max":0,"o":"m 472 988 b 288 622 447 932 331 726 b 65 158 244 519 99 238 b 79 11 31 79 47 28 b 201 43 111 -4 165 -7 b 374 356 239 92 329 263 b 646 921 418 447 621 872 b 619 1074 672 968 692 1035 b 472 988 547 1113 499 1047 z "},":":{"ha":-264,"x_min":0,"x_max":0,"o":"m 217 681 b 338 792 281 676 346 725 b 235 913 338 847 308 899 b 96 797 160 926 90 847 b 217 681 100 746 138 686 z m 211 169 b 332 282 286 161 332 235 b 239 393 332 328 304 383 b 101 286 174 403 117 326 b 211 169 101 231 146 178 z "},";":{"ha":-264,"x_min":0,"x_max":0,"o":"m 222 676 b 333 783 281 672 333 735 b 226 908 333 831 314 904 b 101 785 140 914 97 838 b 222 676 106 732 150 683 z m 214 185 b 189 133 210 154 218 144 b 200 83 172 108 183 92 b 275 125 217 75 247 88 b 318 285 303 161 322 231 b 201 392 314 339 264 394 b 106 251 131 389 89 314 b 214 185 122 189 214 185 z "},"<":{"ha":208,"x_min":0,"x_max":0,"o":"m 736 808 b 854 911 790 840 846 871 b 792 1004 861 943 836 989 b 763 1010 783 1008 774 1010 b 617 958 724 1010 669 990 l 592 943 b 151 661 499 886 217 714 l 146 657 b 50 543 106 625 60 589 b 101 432 36 489 63 463 b 532 176 144 397 388 260 b 617 129 569 156 600 139 b 767 74 697 82 732 74 b 849 154 804 74 849 111 l 849 156 b 771 269 849 196 849 228 b 281 531 699 307 326 506 b 726 803 325 557 674 772 z "},"=":{"ha":210,"x_min":0,"x_max":0,"o":"m 182 643 b 732 647 231 639 675 633 b 847 744 794 647 856 679 b 744 831 847 801 822 801 b 165 831 683 835 251 826 b 57 719 100 826 49 785 b 182 643 64 671 100 649 z m 714 433 b 160 435 663 433 224 439 b 47 333 94 431 47 393 b 154 257 47 285 86 260 b 701 256 218 254 625 251 b 851 347 779 260 856 274 b 714 433 847 419 790 433 z "},">":{"ha":208,"x_min":0,"x_max":0,"o":"m 850 543 b 753 657 839 589 793 625 l 747 661 b 307 943 682 714 400 886 l 282 958 b 138 1010 231 990 176 1010 b 107 1004 126 1010 115 1008 b 44 911 63 989 39 943 b 163 808 53 871 108 840 l 174 803 b 618 531 226 772 575 557 b 129 269 572 506 201 307 b 50 156 50 228 50 196 l 50 154 b 132 74 50 111 96 74 b 283 129 168 74 201 82 b 367 176 300 139 329 156 b 799 432 513 260 756 397 b 850 543 836 463 863 489 z "},"?":{"ha":57,"x_min":0,"x_max":0,"o":"m 396 233 b 367 236 386 235 376 236 b 250 99 286 236 250 156 b 381 -32 250 36 300 -32 b 503 72 440 -32 490 11 b 490 174 511 111 507 146 b 396 233 472 203 440 224 z m 642 949 b 390 1058 590 1018 500 1058 b 219 1022 331 1058 269 1046 b 49 788 96 964 63 867 b 68 697 43 754 50 721 b 136 660 85 675 107 663 b 260 749 207 651 240 704 b 338 839 267 765 294 821 b 372 843 343 840 356 843 b 467 806 388 843 442 840 b 429 614 511 743 482 658 b 293 382 342 542 300 471 b 319 303 292 351 300 322 b 389 275 336 285 360 275 b 504 385 463 275 494 351 b 565 472 510 406 536 436 b 644 572 590 501 618 535 b 642 949 708 664 740 811 z "},"@":{"ha":425,"x_min":0,"x_max":0,"o":"m 931 933 b 571 1050 850 1006 715 1050 b 347 1006 483 1050 404 1035 b 57 600 189 926 81 775 b 303 90 28 374 124 174 b 621 19 428 32 544 19 b 739 31 663 19 704 24 b 922 124 846 54 908 85 b 918 206 933 150 931 182 b 860 246 906 228 885 242 b 746 231 831 250 786 240 b 665 217 715 224 686 217 b 364 290 608 217 443 231 b 257 624 275 357 232 490 b 497 853 282 753 401 828 b 578 863 522 860 549 863 b 825 767 674 863 764 828 b 875 543 924 667 876 547 b 810 507 863 515 842 503 b 793 628 813 526 817 571 b 554 758 763 706 656 764 b 328 524 447 753 331 676 b 482 321 325 414 407 342 b 590 307 514 311 553 307 b 721 332 643 307 690 315 b 818 313 732 326 767 313 b 867 317 835 313 850 314 b 1064 522 969 332 1047 413 b 931 933 1079 617 1082 796 z m 643 515 b 557 461 625 474 586 457 b 494 497 531 464 506 479 b 490 546 485 511 483 528 b 575 614 503 588 536 614 b 614 606 588 614 600 611 b 644 575 629 599 639 589 b 643 515 654 554 650 529 z "},"A":{"ha":442,"x_min":0,"x_max":0,"o":"m 1083 136 b 722 990 1056 194 758 931 b 504 1038 686 1051 571 1065 b 364 794 439 1010 400 883 b 56 143 328 707 89 232 b 125 -19 22 54 61 -6 b 263 49 189 -33 217 -15 b 367 249 276 68 339 190 b 382 282 369 254 375 267 l 778 283 b 871 67 814 193 850 104 b 1039 0 913 -8 993 -21 b 1083 136 1086 22 1111 78 z m 589 742 b 683 510 589 742 649 586 l 483 508 b 589 742 538 628 589 742 z "},"B":{"ha":253,"x_min":0,"x_max":0,"o":"m 767 518 b 754 536 761 526 756 535 b 763 550 756 538 758 544 b 817 846 786 589 847 690 b 610 1046 799 933 717 1032 b 404 1056 547 1054 464 1056 b 247 1051 347 1056 289 1054 b 114 918 167 1046 114 993 b 114 879 114 913 114 899 b 119 106 113 406 114 146 b 239 -6 126 38 188 -6 b 286 -7 251 -6 267 -6 b 419 -11 319 -8 364 -11 b 601 -3 479 -11 539 -8 b 849 264 744 11 828 100 b 767 518 863 379 794 476 z m 596 796 b 582 636 635 744 619 667 b 464 611 561 619 522 611 b 464 611 464 611 464 611 b 389 615 433 611 406 614 l 382 615 b 354 629 371 617 361 622 b 343 669 346 640 342 654 b 344 735 344 685 344 710 b 346 800 344 760 344 785 b 401 831 349 828 389 831 b 413 831 404 831 408 831 b 451 832 422 831 436 832 b 596 796 529 832 579 819 z m 343 263 b 344 324 344 278 344 301 b 346 383 344 346 344 369 b 401 415 349 413 389 415 b 414 415 404 415 408 415 b 457 415 424 415 439 415 b 614 381 543 415 597 404 b 599 229 653 329 638 260 b 472 206 579 214 536 206 b 386 210 436 206 403 208 l 382 210 b 354 224 371 210 361 215 b 343 263 346 233 342 247 z "},"C":{"ha":307,"x_min":0,"x_max":0,"o":"m 806 258 b 731 247 782 258 757 253 b 668 236 711 243 689 239 b 638 235 658 235 649 235 b 436 292 574 235 483 253 b 335 551 360 354 328 436 b 522 782 343 674 449 764 b 600 790 549 788 574 790 b 747 753 656 790 708 778 b 835 724 776 733 807 724 b 907 756 865 724 890 736 b 908 903 933 789 954 833 b 560 1042 867 969 721 1042 b 543 1040 554 1042 549 1040 b 90 588 383 1036 131 911 b 335 51 47 253 247 101 b 625 -6 397 15 506 -6 b 817 22 706 -6 775 4 b 915 117 869 44 904 78 b 890 217 924 149 915 183 b 806 258 869 246 843 258 z "},"D":{"ha":361,"x_min":0,"x_max":0,"o":"m 874 875 b 443 1040 790 986 649 1040 b 372 1039 417 1040 393 1040 b 322 1039 351 1039 336 1038 b 317 1039 321 1039 319 1039 b 115 883 225 1039 122 990 b 113 404 111 836 113 596 b 113 149 113 288 113 186 b 238 -6 110 54 151 4 b 339 -8 258 -7 292 -8 b 535 -6 393 -8 463 -7 l 550 -6 b 936 244 690 -3 874 65 b 874 875 999 428 999 713 z m 764 489 b 493 235 758 319 668 235 b 431 238 468 235 446 236 b 408 239 421 238 414 239 b 342 293 385 239 344 239 b 342 663 340 338 342 549 b 342 733 342 697 342 724 b 401 789 342 775 358 789 b 413 789 406 789 410 789 b 421 789 415 789 418 789 b 421 789 421 789 421 789 b 435 789 425 789 429 789 b 457 789 442 789 449 789 b 693 711 497 789 618 789 b 764 489 742 661 765 586 z "},"E":{"ha":226,"x_min":0,"x_max":0,"o":"m 736 225 b 399 228 678 228 463 228 b 349 260 375 228 349 236 b 350 408 349 272 349 333 b 636 406 428 407 557 406 b 699 407 668 406 689 406 b 794 507 753 408 792 461 b 764 594 796 539 783 572 b 710 618 749 610 731 618 b 351 626 671 618 465 624 b 354 758 351 697 353 753 b 383 793 357 782 367 793 b 408 793 388 793 396 793 b 556 793 440 793 497 793 b 735 794 643 793 704 793 b 846 903 804 797 846 838 b 747 1018 846 957 815 1017 b 319 1024 693 1021 457 1024 b 243 1024 285 1024 260 1024 b 115 883 156 1021 115 976 b 114 735 115 864 115 807 b 111 114 111 536 107 204 b 240 -6 115 15 183 -6 b 733 1 286 -6 682 -1 b 826 113 789 4 826 69 b 736 225 826 157 799 222 z "},"F":{"ha":213,"x_min":0,"x_max":0,"o":"m 357 760 b 381 788 361 785 369 788 l 406 788 b 556 788 438 788 496 788 b 735 789 643 788 704 788 b 847 900 806 790 847 832 b 746 1011 847 954 817 1008 b 243 1015 683 1013 333 1018 b 114 874 156 1014 114 967 b 121 101 114 792 115 219 b 246 -19 126 -11 218 -19 b 254 -19 249 -19 251 -19 b 365 90 307 -17 365 28 b 364 213 365 96 364 144 b 360 461 363 278 361 371 b 718 465 458 461 678 463 b 815 572 775 469 814 524 b 783 660 817 604 804 638 b 725 685 767 676 747 685 b 725 685 725 685 725 685 b 357 686 685 683 463 685 b 357 760 357 728 357 756 z "},"G":{"ha":408,"x_min":0,"x_max":0,"o":"m 922 563 b 835 567 904 565 876 567 b 719 565 799 567 757 565 l 676 564 b 574 528 631 564 596 551 b 547 457 556 510 546 490 b 676 367 549 397 615 367 b 815 368 708 367 776 367 b 696 239 806 331 776 261 b 592 225 661 229 625 225 b 400 290 517 225 451 247 b 379 692 285 388 294 589 b 614 794 460 789 589 794 b 704 783 647 794 679 790 b 756 760 721 778 739 769 b 781 744 764 756 772 750 b 858 713 803 729 828 713 b 940 754 889 713 919 728 b 957 846 958 776 964 808 b 743 1013 946 899 871 988 b 593 1028 704 1019 653 1028 b 254 907 465 1028 351 988 b 97 365 101 782 51 606 b 475 8 122 236 260 33 b 575 3 510 4 543 3 b 888 103 703 3 806 35 b 1033 435 1033 224 1033 433 b 922 563 1032 507 976 557 z "},"H":{"ha":417,"x_min":0,"x_max":0,"o":"m 110 875 b 118 138 110 778 121 219 b 228 -7 115 60 154 -7 b 353 122 301 -7 346 32 b 354 401 358 182 354 401 l 764 396 b 771 117 764 396 761 163 b 874 -6 788 43 800 1 b 1000 119 947 -14 1000 26 b 990 868 1000 218 999 738 b 899 1008 986 942 971 1000 b 763 847 825 1015 764 986 b 760 604 763 789 760 604 l 344 607 b 344 856 344 607 344 815 b 213 1008 344 921 322 1008 b 110 875 101 1008 110 875 z "},"I":{"ha":-233,"x_min":0,"x_max":0,"o":"m 353 504 b 349 885 350 672 347 847 b 317 972 350 928 332 956 b 233 1010 294 996 263 1010 b 110 899 178 1010 118 971 b 118 158 100 825 114 253 b 235 4 121 85 153 4 b 242 6 238 4 239 4 b 357 143 333 11 354 63 b 353 504 358 175 356 335 z "},"J":{"ha":164,"x_min":0,"x_max":0,"o":"m 632 1019 l 628 1019 b 551 990 597 1019 571 1010 b 515 876 526 964 514 924 b 514 393 518 815 517 486 b 376 238 511 296 463 240 b 368 238 374 238 371 238 b 368 238 368 238 368 238 b 235 318 294 238 267 275 l 226 329 b 136 374 206 358 174 374 b 51 332 100 374 65 357 b 101 111 13 267 28 196 b 376 0 161 42 264 0 b 481 13 413 0 447 4 b 726 311 631 49 718 154 b 746 874 733 410 746 785 b 632 1019 746 968 707 1018 z "},"K":{"ha":299,"x_min":0,"x_max":0,"o":"m 915 204 b 554 515 885 238 599 476 b 825 761 583 543 750 704 b 931 914 893 814 932 869 b 824 1018 931 967 879 1017 b 617 893 769 1018 706 965 l 603 882 b 568 854 592 872 581 864 b 354 690 521 815 447 758 b 354 925 353 804 353 900 b 321 1011 356 967 336 994 b 239 1047 300 1033 268 1047 b 117 936 183 1047 125 1008 b 121 146 108 861 117 224 b 236 -4 124 74 157 -4 b 246 -4 239 -4 242 -4 b 358 133 336 1 356 51 b 357 342 358 153 358 235 b 376 326 364 336 371 332 b 521 217 425 292 486 247 b 772 22 575 171 708 58 b 840 4 793 10 817 4 b 946 58 886 4 928 26 b 915 204 968 97 954 164 z "},"L":{"ha":307,"x_min":0,"x_max":0,"o":"m 808 265 b 553 267 767 265 649 267 b 418 267 486 267 431 267 b 379 311 393 267 379 282 b 378 421 379 322 378 364 l 378 433 b 374 911 376 590 372 854 b 338 1014 375 953 363 989 b 243 1053 314 1039 281 1053 b 117 910 167 1053 119 999 b 119 185 114 844 117 308 b 307 10 122 47 243 10 b 807 13 369 10 731 11 b 907 56 846 14 882 28 b 939 140 929 79 940 108 b 808 265 936 203 894 265 z "},"M":{"ha":494,"x_min":0,"x_max":0,"o":"m 1078 690 l 1078 694 b 1076 846 1078 769 1076 828 b 1018 1013 1076 915 1072 968 b 949 1036 999 1028 975 1036 b 846 999 914 1036 875 1022 b 594 622 807 968 644 704 b 386 918 561 674 449 844 b 236 1024 336 976 292 1024 b 204 1019 226 1024 215 1022 b 114 860 143 999 114 947 b 113 739 114 843 113 800 l 113 733 b 111 114 110 540 104 179 b 221 3 122 17 185 3 b 228 3 224 3 226 3 b 342 118 290 6 339 56 b 343 576 343 158 343 474 b 499 390 381 529 453 440 b 601 339 531 357 565 339 b 696 383 636 339 668 354 b 843 593 718 406 800 529 l 846 489 b 860 111 851 349 858 150 b 978 7 863 40 924 4 b 1081 111 1035 10 1076 51 b 1078 690 1083 151 1081 489 z "},"N":{"ha":453,"x_min":0,"x_max":0,"o":"m 929 1040 l 926 1040 b 814 925 872 1040 814 997 b 814 396 814 867 814 504 b 397 960 736 503 443 910 b 247 1033 340 1021 285 1033 b 228 1032 240 1033 233 1032 b 114 904 160 1022 118 975 b 122 132 113 858 115 215 b 236 15 129 49 185 13 b 349 117 289 18 346 56 b 347 614 350 168 349 510 b 832 28 429 504 760 65 b 903 10 856 15 879 10 b 1031 117 975 10 1026 65 b 1039 929 1035 181 1039 874 b 929 1040 1039 993 982 1039 z "},"O":{"ha":450,"x_min":0,"x_max":0,"o":"m 1060 660 b 558 1031 997 878 792 1031 l 547 1031 b 86 657 307 1026 124 838 b 274 97 38 421 143 197 b 586 8 347 42 464 8 b 853 71 686 8 778 31 b 1060 660 1029 167 1124 436 z m 818 410 b 572 258 789 307 668 254 b 332 439 456 264 354 340 b 406 722 304 558 332 661 b 574 778 447 758 508 778 b 760 706 649 778 717 751 b 818 410 851 610 843 492 z "},"P":{"ha":286,"x_min":0,"x_max":0,"o":"m 676 1036 b 318 1049 532 1044 401 1049 b 233 1046 279 1049 250 1047 b 114 910 157 1038 114 989 b 114 813 114 897 114 861 b 117 78 113 590 108 126 b 236 -22 126 10 186 -22 b 356 85 289 -22 347 15 b 358 401 360 129 360 350 b 475 400 378 400 421 400 b 685 407 553 400 624 401 b 928 728 846 421 924 583 b 676 1036 932 890 819 1029 z m 367 647 b 368 754 365 668 367 718 b 369 796 369 772 369 789 b 399 835 369 828 381 835 b 636 828 425 835 585 832 b 700 736 682 824 703 779 b 614 626 696 665 668 631 b 493 624 589 625 547 624 b 418 624 464 624 436 624 l 397 625 b 367 647 375 625 368 625 z "},"Q":{"ha":432,"x_min":0,"x_max":0,"o":"m 981 229 b 1039 663 1056 353 1081 519 b 536 1025 979 874 774 1029 b 85 660 299 1021 122 838 b 268 110 19 425 143 206 b 836 85 394 15 657 -14 b 846 90 840 86 843 89 b 871 68 856 82 864 75 b 1010 64 918 28 983 33 b 1025 178 1051 78 1053 139 b 981 229 1017 189 1001 207 z m 561 254 b 311 442 438 260 333 340 b 388 735 286 553 304 665 b 756 718 483 814 664 814 b 817 411 849 621 843 501 b 813 400 815 408 814 404 b 796 415 807 406 801 411 b 642 414 742 465 667 453 b 651 278 617 374 613 329 b 661 267 654 275 657 271 b 561 254 629 257 594 251 z "},"R":{"ha":296,"x_min":0,"x_max":0,"o":"m 754 424 b 931 728 865 475 926 614 b 672 1029 935 886 811 1022 b 224 1039 496 1039 289 1046 b 114 913 160 1032 114 994 b 115 85 114 840 106 144 b 226 -8 125 25 176 -8 b 336 90 278 -8 329 29 b 338 393 342 142 338 393 b 528 394 343 393 424 392 b 678 67 583 275 658 113 b 822 8 707 -1 781 -11 b 882 151 864 29 904 82 b 754 424 868 193 808 317 z m 349 633 b 351 797 346 665 351 774 b 390 844 351 826 361 844 b 632 839 426 831 579 843 b 718 722 685 833 721 769 b 608 603 713 649 671 607 b 390 600 547 599 413 600 b 349 633 367 600 350 600 z "},"S":{"ha":131,"x_min":0,"x_max":0,"o":"m 764 881 b 526 1057 749 938 676 1017 b 432 1068 497 1064 465 1068 b 135 882 321 1068 185 1019 b 182 558 101 790 96 657 b 363 425 229 506 300 463 b 464 356 407 399 444 376 b 485 293 481 338 489 315 b 449 239 482 271 468 250 b 394 229 438 233 418 229 b 251 258 347 229 292 242 b 186 274 229 269 207 274 b 89 221 149 274 115 256 b 110 68 57 176 65 117 b 299 -7 136 39 239 -1 b 371 -10 324 -8 347 -10 b 613 51 472 -10 554 11 b 700 394 719 126 758 276 b 482 600 658 478 561 558 b 347 731 418 633 353 675 b 415 825 342 775 372 815 b 439 828 422 826 431 828 b 574 792 483 828 543 811 b 660 763 606 772 632 763 b 701 768 674 763 686 765 b 754 808 724 774 742 788 b 764 881 768 831 771 856 z "},"T":{"ha":286,"x_min":0,"x_max":0,"o":"m 857 1061 b 164 1067 792 1069 242 1069 b 31 949 97 1064 21 1028 b 158 851 42 869 89 854 b 396 854 181 850 279 851 b 394 128 389 719 392 206 b 507 -14 397 57 428 -19 b 611 113 593 -10 608 39 b 614 857 614 172 611 747 b 847 858 726 858 821 860 b 953 956 915 856 953 914 b 857 1061 953 999 924 1054 z "},"U":{"ha":392,"x_min":0,"x_max":0,"o":"m 867 1029 b 743 894 794 1029 743 974 b 744 800 743 876 743 842 b 742 404 747 671 751 475 b 560 249 728 297 674 250 b 554 249 558 249 556 249 b 369 394 436 249 399 317 b 353 796 340 469 349 674 b 356 876 354 831 356 858 b 240 1029 356 975 317 1026 b 235 1029 238 1029 236 1029 b 110 879 157 1029 110 972 b 124 390 110 803 113 546 b 564 7 139 147 300 7 l 569 7 b 965 335 808 8 951 178 b 976 881 972 421 976 797 b 867 1029 976 974 935 1029 z "},"V":{"ha":369,"x_min":0,"x_max":0,"o":"m 972 1000 b 919 1015 956 1010 938 1015 b 804 938 869 1015 824 975 b 525 358 782 892 556 419 b 272 926 500 418 308 861 b 144 1022 239 986 192 1022 b 99 1010 129 1022 113 1018 b 50 840 36 975 21 919 b 385 94 68 792 293 243 b 515 21 414 49 463 21 b 639 88 567 21 613 46 b 1019 839 688 164 1006 800 b 972 1000 1039 889 1038 960 z "},"W":{"ha":497,"x_min":0,"x_max":0,"o":"m 38 867 b 301 88 46 807 256 176 b 494 56 344 3 440 -6 b 597 343 526 93 608 343 b 700 60 597 343 663 124 b 904 67 731 6 853 -21 b 1151 861 956 156 1136 814 b 1103 992 1167 907 1147 972 b 950 924 1047 1017 976 1004 b 801 411 911 810 819 404 b 696 735 801 411 742 644 b 497 740 650 826 538 815 b 403 438 474 697 415 433 b 265 904 403 438 293 821 b 113 1013 246 964 192 1039 b 38 867 63 996 26 947 z "},"X":{"ha":274,"x_min":0,"x_max":0,"o":"m 629 521 b 900 835 758 672 876 810 b 897 1003 956 893 935 969 b 732 1001 861 1035 790 1053 b 478 713 708 981 600 856 b 269 979 375 843 286 954 b 107 1003 222 1042 144 1033 b 81 843 69 974 40 908 b 321 529 97 815 203 679 b 81 243 206 392 104 272 b 69 46 32 183 1 100 b 244 74 142 -11 189 17 b 474 338 264 92 360 204 b 682 79 574 211 660 106 b 871 36 732 22 808 -21 b 874 211 938 97 919 147 b 629 521 857 235 750 369 z "},"Y":{"ha":321,"x_min":0,"x_max":0,"o":"m 61 856 b 396 450 79 824 401 435 b 397 129 396 450 393 207 b 519 -6 401 51 446 -4 b 635 108 581 -6 632 44 b 636 435 636 172 660 428 b 949 835 636 435 883 735 b 951 1007 981 883 994 964 b 806 1007 908 1051 846 1039 b 524 678 764 975 535 668 b 250 982 524 678 296 931 b 75 1014 203 1036 131 1054 b 61 856 21 975 28 914 z "},"Z":{"ha":197,"x_min":0,"x_max":0,"o":"m 194 788 b 483 792 239 788 492 774 b 181 369 483 792 239 465 b 54 138 139 303 54 217 b 188 7 54 57 114 10 b 744 10 250 6 665 4 b 847 119 824 17 851 65 b 736 221 843 174 807 224 b 360 225 690 219 368 204 b 722 747 360 225 693 690 b 768 926 757 818 786 875 b 632 1017 751 976 704 1014 b 194 1018 561 1018 296 1021 b 50 893 94 1017 47 961 b 194 788 51 826 121 788 z "},"[":{"ha":-158,"x_min":0,"x_max":0,"o":"m 103 1003 b 103 36 107 938 99 94 b 210 -62 111 -37 164 -76 b 421 -61 258 -67 368 -75 b 499 25 486 -57 522 -25 b 438 103 499 61 483 99 b 276 111 393 107 296 97 b 275 401 276 111 294 263 b 283 958 271 524 286 935 b 413 961 283 958 374 940 b 500 1036 461 961 496 985 b 438 1124 504 1083 497 1121 b 210 1125 400 1124 267 1125 b 103 1003 153 1125 99 1085 z "},"¥":{"ha":0,"x_min":0,"x_max":0,"o":""},"]":{"ha":-144,"x_min":0,"x_max":0,"o":"m 442 1003 b 336 1125 447 1085 393 1125 b 108 1124 279 1125 144 1124 b 46 1036 86 1121 42 1083 b 133 961 49 985 83 961 b 263 958 183 940 263 958 b 271 401 271 935 275 524 b 269 111 288 263 269 111 b 107 103 286 97 153 107 b 46 25 63 99 46 61 b 124 -61 60 -25 58 -57 b 336 -62 190 -75 288 -67 b 442 36 394 -76 435 -37 b 442 1003 460 94 438 938 z "},"^":{"ha":174,"x_min":0,"x_max":0,"o":"m 453 836 b 579 583 453 836 531 672 b 726 360 628 494 681 376 b 844 403 772 342 829 365 b 783 572 858 440 807 519 b 542 1036 761 624 572 990 b 400 1068 510 1082 435 1088 b 242 818 367 1049 311 925 b 38 486 174 713 63 546 b 75 365 11 425 43 379 b 196 410 106 351 176 353 b 453 836 228 450 453 836 z "},"_":{"ha":67,"x_min":0,"x_max":0,"o":"m 608 -39 b 526 -37 599 -39 572 -37 b 368 -36 421 -37 488 -36 b 129 -37 300 -36 142 -36 b 24 -135 64 -42 24 -79 b 125 -211 24 -162 36 -207 b 379 -214 158 -212 214 -214 b 600 -212 443 -214 569 -214 b 721 -175 644 -210 694 -204 b 738 -122 733 -161 739 -143 b 608 -39 733 -49 672 -39 z "},"`":{"ha":-83,"x_min":0,"x_max":0,"o":"m 276 1043 b 164 1042 236 1072 204 1079 b 168 910 124 1004 129 942 b 322 829 206 876 279 847 b 385 931 363 813 424 868 b 276 1043 357 975 306 1021 z "},"a":{"ha":193,"x_min":0,"x_max":0,"o":"m 582 63 b 669 -12 582 63 607 -12 b 783 96 732 -12 782 22 b 725 525 785 164 828 364 b 274 638 654 638 439 718 b 75 279 96 551 69 404 b 354 6 82 103 217 17 b 582 63 490 -6 582 63 z m 556 286 b 414 199 531 235 476 199 b 285 349 319 199 269 278 b 461 467 301 421 351 496 b 556 286 569 438 585 344 z "},"b":{"ha":176,"x_min":0,"x_max":0,"o":"m 103 907 b 110 140 106 813 96 288 b 338 0 122 -6 222 3 b 742 131 453 -4 657 10 b 715 571 828 251 828 435 b 344 683 601 708 367 678 b 340 900 344 683 340 846 b 232 1026 340 956 293 1019 b 103 907 171 1033 100 993 z m 324 254 b 319 393 319 307 319 351 b 394 468 319 446 342 468 b 553 399 446 468 517 468 b 504 225 585 339 567 258 b 324 254 444 192 326 194 z "},"c":{"ha":74,"x_min":0,"x_max":0,"o":"m 593 10 b 714 133 651 26 714 60 b 638 244 714 213 664 239 b 463 240 597 254 524 233 b 328 385 347 254 314 314 b 567 463 353 500 476 494 b 699 531 625 442 678 468 b 646 674 725 607 681 651 b 328 708 592 708 472 749 b 71 336 147 660 61 503 b 321 17 82 171 189 47 b 593 10 454 -17 531 -8 z "},"d":{"ha":179,"x_min":0,"x_max":0,"o":"m 768 144 b 767 911 781 290 764 815 b 636 1029 768 996 697 1036 b 528 901 575 1021 528 956 b 528 683 529 847 535 681 b 158 568 528 683 271 707 b 136 128 47 431 49 247 b 542 1 222 8 426 -4 b 768 144 657 6 756 -3 z m 556 394 b 553 256 556 353 556 308 b 372 224 550 196 432 192 b 321 397 310 257 290 338 b 481 468 358 467 428 468 b 556 394 532 468 556 447 z "},"e":{"ha":49,"x_min":0,"x_max":0,"o":"m 74 385 b 342 7 74 121 199 32 b 625 78 517 -24 600 32 b 524 215 668 154 590 231 b 328 265 354 176 342 258 b 579 299 328 265 507 253 b 639 563 668 356 694 460 b 319 706 582 667 482 724 b 74 385 157 689 74 517 z m 472 479 b 319 432 488 425 358 404 b 351 528 293 453 313 492 b 472 479 404 549 461 525 z "},"f":{"ha":132,"x_min":0,"x_max":0,"o":"m 703 982 b 397 951 621 1036 465 1010 b 278 689 329 894 278 824 b 164 685 232 688 192 688 b 42 517 61 678 24 601 b 249 425 57 439 147 431 b 274 424 256 424 264 424 b 276 99 272 288 271 143 b 386 -1 283 33 339 -6 b 488 108 433 1 488 50 b 494 428 488 149 492 304 b 590 432 531 429 564 431 b 719 546 665 433 724 481 b 614 682 717 600 682 675 b 510 686 594 683 557 685 b 538 740 517 707 525 725 b 647 753 564 779 617 769 b 768 808 678 736 740 754 b 703 982 794 863 783 928 z "},"g":{"ha":124,"x_min":0,"x_max":0,"o":"m 513 154 b 375 14 521 68 465 29 b 214 39 322 4 285 31 b 117 -87 143 46 103 -32 b 342 -221 135 -154 221 -214 b 640 -96 468 -228 575 -181 b 724 417 735 26 746 256 b 474 751 697 603 613 715 b 90 576 313 794 156 724 b 164 214 44 472 74 292 b 513 154 269 122 443 150 z m 499 410 b 354 367 479 358 418 357 b 296 521 299 375 257 464 b 463 532 333 579 433 564 b 499 410 493 499 517 458 z "},"h":{"ha":188,"x_min":0,"x_max":0,"o":"m 107 893 b 114 121 103 851 107 190 b 219 0 121 36 147 -6 b 332 126 283 6 317 36 b 335 308 338 165 333 265 b 561 313 342 457 551 460 b 567 96 564 271 563 139 b 678 0 571 53 603 0 b 778 86 747 0 772 50 b 779 324 783 118 788 215 b 615 613 768 464 717 567 b 342 636 454 685 344 635 b 331 893 342 636 332 807 b 207 1036 331 954 300 1036 b 107 893 114 1036 113 965 z "},"i":{"ha":-229,"x_min":0,"x_max":0,"o":"m 246 663 b 371 786 333 669 371 728 b 289 921 371 844 346 892 b 104 811 240 947 118 921 b 246 663 94 729 158 657 z m 111 143 b 224 -12 119 69 128 -4 b 351 101 297 -18 336 28 b 358 438 365 175 358 315 b 242 611 358 556 310 611 b 110 463 185 608 117 572 b 111 143 101 351 104 217 z "},"j":{"ha":54,"x_min":0,"x_max":0,"o":"m 522 658 b 676 785 613 650 672 733 b 542 929 679 836 636 921 b 400 783 447 938 400 842 b 522 658 400 724 460 664 z m 414 439 b 364 64 418 293 450 103 b 219 79 329 49 265 50 b 71 69 172 108 108 111 b 78 -111 22 17 42 -74 b 385 -190 147 -181 264 -210 b 633 67 489 -172 621 -83 b 649 443 643 185 653 350 b 544 604 644 536 629 604 b 414 439 460 604 411 532 z "},"k":{"ha":67,"x_min":0,"x_max":0,"o":"m 479 383 b 649 533 479 383 599 494 b 682 692 699 574 708 642 b 521 718 656 742 575 756 b 328 569 489 696 394 622 b 326 900 328 729 326 874 b 199 1022 326 964 276 1022 b 107 894 121 1022 107 957 b 114 111 107 838 117 179 b 214 -8 110 42 142 -14 b 326 104 286 -1 324 51 b 328 201 328 115 328 151 b 497 35 389 140 464 64 b 668 38 565 -25 646 13 b 668 185 692 65 701 144 b 479 383 635 225 479 383 z "},"l":{"ha":-253,"x_min":0,"x_max":0,"o":"m 335 147 b 342 875 338 218 339 789 b 238 1006 344 960 289 1006 b 114 888 185 1006 124 969 b 107 164 104 806 103 263 b 231 0 110 82 139 -7 b 335 147 329 6 331 61 z "},"m":{"ha":438,"x_min":0,"x_max":0,"o":"m 104 582 b 110 79 104 518 104 188 b 219 -15 114 11 175 -15 b 313 53 264 -15 304 13 b 326 394 322 93 318 350 b 407 461 336 439 363 465 b 469 381 451 457 465 425 b 485 74 475 336 471 118 b 574 -3 497 29 519 -3 b 676 79 628 -3 672 29 b 689 382 681 128 676 332 b 757 444 703 431 721 444 b 833 382 793 444 824 431 b 838 76 842 332 828 131 b 928 -11 846 22 875 -11 b 1024 69 982 -11 1019 21 b 1028 463 1028 119 1046 328 b 824 682 1011 597 918 674 b 629 618 729 692 639 599 b 478 694 629 618 581 689 b 321 636 388 697 321 636 b 204 710 296 697 261 710 b 104 582 146 710 104 658 z "},"n":{"ha":200,"x_min":0,"x_max":0,"o":"m 106 593 b 115 86 97 507 104 160 b 222 -14 128 11 167 -18 b 321 78 276 -11 318 15 b 322 328 322 133 324 238 b 464 467 319 439 389 467 b 590 358 538 467 582 443 b 600 79 597 282 593 165 b 707 -14 607 4 657 -17 b 793 79 758 -10 789 32 b 785 392 797 126 801 282 b 542 671 761 547 686 640 b 322 632 388 706 322 632 b 208 711 318 668 258 714 b 106 593 157 707 113 671 z "},"o":{"ha":131,"x_min":0,"x_max":0,"o":"m 410 -7 b 761 308 631 -7 751 144 b 404 690 768 457 694 688 b 72 264 113 693 36 425 b 410 -7 115 74 272 -7 z m 549 307 b 382 218 535 251 475 199 b 276 386 286 236 261 325 b 475 472 290 438 375 522 b 549 307 563 429 561 347 z "},"p":{"ha":128,"x_min":0,"x_max":0,"o":"m 107 576 b 115 -114 94 431 119 -18 b 229 -232 113 -199 168 -239 b 328 -107 290 -225 328 -161 b 326 28 328 -51 342 4 b 678 139 326 28 564 1 b 706 586 790 275 790 465 b 319 718 619 707 435 721 b 107 576 203 714 121 724 z m 301 325 b 304 463 301 365 301 411 b 486 493 308 522 426 525 b 535 319 547 460 567 379 b 375 250 497 250 428 250 b 301 325 324 250 301 272 z "},"q":{"ha":118,"x_min":0,"x_max":0,"o":"m 708 -114 b 717 576 706 -18 731 431 b 506 718 704 724 622 714 b 119 586 390 721 206 707 b 147 139 35 465 35 275 b 499 28 261 1 506 4 b 496 -107 499 28 496 -53 b 596 -232 496 -161 535 -225 b 708 -114 657 -239 713 -199 z m 521 463 b 524 325 524 411 524 365 b 449 250 524 272 501 250 b 290 319 397 250 326 250 b 339 493 258 379 276 460 b 521 463 399 525 517 522 z "},"r":{"ha":61,"x_min":0,"x_max":0,"o":"m 100 579 b 118 119 107 481 106 188 b 257 10 129 53 124 -26 b 344 242 339 31 319 156 b 569 453 375 349 451 419 b 701 599 679 483 721 519 b 489 663 683 679 588 693 b 310 551 392 631 329 538 b 310 622 310 551 310 556 b 196 735 310 690 269 735 b 100 579 122 735 94 678 z "},"s":{"ha":-11,"x_min":0,"x_max":0,"o":"m 119 604 b 213 340 88 496 139 407 b 365 199 269 288 389 258 b 186 204 350 158 264 188 b 72 49 71 229 42 88 b 311 -42 103 8 160 -40 b 567 128 456 -44 532 3 b 433 429 607 275 501 372 b 338 540 388 467 296 490 b 514 540 381 592 442 540 b 600 679 597 542 624 625 b 360 774 575 736 482 778 b 119 604 263 769 161 744 z "},"t":{"ha":18,"x_min":0,"x_max":0,"o":"m 564 707 b 464 711 549 708 482 710 b 374 886 464 790 464 886 b 264 713 283 886 267 832 b 36 572 157 710 36 672 b 251 474 36 479 171 471 b 256 136 250 350 250 204 b 363 -4 265 43 288 -4 b 461 132 436 -4 461 51 b 461 474 461 178 461 339 b 533 474 472 474 524 474 b 676 576 619 474 675 517 b 564 707 678 619 651 696 z "},"u":{"ha":172,"x_min":0,"x_max":0,"o":"m 93 550 b 111 235 97 486 72 432 b 550 10 150 39 299 -42 b 771 519 803 61 775 414 b 675 704 765 646 746 700 b 557 615 604 710 561 679 b 535 269 551 551 567 335 b 356 233 504 204 400 208 b 315 575 310 257 318 513 b 199 711 311 638 278 717 b 93 550 121 707 86 667 z "},"v":{"ha":267,"x_min":0,"x_max":0,"o":"m 51 526 b 300 93 74 463 199 257 b 628 86 383 -43 557 -26 b 908 525 676 165 893 482 b 868 688 925 568 940 643 b 703 629 796 733 736 678 b 463 265 669 581 481 258 b 264 617 463 265 306 540 b 92 699 222 694 160 738 b 51 526 26 660 21 607 z "},"w":{"ha":310,"x_min":0,"x_max":0,"o":"m 951 650 b 903 703 939 675 926 694 b 864 713 885 710 882 713 b 751 638 811 713 769 685 b 661 382 732 589 688 460 b 594 544 644 431 614 511 b 500 606 572 582 546 606 b 406 549 454 606 428 583 b 347 399 394 531 365 450 b 268 624 322 471 282 589 b 139 724 250 669 206 724 b 103 718 126 724 115 721 b 42 582 42 700 31 647 b 251 64 50 531 215 125 b 346 -1 276 24 297 -1 b 408 36 381 -1 383 13 b 501 240 426 53 501 240 b 589 43 517 235 572 68 b 669 -6 608 14 624 -6 b 758 49 717 -6 735 14 b 933 508 789 93 861 296 b 954 571 944 542 951 564 b 951 650 964 596 963 624 z "},"x":{"ha":72,"x_min":0,"x_max":0,"o":"m 693 208 b 542 376 681 226 629 283 b 676 517 607 444 661 501 b 708 601 699 540 710 569 b 679 676 708 633 701 656 b 518 676 636 715 565 717 b 382 539 503 663 449 607 b 260 669 321 601 271 654 b 161 721 236 703 201 721 b 88 697 133 721 107 713 b 72 538 43 663 33 601 b 222 372 85 515 140 457 b 78 215 153 299 93 235 b 33 97 58 193 29 147 b 74 28 38 71 51 46 b 140 6 100 8 117 6 b 236 57 181 6 210 31 b 382 210 250 71 310 133 b 506 75 443 147 492 92 b 626 7 542 32 586 7 b 699 36 653 7 678 17 b 693 208 783 110 717 174 z "},"y":{"ha":157,"x_min":0,"x_max":0,"o":"m 63 506 b 272 188 92 443 293 178 b 179 81 272 188 228 153 b 149 -128 131 8 89 -82 b 326 -104 229 -192 274 -149 b 754 449 389 -51 697 371 b 779 657 813 526 843 589 b 613 647 717 724 644 681 b 417 401 565 597 436 386 b 272 621 417 401 321 550 b 83 690 219 699 146 733 b 63 506 21 647 22 593 z "},"z":{"ha":56,"x_min":0,"x_max":0,"o":"m 160 497 b 365 501 217 496 371 488 b 126 235 365 501 172 285 b 57 78 82 183 42 131 b 164 -8 68 43 114 -8 b 588 -8 215 -8 524 -19 b 708 92 654 -8 703 28 b 622 197 713 156 663 194 b 367 207 582 200 374 192 b 642 539 367 207 618 504 b 557 704 696 615 615 704 b 172 701 499 704 268 704 b 44 581 83 699 42 639 b 160 497 47 522 99 501 z "},"{":{"ha":-214,"x_min":0,"x_max":0,"o":"m 403 981 b 436 1040 422 996 433 1018 b 424 1085 438 1058 433 1074 b 363 1107 413 1099 389 1107 b 240 1044 338 1107 289 1099 b 208 739 165 960 197 789 b 181 603 221 683 200 617 b 122 476 135 569 114 526 b 161 403 126 446 144 424 b 194 342 176 383 190 364 b 192 251 199 321 194 286 b 194 88 188 199 182 138 b 350 -93 215 4 288 -93 b 410 -69 376 -93 397 -85 b 425 -12 422 -56 428 -36 b 393 42 422 10 408 25 b 347 100 381 56 365 72 b 335 265 325 135 329 204 b 336 365 336 303 339 336 b 279 497 332 425 300 472 b 350 631 303 522 342 574 b 346 793 357 681 351 740 b 342 871 344 822 342 850 b 403 981 342 918 381 963 z "},"|":{"ha":-261,"x_min":0,"x_max":0,"o":"m 313 996 b 204 1100 308 1063 264 1108 b 128 982 146 1092 132 1036 b 129 89 125 949 128 278 b 129 -14 129 36 129 -1 b 224 -124 129 -75 171 -124 b 308 -25 260 -124 304 -106 b 313 996 313 24 317 935 z "},"}":{"ha":-200,"x_min":0,"x_max":0,"o":"m 99 981 b 161 871 122 963 161 918 b 156 793 161 850 158 822 b 153 631 151 740 146 681 b 222 497 161 574 200 522 b 165 365 203 472 171 425 b 168 265 164 336 165 303 b 156 100 172 204 178 135 b 110 42 138 72 122 56 b 78 -12 93 25 81 10 b 92 -69 75 -36 79 -56 b 153 -93 106 -85 126 -93 b 308 88 215 -93 288 4 b 311 251 321 138 315 199 b 308 342 307 286 304 321 b 342 403 313 364 326 383 b 381 476 358 424 375 446 b 322 603 388 526 368 569 b 294 739 303 617 282 683 b 261 1044 306 789 338 960 b 139 1107 214 1099 164 1107 b 79 1085 114 1107 90 1099 b 67 1040 69 1074 65 1058 b 99 981 68 1018 81 996 z "},"~":{"ha":-133,"x_min":0,"x_max":0,"o":"m 164 944 b 294 931 200 958 244 950 b 449 921 343 913 390 896 b 503 1022 507 944 517 988 b 424 1058 490 1057 453 1071 b 276 1068 394 1047 329 1047 b 96 1065 211 1093 135 1093 b 65 951 51 1033 42 983 b 164 944 88 919 115 925 z "},"\\":{"ha":28,"x_min":0,"x_max":0,"o":"m 244 988 b 97 1074 218 1047 169 1113 b 71 921 25 1035 44 968 b 343 356 96 872 299 447 b 515 42 388 263 478 92 b 638 11 551 -7 606 -4 b 651 158 669 28 686 79 b 429 622 618 238 472 519 b 244 988 386 726 269 932 z "},"¦":{"ha":0,"x_min":0,"x_max":0,"o":""},"¡":{"ha":0,"x_min":0,"x_max":0,"o":""},"¢":{"ha":0,"x_min":0,"x_max":0,"o":""},"£":{"ha":0,"x_min":0,"x_max":0,"o":""},"⁄":{"ha":0,"x_min":0,"x_max":0,"o":""},"¤":{"ha":0,"x_min":0,"x_max":0,"o":""},"«":{"ha":0,"x_min":0,"x_max":0,"o":""},"‹":{"ha":0,"x_min":0,"x_max":0,"o":""},"›":{"ha":0,"x_min":0,"x_max":0,"o":""},"ﬁ":{"ha":0,"x_min":0,"x_max":0,"o":""},"ﬂ":{"ha":0,"x_min":0,"x_max":0,"o":""},"‒":{"ha":0,"x_min":0,"x_max":0,"o":""},"·":{"ha":0,"x_min":0,"x_max":0,"o":""},"•":{"ha":0,"x_min":0,"x_max":0,"o":""},"‚":{"ha":0,"x_min":0,"x_max":0,"o":""},"„":{"ha":0,"x_min":0,"x_max":0,"o":""},"»":{"ha":0,"x_min":0,"x_max":0,"o":""},"¿":{"ha":0,"x_min":0,"x_max":0,"o":""},"́":{"ha":0,"x_min":0,"x_max":0,"o":""},"̂":{"ha":0,"x_min":0,"x_max":0,"o":""},"¯":{"ha":0,"x_min":0,"x_max":0,"o":""},"̆":{"ha":0,"x_min":0,"x_max":0,"o":""},"̇":{"ha":0,"x_min":0,"x_max":0,"o":""},"̈":{"ha":0,"x_min":0,"x_max":0,"o":""},"̊":{"ha":0,"x_min":0,"x_max":0,"o":""},"¸":{"ha":0,"x_min":0,"x_max":0,"o":""},"̋":{"ha":0,"x_min":0,"x_max":0,"o":""},"̨":{"ha":0,"x_min":0,"x_max":0,"o":""},"̌":{"ha":0,"x_min":0,"x_max":0,"o":""},"̶":{"ha":0,"x_min":0,"x_max":0,"o":""},"Æ":{"ha":0,"x_min":0,"x_max":0,"o":""},"ª":{"ha":0,"x_min":0,"x_max":0,"o":""},"Ł":{"ha":0,"x_min":0,"x_max":0,"o":""},"Ø":{"ha":0,"x_min":0,"x_max":0,"o":""},"Œ":{"ha":0,"x_min":0,"x_max":0,"o":""},"º":{"ha":0,"x_min":0,"x_max":0,"o":""},"æ":{"ha":0,"x_min":0,"x_max":0,"o":""},"ı":{"ha":0,"x_min":0,"x_max":0,"o":""},"ł":{"ha":0,"x_min":0,"x_max":0,"o":""},"ø":{"ha":0,"x_min":0,"x_max":0,"o":""},"œ":{"ha":0,"x_min":0,"x_max":0,"o":""},"ß":{"ha":0,"x_min":0,"x_max":0,"o":""},"­":{"ha":0,"x_min":0,"x_max":0,"o":""},"©":{"ha":0,"x_min":0,"x_max":0,"o":""},"¬":{"ha":0,"x_min":0,"x_max":0,"o":""},"®":{"ha":0,"x_min":0,"x_max":0,"o":""},"²":{"ha":0,"x_min":0,"x_max":0,"o":""},"³":{"ha":0,"x_min":0,"x_max":0,"o":""},"µ":{"ha":0,"x_min":0,"x_max":0,"o":""},"¹":{"ha":0,"x_min":0,"x_max":0,"o":""},"¼":{"ha":0,"x_min":0,"x_max":0,"o":""},"½":{"ha":0,"x_min":0,"x_max":0,"o":""},"¾":{"ha":0,"x_min":0,"x_max":0,"o":""},"À":{"ha":0,"x_min":0,"x_max":0,"o":""},"Á":{"ha":0,"x_min":0,"x_max":0,"o":""},"Â":{"ha":0,"x_min":0,"x_max":0,"o":""},"Ã":{"ha":0,"x_min":0,"x_max":0,"o":""},"Ä":{"ha":0,"x_min":0,"x_max":0,"o":""},"Å":{"ha":0,"x_min":0,"x_max":0,"o":""},"Ç":{"ha":0,"x_min":0,"x_max":0,"o":""},"È":{"ha":0,"x_min":0,"x_max":0,"o":""},"É":{"ha":0,"x_min":0,"x_max":0,"o":""},"Ê":{"ha":0,"x_min":0,"x_max":0,"o":""},"Ë":{"ha":0,"x_min":0,"x_max":0,"o":""},"Ì":{"ha":0,"x_min":0,"x_max":0,"o":""},"Í":{"ha":0,"x_min":0,"x_max":0,"o":""},"Î":{"ha":0,"x_min":0,"x_max":0,"o":""},"Ï":{"ha":0,"x_min":0,"x_max":0,"o":""},"Ð":{"ha":0,"x_min":0,"x_max":0,"o":""},"Ñ":{"ha":0,"x_min":0,"x_max":0,"o":""},"Ò":{"ha":0,"x_min":0,"x_max":0,"o":""},"Ó":{"ha":0,"x_min":0,"x_max":0,"o":""},"Ô":{"ha":0,"x_min":0,"x_max":0,"o":""},"Õ":{"ha":0,"x_min":0,"x_max":0,"o":""},"Ö":{"ha":0,"x_min":0,"x_max":0,"o":""},"Ù":{"ha":0,"x_min":0,"x_max":0,"o":""},"Ú":{"ha":0,"x_min":0,"x_max":0,"o":""},"Û":{"ha":0,"x_min":0,"x_max":0,"o":""},"Ü":{"ha":0,"x_min":0,"x_max":0,"o":""},"Ý":{"ha":0,"x_min":0,"x_max":0,"o":""},"Þ":{"ha":0,"x_min":0,"x_max":0,"o":""},"à":{"ha":0,"x_min":0,"x_max":0,"o":""},"á":{"ha":0,"x_min":0,"x_max":0,"o":""},"â":{"ha":0,"x_min":0,"x_max":0,"o":""},"ã":{"ha":0,"x_min":0,"x_max":0,"o":""},"ä":{"ha":0,"x_min":0,"x_max":0,"o":""},"å":{"ha":0,"x_min":0,"x_max":0,"o":""},"ç":{"ha":0,"x_min":0,"x_max":0,"o":""},"è":{"ha":0,"x_min":0,"x_max":0,"o":""},"é":{"ha":0,"x_min":0,"x_max":0,"o":""},"ê":{"ha":0,"x_min":0,"x_max":0,"o":""},"ë":{"ha":0,"x_min":0,"x_max":0,"o":""},"ì":{"ha":0,"x_min":0,"x_max":0,"o":""},"í":{"ha":0,"x_min":0,"x_max":0,"o":""},"î":{"ha":0,"x_min":0,"x_max":0,"o":""},"ï":{"ha":0,"x_min":0,"x_max":0,"o":""},"ð":{"ha":0,"x_min":0,"x_max":0,"o":""},"ñ":{"ha":0,"x_min":0,"x_max":0,"o":""},"ò":{"ha":0,"x_min":0,"x_max":0,"o":""},"ó":{"ha":0,"x_min":0,"x_max":0,"o":""},"ô":{"ha":0,"x_min":0,"x_max":0,"o":""},"õ":{"ha":0,"x_min":0,"x_max":0,"o":""},"ö":{"ha":0,"x_min":0,"x_max":0,"o":""},"ù":{"ha":0,"x_min":0,"x_max":0,"o":""},"ú":{"ha":0,"x_min":0,"x_max":0,"o":""},"û":{"ha":0,"x_min":0,"x_max":0,"o":""},"ü":{"ha":0,"x_min":0,"x_max":0,"o":""},"ý":{"ha":0,"x_min":0,"x_max":0,"o":""},"þ":{"ha":0,"x_min":0,"x_max":0,"o":""},"ÿ":{"ha":0,"x_min":0,"x_max":0,"o":""},"Š":{"ha":0,"x_min":0,"x_max":0,"o":""},"Ÿ":{"ha":0,"x_min":0,"x_max":0,"o":""},"Ž":{"ha":0,"x_min":0,"x_max":0,"o":""},"̅":{"ha":0,"x_min":0,"x_max":0,"o":""},"š":{"ha":0,"x_min":0,"x_max":0,"o":""},"™":{"ha":0,"x_min":0,"x_max":0,"o":""},"ž":{"ha":0,"x_min":0,"x_max":0,"o":""}," ":{"ha":0,"x_min":0,"x_max":0,"o":""},"￨":{"ha":0,"x_min":0,"x_max":0,"o":""},"‾":{"ha":0,"x_min":0,"x_max":0,"o":""},"｡":{"ha":19,"x_min":0,"x_max":0,"o":"m 219 -39 b 408 129 318 -47 426 36 b 247 311 408 213 360 290 b 61 136 136 332 54 213 b 219 -39 68 58 100 -31 z m 286 143 b 225 86 286 119 263 82 b 174 144 192 90 176 93 b 239 199 174 174 206 204 b 286 143 271 194 286 167 z "},"｢":{"ha":211,"x_min":0,"x_max":0,"o":"m 468 911 b 724 917 468 911 631 915 b 842 997 800 919 842 964 b 761 1094 842 1039 817 1088 b 417 1101 679 1104 500 1099 b 278 976 335 1101 278 1039 b 285 13 278 915 278 74 b 371 -72 292 -50 329 -72 b 461 17 413 -72 464 -65 b 468 911 461 79 468 911 z "},"｣":{"ha":208,"x_min":0,"x_max":0,"o":"m 432 118 b 176 111 432 118 269 114 b 58 31 100 110 58 65 b 139 -65 58 -10 83 -58 b 483 -72 221 -75 417 -97 b 622 51 565 -72 622 -10 b 615 1017 622 114 622 954 b 529 1101 608 1079 571 1101 b 439 1013 488 1101 453 1067 b 432 118 439 950 432 118 z "},"､":{"ha":17,"x_min":0,"x_max":0,"o":"m 117 117 b 269 -19 149 89 224 17 b 390 6 317 -57 365 -26 b 364 125 415 39 419 76 b 225 251 328 156 269 217 b 86 235 181 286 114 283 b 117 117 58 188 75 154 z "},"･":{"ha":22,"x_min":0,"x_max":0,"o":"m 367 428 b 513 568 449 422 513 499 b 390 721 513 639 485 703 b 222 574 296 739 217 639 b 367 428 229 510 267 435 z "},"ｦ":{"ha":0,"x_min":0,"x_max":0,"o":""},"ｧ":{"ha":0,"x_min":0,"x_max":0,"o":""},"ｨ":{"ha":0,"x_min":0,"x_max":0,"o":""},"ｩ":{"ha":0,"x_min":0,"x_max":0,"o":""},"ｪ":{"ha":0,"x_min":0,"x_max":0,"o":""},"ｫ":{"ha":0,"x_min":0,"x_max":0,"o":""},"ｬ":{"ha":0,"x_min":0,"x_max":0,"o":""},"ｭ":{"ha":0,"x_min":0,"x_max":0,"o":""},"ｮ":{"ha":0,"x_min":0,"x_max":0,"o":""},"ｯ":{"ha":0,"x_min":0,"x_max":0,"o":""},"ｰ":{"ha":-47,"x_min":0,"x_max":0,"o":"m 179 474 b 503 475 235 474 442 458 b 597 581 579 478 601 538 b 469 657 593 625 532 657 b 168 657 408 657 263 651 b 49 546 96 654 47 600 b 179 474 64 488 107 474 z "},"ｱ":{"ha":0,"x_min":0,"x_max":0,"o":""},"ｲ":{"ha":0,"x_min":0,"x_max":0,"o":""},"ｳ":{"ha":0,"x_min":0,"x_max":0,"o":""},"ｴ":{"ha":0,"x_min":0,"x_max":0,"o":""},"ｵ":{"ha":0,"x_min":0,"x_max":0,"o":""},"ｶ":{"ha":0,"x_min":0,"x_max":0,"o":""},"ｷ":{"ha":0,"x_min":0,"x_max":0,"o":""},"ｸ":{"ha":0,"x_min":0,"x_max":0,"o":""},"ｹ":{"ha":0,"x_min":0,"x_max":0,"o":""},"ｺ":{"ha":0,"x_min":0,"x_max":0,"o":""},"ｻ":{"ha":0,"x_min":0,"x_max":0,"o":""},"ｼ":{"ha":0,"x_min":0,"x_max":0,"o":""},"ｽ":{"ha":0,"x_min":0,"x_max":0,"o":""},"ｾ":{"ha":0,"x_min":0,"x_max":0,"o":""},"ｿ":{"ha":0,"x_min":0,"x_max":0,"o":""},"ﾀ":{"ha":0,"x_min":0,"x_max":0,"o":""},"ﾁ":{"ha":0,"x_min":0,"x_max":0,"o":""},"ﾂ":{"ha":0,"x_min":0,"x_max":0,"o":""},"ﾃ":{"ha":0,"x_min":0,"x_max":0,"o":""},"ﾄ":{"ha":0,"x_min":0,"x_max":0,"o":""},"ﾅ":{"ha":0,"x_min":0,"x_max":0,"o":""},"ﾆ":{"ha":0,"x_min":0,"x_max":0,"o":""},"ﾇ":{"ha":0,"x_min":0,"x_max":0,"o":""},"ﾈ":{"ha":0,"x_min":0,"x_max":0,"o":""},"ﾉ":{"ha":0,"x_min":0,"x_max":0,"o":""},"ﾊ":{"ha":0,"x_min":0,"x_max":0,"o":""},"ﾋ":{"ha":0,"x_min":0,"x_max":0,"o":""},"ﾌ":{"ha":0,"x_min":0,"x_max":0,"o":""},"ﾍ":{"ha":0,"x_min":0,"x_max":0,"o":""},"ﾎ":{"ha":0,"x_min":0,"x_max":0,"o":""},"ﾏ":{"ha":0,"x_min":0,"x_max":0,"o":""},"ﾐ":{"ha":0,"x_min":0,"x_max":0,"o":""},"ﾑ":{"ha":0,"x_min":0,"x_max":0,"o":""},"ﾒ":{"ha":0,"x_min":0,"x_max":0,"o":""},"ﾓ":{"ha":0,"x_min":0,"x_max":0,"o":""},"ﾔ":{"ha":0,"x_min":0,"x_max":0,"o":""},"ﾕ":{"ha":0,"x_min":0,"x_max":0,"o":""},"ﾖ":{"ha":0,"x_min":0,"x_max":0,"o":""},"ﾗ":{"ha":0,"x_min":0,"x_max":0,"o":""},"ﾘ":{"ha":0,"x_min":0,"x_max":0,"o":""},"ﾙ":{"ha":0,"x_min":0,"x_max":0,"o":""},"ﾚ":{"ha":0,"x_min":0,"x_max":0,"o":""},"ﾛ":{"ha":0,"x_min":0,"x_max":0,"o":""},"ﾜ":{"ha":0,"x_min":0,"x_max":0,"o":""},"ﾝ":{"ha":0,"x_min":0,"x_max":0,"o":""},"ﾞ":{"ha":0,"x_min":0,"x_max":0,"o":""},"ﾟ":{"ha":0,"x_min":0,"x_max":0,"o":""}," ":{"ha":0,"x_min":0,"x_max":0,"o":""},"、":{"ha":0,"x_min":0,"x_max":0,"o":"m 167 117 b 319 -19 199 89 274 17 b 440 6 367 -57 415 -26 b 414 125 465 39 469 76 b 275 251 378 156 319 217 b 136 235 231 286 164 283 b 167 117 108 188 125 154 z "},"。":{"ha":0,"x_min":0,"x_max":0,"o":"m 258 -39 b 447 129 357 -47 465 36 b 286 311 447 213 399 290 b 100 136 175 332 93 213 b 258 -39 107 58 139 -31 z m 325 143 b 264 86 325 119 301 82 b 213 144 231 90 215 93 b 278 199 213 174 244 204 b 325 143 310 194 325 167 z "},"，":{"ha":0,"x_min":0,"x_max":0,"o":"m 268 -6 b 243 -56 264 -35 275 -40 b 254 -106 225 -81 238 -97 b 329 -65 271 -114 301 -101 b 372 94 357 -29 376 40 b 256 201 368 149 318 204 b 158 61 183 199 142 124 b 268 -6 175 -1 268 -6 z "},"．":{"ha":0,"x_min":0,"x_max":0,"o":"m 269 -36 b 381 71 328 -40 381 22 b 274 196 381 119 361 192 b 149 72 188 201 143 125 b 269 -36 153 19 197 -29 z "},"・":{"ha":0,"x_min":0,"x_max":0,"o":"m 694 428 b 840 568 776 422 840 499 b 718 721 840 639 813 703 b 550 574 624 739 544 639 b 694 428 557 510 594 435 z "},"：":{"ha":0,"x_min":0,"x_max":0,"o":"m 694 681 b 815 792 758 676 824 725 b 713 913 815 847 786 899 b 574 797 638 926 568 847 b 694 681 578 746 615 686 z m 689 169 b 810 282 764 161 810 235 b 717 393 810 328 782 383 b 579 286 651 403 594 326 b 689 169 579 231 624 178 z "},"；":{"ha":0,"x_min":0,"x_max":0,"o":"m 700 676 b 811 783 758 672 811 735 b 704 908 811 831 792 904 b 579 785 618 914 575 838 b 700 676 583 732 628 683 z m 692 185 b 667 133 688 154 696 144 b 678 83 650 108 661 92 b 753 125 694 75 725 88 b 796 285 781 161 800 231 b 679 392 792 339 742 394 b 583 251 608 389 567 314 b 692 185 600 189 692 185 z "},"？":{"ha":0,"x_min":0,"x_max":0,"o":"m 713 233 b 683 236 703 235 693 236 b 567 99 603 236 567 156 b 697 -32 567 36 617 -32 b 819 72 757 -32 807 11 b 807 174 828 111 824 146 b 713 233 789 203 757 224 z m 958 949 b 707 1058 907 1018 817 1058 b 536 1022 647 1058 586 1046 b 365 788 413 964 379 867 b 385 697 360 754 367 721 b 453 660 401 675 424 663 b 576 749 524 651 557 704 b 654 839 583 765 611 821 b 689 843 660 840 672 843 b 783 806 704 843 758 840 b 746 614 828 743 799 658 b 610 382 658 542 617 471 b 636 303 608 351 617 322 b 706 275 653 285 676 275 b 821 385 779 275 811 351 b 882 472 826 406 853 436 b 961 572 907 501 935 535 b 958 949 1025 664 1057 811 z "},"！":{"ha":0,"x_min":0,"x_max":0,"o":"m 806 1008 b 718 1047 783 1033 753 1047 b 611 1001 675 1047 636 1031 b 576 885 585 972 574 932 b 622 347 579 821 613 386 b 704 269 633 299 664 269 l 708 269 b 792 346 753 272 783 299 b 842 876 800 390 835 800 b 806 1008 844 929 832 978 z m 724 233 b 694 236 714 235 704 236 b 576 99 614 236 576 156 b 708 -32 576 36 628 -32 b 829 72 767 -32 817 11 b 818 174 838 111 833 146 b 724 233 800 203 768 224 z "},"゛":{"ha":0,"x_min":0,"x_max":0,"o":"m 135 888 b 279 782 174 811 235 760 b 261 935 326 806 325 849 b 149 1000 217 994 188 1021 b 135 888 108 981 114 928 z m 297 961 b 429 865 336 892 375 838 b 431 1000 476 889 472 931 b 311 1075 392 1065 351 1096 b 297 961 271 1056 274 1000 z "},"゜":{"ha":0,"x_min":0,"x_max":0,"o":"m 272 719 b 461 889 371 713 481 796 b 300 1071 461 972 413 1050 b 113 896 188 1092 106 972 b 272 719 119 818 153 729 z m 338 903 b 278 846 338 879 315 842 b 226 904 244 850 231 853 b 292 958 226 933 258 963 b 338 903 324 954 338 926 z "},"´":{"ha":0,"x_min":0,"x_max":0,"o":"m 697 1043 b 589 931 668 1021 617 975 b 651 829 550 868 611 813 b 807 910 694 847 768 876 b 811 1042 844 942 851 1004 b 697 1043 769 1079 738 1072 z "},"｀":{"ha":0,"x_min":0,"x_max":0,"o":"m 717 1043 b 604 1042 676 1072 644 1079 b 608 910 564 1004 571 942 b 764 829 646 876 719 847 b 826 931 803 813 864 868 b 717 1043 797 975 747 1021 z "},"¨":{"ha":0,"x_min":0,"x_max":0,"o":"m 568 860 b 661 950 621 856 661 906 b 583 1049 661 996 643 1038 b 475 954 522 1060 471 996 b 568 860 479 913 503 864 z m 821 860 b 914 950 874 856 914 906 b 835 1049 914 996 911 1018 b 728 954 775 1060 724 996 b 821 860 732 913 756 864 z "},"＾":{"ha":0,"x_min":0,"x_max":0,"o":"m 918 904 b 829 1006 908 921 878 954 l 800 1035 b 701 1082 772 1065 738 1082 b 607 1038 667 1082 633 1067 b 556 989 597 1028 578 1010 b 475 908 500 936 481 917 b 490 814 446 857 472 828 b 525 803 500 807 513 803 b 592 832 551 803 576 818 b 703 929 604 844 672 903 b 796 836 728 904 779 853 b 863 799 810 819 833 799 b 899 810 875 799 888 801 b 918 904 933 831 940 865 z "},"￣":{"ha":0,"x_min":0,"x_max":0,"o":"m 263 963 b 632 960 318 965 531 951 b 1149 960 733 968 1071 953 b 1254 1032 1226 965 1254 1000 b 1185 1118 1254 1065 1243 1107 b 863 1125 1129 1126 954 1128 b 243 1124 769 1122 293 1122 b 131 1038 194 1124 132 1111 b 263 963 131 964 203 958 z "},"＿":{"ha":0,"x_min":0,"x_max":0,"o":"m 1126 -46 b 757 -43 1071 -49 858 -35 b 240 -43 656 -51 318 -36 b 135 -115 163 -49 135 -83 b 204 -201 135 -149 163 -207 b 526 -208 260 -210 435 -211 b 1146 -207 619 -206 1096 -206 b 1258 -121 1194 -207 1257 -194 b 1126 -46 1258 -47 1186 -42 z "},"ヽ":{"ha":0,"x_min":0,"x_max":0,"o":""},"ヾ":{"ha":0,"x_min":0,"x_max":0,"o":""},"ゝ":{"ha":0,"x_min":0,"x_max":0,"o":""},"ゞ":{"ha":0,"x_min":0,"x_max":0,"o":""},"〃":{"ha":0,"x_min":0,"x_max":0,"o":"m 738 813 b 658 936 736 899 696 932 b 558 826 614 939 564 904 b 479 535 554 771 532 640 b 353 383 439 454 393 417 b 307 343 336 369 321 357 b 279 218 274 308 249 250 b 394 189 310 175 381 185 b 628 417 457 206 550 275 b 738 813 696 542 739 697 z m 957 900 b 857 775 910 900 858 861 b 789 453 856 715 840 571 b 661 279 750 363 703 318 b 614 231 644 263 628 247 b 606 107 578 188 576 142 b 731 81 639 68 719 76 b 956 336 811 108 890 199 b 1049 772 1021 475 1057 647 b 957 900 1040 889 976 899 z "},"仝":{"ha":0,"x_min":0,"x_max":0,"o":""},"々":{"ha":0,"x_min":0,"x_max":0,"o":""},"〆":{"ha":0,"x_min":0,"x_max":0,"o":""},"〇":{"ha":0,"x_min":0,"x_max":0,"o":"m 661 -60 b 1247 464 967 -82 1247 201 b 749 1031 1247 725 1081 1003 b 165 485 394 1061 143 725 b 661 -60 188 246 290 -33 z m 1013 486 b 672 172 1013 356 881 146 b 383 500 486 196 383 342 b 750 801 383 657 567 826 b 1013 486 933 775 1013 617 z "},"ー":{"ha":0,"x_min":0,"x_max":0,"o":"m 1019 640 b 900 642 1006 640 963 642 b 535 644 760 643 693 644 b 346 643 444 644 364 644 b 206 513 261 638 206 586 b 340 411 206 476 224 417 b 706 407 385 410 486 407 b 1007 410 790 407 967 407 b 1168 460 1067 413 1133 422 b 1190 529 1183 478 1192 501 b 1019 640 1185 628 1104 640 z "},"―":{"ha":0,"x_min":0,"x_max":0,"o":"m 1019 640 b 900 642 1006 640 963 642 b 535 644 760 643 693 644 b 346 643 444 644 364 644 b 206 513 261 638 206 586 b 340 411 206 476 224 417 b 706 407 385 410 486 407 b 1007 410 790 407 967 407 b 1168 460 1067 413 1133 422 b 1190 529 1183 478 1192 501 b 1019 640 1185 628 1104 640 z "},"‐":{"ha":0,"x_min":0,"x_max":0,"o":"m 546 474 b 869 475 601 474 808 458 b 964 581 946 478 968 538 b 836 657 960 625 899 657 b 535 657 775 657 629 651 b 415 546 463 654 414 600 b 546 474 431 488 474 474 z "},"／":{"ha":0,"x_min":0,"x_max":0,"o":"m 1260 958 b 1256 1058 1289 993 1288 1035 b 1165 1036 1224 1082 1192 1061 b 178 96 1149 1022 264 188 b 131 46 154 71 136 51 b 126 -50 103 17 100 -25 b 213 -42 143 -67 172 -78 b 1260 958 236 -19 1233 928 z "},"＼":{"ha":0,"x_min":0,"x_max":0,"o":"m 129 958 b 1176 -42 156 928 1153 -19 b 1263 -50 1217 -78 1246 -67 b 1258 46 1289 -25 1286 17 b 1211 96 1253 51 1235 71 b 224 1036 1125 188 240 1022 b 133 1058 197 1061 165 1082 b 129 958 101 1035 100 993 z "},"∼":{"ha":0,"x_min":0,"x_max":0,"o":"m 1238 557 b 1124 629 1229 603 1176 636 b 1068 618 1104 626 1086 622 b 943 597 1036 610 999 601 b 729 663 890 593 808 628 b 588 717 682 682 632 703 b 472 732 553 726 514 732 b 253 679 381 732 296 706 b 167 500 197 644 114 593 b 347 492 200 440 268 436 b 496 514 365 504 429 517 b 694 457 556 513 626 485 b 779 425 719 447 750 435 b 969 390 844 403 908 390 b 1122 415 1022 390 1074 399 b 1238 557 1214 447 1246 511 z "},"‖":{"ha":0,"x_min":0,"x_max":0,"o":"m 653 1008 b 544 1111 649 1075 604 1119 b 468 994 485 1104 472 1047 b 468 100 465 961 468 290 b 469 -1 469 49 469 10 b 564 -111 469 -62 511 -111 b 649 -12 600 -111 643 -94 b 653 1008 651 36 657 946 z m 921 1008 b 813 1111 917 1075 872 1119 b 736 994 753 1104 740 1047 b 736 100 733 961 736 290 b 738 -1 738 49 738 10 b 832 -111 738 -64 779 -111 b 917 -12 868 -111 911 -94 b 921 1008 921 36 925 946 z "},"｜":{"ha":0,"x_min":0,"x_max":0,"o":"m 790 996 b 682 1100 786 1063 742 1108 b 606 982 624 1092 610 1036 b 607 89 603 949 606 278 b 607 -14 607 36 607 -1 b 701 -124 607 -75 649 -124 b 786 -25 738 -124 782 -106 b 790 996 790 24 794 935 z "},"…":{"ha":0,"x_min":0,"x_max":0,"o":"m 269 463 b 381 569 332 458 381 517 b 288 686 381 624 358 674 b 160 575 215 700 154 624 b 269 463 164 525 193 468 z m 694 463 b 806 569 757 458 806 517 b 711 686 806 624 783 674 b 583 575 640 700 579 624 b 694 463 589 525 618 468 z m 1118 463 b 1231 569 1181 458 1231 517 b 1136 686 1231 624 1208 674 b 1008 575 1065 700 1004 624 b 1118 463 1013 525 1043 468 z "},"‥":{"ha":0,"x_min":0,"x_max":0,"o":"m 339 463 b 450 569 401 458 450 517 b 357 686 450 624 429 674 b 229 575 286 700 225 624 b 339 463 233 525 263 468 z m 1021 463 b 1132 569 1083 458 1132 517 b 1039 686 1132 624 1110 674 b 911 575 967 700 906 624 b 1021 463 915 525 944 468 z "},"‘":{"ha":0,"x_min":0,"x_max":0,"o":"m 1186 976 b 1213 1029 1190 1007 1194 1003 b 1200 1081 1229 1054 1218 1072 b 1122 1039 1183 1089 1151 1076 b 1078 874 1093 1001 1074 929 b 1200 761 1082 817 1135 760 b 1299 907 1272 765 1317 843 b 1186 976 1282 972 1186 976 z "},"’":{"ha":0,"x_min":0,"x_max":0,"o":"m 210 868 b 183 817 206 838 201 842 b 196 764 167 790 178 772 b 274 806 213 756 244 768 b 318 972 303 844 322 915 b 197 1083 314 1028 261 1086 b 97 938 124 1081 81 1003 b 210 868 115 872 210 868 z "},"“":{"ha":0,"x_min":0,"x_max":0,"o":"m 1183 976 b 1210 1029 1188 1007 1192 1003 b 1197 1081 1226 1054 1215 1072 b 1119 1039 1181 1089 1149 1076 b 1075 874 1090 1001 1071 929 b 1196 761 1079 817 1132 760 b 1296 907 1269 765 1313 843 b 1183 976 1278 972 1183 976 z m 897 976 b 924 1029 901 1007 907 1003 b 913 1081 940 1054 929 1072 b 833 1039 894 1089 863 1076 b 789 874 804 1001 785 929 b 911 761 794 817 846 760 b 1010 907 985 765 1028 843 b 897 976 993 972 897 976 z "},"”":{"ha":0,"x_min":0,"x_max":0,"o":"m 210 868 b 183 817 206 838 210 822 b 196 764 167 790 178 774 b 274 806 213 756 244 768 b 318 972 303 844 322 915 b 197 1083 314 1028 261 1086 b 97 938 124 1081 79 1003 b 210 868 114 872 210 868 z m 496 868 b 469 817 490 838 486 842 b 481 764 451 790 464 772 b 558 806 499 756 529 768 b 603 972 588 844 608 915 b 482 1083 599 1028 547 1086 b 383 938 408 1081 365 1003 b 496 868 400 872 496 868 z "},"（":{"ha":0,"x_min":0,"x_max":0,"o":"m 1242 940 b 1275 1088 1294 1000 1306 1056 b 1106 1064 1233 1129 1172 1128 b 901 499 1039 1000 893 803 b 1144 -49 910 175 1081 1 b 1289 -51 1208 -97 1263 -75 b 1275 88 1315 -28 1321 18 b 1096 522 1228 157 1093 300 b 1242 940 1100 746 1201 896 z "},"）":{"ha":0,"x_min":0,"x_max":0,"o":"m 158 940 b 304 522 199 896 300 746 b 125 88 307 300 172 157 b 111 -51 79 18 85 -28 b 256 -49 138 -75 192 -97 b 499 499 319 1 490 175 b 294 1064 506 803 361 1000 b 125 1088 228 1128 167 1129 b 158 940 94 1056 106 1000 z "},"〔":{"ha":0,"x_min":0,"x_max":0,"o":"m 858 931 b 850 117 861 865 857 183 b 957 11 858 43 911 31 b 1207 -60 1007 -10 1143 -46 b 1244 103 1290 -79 1336 68 b 1024 185 1203 119 1032 171 b 1022 475 1024 185 1029 338 b 1031 879 1018 597 1046 875 b 1208 931 1031 879 1144 911 b 1296 1019 1268 949 1292 969 b 1219 1108 1300 1067 1256 1113 b 964 1053 1164 1101 1028 1071 b 858 931 908 1039 853 1013 z "},"〕":{"ha":0,"x_min":0,"x_max":0,"o":"m 536 931 b 431 1053 542 1013 486 1039 b 175 1108 367 1071 231 1101 b 99 1019 139 1113 94 1067 b 186 931 103 969 126 949 b 364 879 250 911 364 879 b 372 475 365 875 376 597 b 371 185 382 338 371 185 b 150 103 381 171 192 119 b 188 -60 58 68 104 -79 b 438 11 251 -46 388 -10 b 544 117 483 31 536 43 b 536 931 554 183 533 865 z "},"［":{"ha":0,"x_min":0,"x_max":0,"o":"m 892 1003 b 892 36 896 938 888 94 b 999 -62 900 -37 953 -76 b 1210 -61 1047 -67 1157 -75 b 1288 25 1275 -57 1311 -25 b 1226 103 1288 61 1272 99 b 1065 111 1182 107 1085 97 b 1064 401 1065 111 1083 263 b 1072 958 1060 524 1075 935 b 1201 961 1072 958 1163 940 b 1289 1036 1250 961 1285 985 b 1226 1124 1293 1083 1286 1121 b 999 1125 1189 1124 1056 1125 b 892 1003 942 1125 888 1085 z "},"］":{"ha":0,"x_min":0,"x_max":0,"o":"m 497 1003 b 392 1125 503 1085 449 1125 b 164 1124 335 1125 200 1124 b 101 1036 142 1121 97 1083 b 189 961 104 985 139 961 b 318 958 239 940 318 958 b 326 401 326 935 331 524 b 325 111 343 263 325 111 b 163 103 342 97 208 107 b 101 25 118 99 101 61 b 179 -61 115 -25 114 -57 b 392 -62 246 -75 343 -67 b 497 36 450 -76 490 -37 b 497 1003 515 94 493 938 z "},"｛":{"ha":0,"x_min":0,"x_max":0,"o":"m 1264 981 b 1297 1040 1283 996 1294 1018 b 1285 1085 1299 1058 1294 1074 b 1224 1107 1274 1099 1250 1107 b 1101 1044 1199 1107 1150 1099 b 1069 739 1026 960 1058 789 b 1042 603 1082 683 1061 617 b 983 476 996 569 975 526 b 1022 403 988 446 1006 424 b 1056 342 1038 383 1051 364 b 1053 251 1060 321 1056 286 b 1056 88 1049 199 1043 138 b 1211 -93 1076 4 1149 -93 b 1271 -69 1238 -93 1258 -85 b 1286 -12 1283 -56 1289 -36 b 1254 42 1283 10 1269 25 b 1208 100 1242 56 1226 72 b 1196 265 1186 135 1190 204 b 1197 365 1197 303 1200 336 b 1140 497 1193 425 1161 472 b 1211 631 1164 522 1203 574 b 1207 793 1218 681 1213 740 b 1203 871 1206 822 1203 850 b 1264 981 1203 918 1242 963 z "},"｝":{"ha":0,"x_min":0,"x_max":0,"o":"m 132 981 b 194 871 156 963 194 918 b 189 793 194 850 192 822 b 186 631 185 740 179 681 b 256 497 194 574 233 522 b 199 365 236 472 204 425 b 201 265 197 336 199 303 b 189 100 206 204 211 135 b 143 42 171 72 156 56 b 111 -12 126 25 114 10 b 125 -69 108 -36 113 -56 b 186 -93 139 -85 160 -93 b 342 88 249 -93 321 4 b 344 251 354 138 349 199 b 342 342 340 286 338 321 b 375 403 346 364 360 383 b 414 476 392 424 408 446 b 356 603 421 526 401 569 b 328 739 336 617 315 683 b 294 1044 339 789 371 960 b 172 1107 247 1099 197 1107 b 113 1085 147 1107 124 1099 b 100 1040 103 1074 99 1058 b 132 981 101 1018 114 996 z "},"〈":{"ha":0,"x_min":0,"x_max":0,"o":"m 1053 68 b 947 208 1042 88 1007 132 b 740 482 874 300 783 414 b 743 521 732 494 729 499 b 925 771 775 569 854 676 b 1046 935 978 842 1024 904 b 1053 1039 1068 967 1071 1007 b 965 1094 1036 1072 1001 1094 b 882 1049 933 1094 903 1078 l 875 1038 b 560 613 686 804 599 676 b 569 381 492 501 544 419 b 892 -46 664 233 854 0 b 974 -87 914 -72 943 -87 b 1058 -37 1008 -87 1040 -68 b 1053 68 1076 -6 1074 35 z "},"〉":{"ha":0,"x_min":0,"x_max":0,"o":"m 817 613 b 501 1039 778 676 690 804 l 493 1049 b 411 1094 474 1078 443 1094 b 324 1040 375 1094 340 1072 b 331 935 306 1007 308 967 b 450 771 351 904 397 842 b 633 521 521 676 601 569 b 636 482 647 499 644 494 b 429 208 592 414 501 300 b 322 68 369 132 335 88 b 318 -37 301 35 300 -6 b 403 -87 335 -68 368 -87 b 485 -46 433 -87 463 -72 b 807 381 522 0 713 233 b 817 613 832 419 885 501 z "},"《":{"ha":0,"x_min":0,"x_max":0,"o":"m 1036 1003 b 946 1064 1078 1064 992 1132 b 597 593 943 1060 701 765 b 607 399 544 508 575 449 b 954 -60 710 239 921 -19 b 1043 3 1004 -121 1082 -61 b 704 450 1013 51 786 324 b 706 551 682 483 681 511 b 1036 1003 768 646 982 924 z m 1269 1003 b 1179 1064 1311 1064 1225 1132 b 831 593 1176 1060 935 765 b 840 399 778 508 808 449 b 1188 -60 943 239 1154 -19 b 1276 3 1238 -121 1315 -61 b 938 450 1246 51 1019 324 b 940 551 915 483 914 511 b 1269 1003 1001 646 1215 924 z "},"》":{"ha":0,"x_min":0,"x_max":0,"o":"m 364 1003 b 693 551 418 924 632 646 b 696 450 719 511 718 483 b 357 3 614 324 388 51 b 446 -60 318 -61 396 -121 b 793 399 479 -19 690 239 b 803 593 825 449 856 508 b 454 1064 699 765 457 1060 b 364 1003 408 1132 322 1064 z m 131 1003 b 460 551 185 924 399 646 b 463 450 486 511 485 483 b 124 3 381 324 154 51 b 213 -60 85 -61 163 -121 b 560 399 246 -19 457 239 b 569 593 592 449 622 508 b 221 1064 465 765 224 1060 b 131 1003 175 1132 89 1064 z "},"「":{"ha":0,"x_min":0,"x_max":0,"o":"m 918 911 b 1174 917 918 911 1081 915 b 1292 997 1250 919 1292 964 b 1211 1094 1292 1039 1267 1088 b 867 1101 1129 1104 950 1099 b 728 976 785 1101 728 1039 b 735 13 728 915 728 74 b 821 -72 742 -50 779 -72 b 911 17 863 -72 914 -65 b 918 911 911 79 918 911 z "},"」":{"ha":0,"x_min":0,"x_max":0,"o":"m 476 118 b 221 111 476 118 314 114 b 103 31 144 110 103 65 b 183 -65 103 -10 128 -58 b 528 -72 265 -75 461 -97 b 667 51 610 -72 667 -10 b 660 1017 667 114 667 954 b 574 1101 653 1079 615 1101 b 483 1013 532 1101 497 1067 b 476 118 483 950 476 118 z "},"『":{"ha":0,"x_min":0,"x_max":0,"o":"m 1203 1094 b 988 1101 1153 1100 1067 1101 b 858 1101 938 1101 890 1101 b 719 976 776 1101 719 1039 b 726 13 719 915 719 74 b 813 -72 733 -50 771 -72 b 901 17 865 -74 901 -44 b 908 911 922 57 908 911 b 1165 917 911 889 1072 915 b 1283 997 1242 919 1283 964 b 1203 1094 1283 1039 1258 1088 z m 1164 978 b 907 972 1071 976 907 972 b 847 911 874 971 847 944 b 840 17 847 878 840 78 b 813 -11 840 -8 824 -11 b 786 19 801 -11 790 -11 b 781 976 782 60 781 529 b 858 1040 781 1003 807 1040 b 910 1040 874 1040 890 1040 b 988 1040 933 1040 960 1040 b 1196 1033 1025 1040 1139 1040 b 1222 1000 1218 1031 1221 1008 b 1164 978 1218 994 1201 979 z "},"』":{"ha":0,"x_min":0,"x_max":0,"o":"m 663 1017 b 576 1101 656 1079 618 1101 b 488 1013 535 1101 488 1074 b 481 118 508 944 481 118 b 224 111 494 113 317 114 b 106 31 147 110 106 65 b 186 -65 106 -10 131 -58 b 401 -72 236 -71 322 -72 b 531 -72 451 -72 499 -72 b 669 51 613 -72 669 -10 b 663 1017 669 114 669 956 z m 531 -11 b 479 -11 515 -11 499 -11 b 401 -11 456 -11 429 -11 b 193 -4 364 -11 250 -11 b 167 28 171 -1 168 21 b 225 50 171 35 188 50 b 482 57 318 53 482 57 b 542 118 515 57 542 85 b 549 1013 542 151 549 950 b 576 1040 549 1036 565 1040 b 603 1010 588 1040 599 1040 b 608 51 607 969 608 500 b 531 -11 608 25 582 -11 z "},"【":{"ha":0,"x_min":0,"x_max":0,"o":"m 892 1003 b 892 36 896 938 888 94 b 999 -62 900 -37 953 -76 b 1210 -61 1047 -67 1157 -75 b 1288 25 1275 -57 1299 -11 b 1064 532 1268 92 1083 131 b 1289 1036 1064 928 1263 974 b 1226 1124 1308 1079 1286 1121 b 999 1125 1189 1124 1056 1125 b 892 1003 942 1125 888 1085 z "},"】":{"ha":0,"x_min":0,"x_max":0,"o":"m 504 1003 b 399 1125 510 1085 456 1125 b 171 1124 342 1125 207 1124 b 108 1036 143 1121 89 1079 b 333 532 135 974 333 928 b 108 25 344 131 128 92 b 186 -61 99 -11 121 -57 b 399 -62 272 -75 350 -67 b 504 36 451 -76 497 -37 b 504 1003 517 94 500 938 z "},"＋":{"ha":0,"x_min":0,"x_max":0,"o":"m 1008 628 b 919 629 999 628 965 629 b 788 631 883 629 838 629 b 786 911 788 767 788 886 b 678 1015 782 979 738 1024 b 601 897 619 1008 606 951 b 600 631 600 881 600 764 b 497 631 563 631 528 631 b 356 629 429 631 369 631 b 250 532 292 625 250 588 b 351 456 250 504 263 460 b 601 453 374 454 482 453 b 603 282 601 389 601 329 b 603 181 603 229 603 192 b 697 71 603 118 644 71 b 782 168 733 71 778 88 b 786 453 783 189 785 313 b 1000 454 854 453 972 453 b 1121 492 1044 457 1094 463 b 1138 544 1133 506 1139 524 b 1008 628 1133 618 1074 628 z "},"−":{"ha":0,"x_min":0,"x_max":0,"o":"m 1008 628 b 919 629 999 628 965 629 b 497 631 814 629 617 631 b 356 629 429 631 369 631 b 250 532 292 625 250 588 b 351 456 250 504 263 460 b 772 453 385 454 607 453 b 1000 454 838 453 969 453 b 1121 492 1044 457 1094 463 b 1138 544 1133 506 1139 524 b 1008 628 1133 618 1074 628 z "},"±":{"ha":0,"x_min":0,"x_max":0,"o":"m 351 574 b 601 571 374 572 482 571 b 601 497 601 546 601 522 b 603 396 603 444 603 407 b 697 286 603 333 644 286 b 782 385 733 286 776 303 b 786 571 783 403 785 479 b 1000 572 854 571 971 571 b 1121 610 1044 575 1094 582 b 1138 663 1133 624 1139 642 b 1008 746 1133 736 1072 746 b 919 747 999 746 965 747 b 788 749 883 747 838 747 b 786 932 788 835 788 910 b 678 1036 782 1000 738 1044 b 601 918 618 1029 606 972 b 600 749 600 901 600 835 b 497 749 563 749 528 749 b 356 749 429 749 369 749 b 250 650 290 743 250 706 b 351 574 250 622 263 578 z m 1008 225 b 919 225 999 225 965 225 b 497 228 814 226 617 228 b 356 226 429 228 369 228 b 250 128 292 222 250 183 b 351 51 250 101 263 56 b 772 49 385 50 607 49 b 1000 51 836 49 969 49 b 1121 89 1044 53 1094 60 b 1138 142 1133 103 1139 119 b 1008 225 1133 215 1072 225 z "},"×":{"ha":0,"x_min":0,"x_max":0,"o":"m 949 417 b 826 539 919 446 875 490 b 1033 746 928 638 1017 726 b 1031 894 1078 796 1078 858 b 893 865 983 932 935 901 b 692 669 879 854 792 768 b 617 744 664 697 638 724 b 488 878 569 792 499 869 b 343 883 439 921 383 922 b 361 758 325 865 301 824 b 565 544 378 740 471 643 b 444 424 519 499 478 457 b 365 343 407 386 374 351 b 354 199 322 300 317 236 b 485 208 381 174 424 156 b 696 413 500 222 592 311 b 882 236 749 361 861 254 b 994 178 915 206 956 175 b 1043 203 1013 178 1029 186 b 1011 353 1092 258 1057 307 b 949 417 1004 360 981 383 z "},"÷":{"ha":0,"x_min":0,"x_max":0,"o":"m 693 764 b 804 872 756 760 804 818 b 711 988 804 925 783 975 b 583 876 639 1001 579 925 b 693 764 588 826 617 769 z m 693 96 b 804 203 756 92 804 150 b 711 319 804 257 782 306 b 583 207 639 333 579 257 b 693 96 588 158 617 101 z m 1008 628 b 919 629 999 628 965 629 b 497 631 814 629 617 631 b 356 629 429 631 369 631 b 250 532 292 625 250 588 b 351 456 250 504 263 460 b 772 453 385 454 607 453 b 1000 454 838 453 969 453 b 1121 492 1044 457 1094 463 b 1138 544 1133 506 1139 524 b 1008 628 1133 618 1074 628 z "},"＝":{"ha":0,"x_min":0,"x_max":0,"o":"m 421 643 b 971 647 469 639 914 633 b 1086 744 1033 647 1094 679 b 983 831 1086 801 1061 801 b 404 831 922 835 490 826 b 296 719 339 826 288 785 b 421 643 303 671 339 649 z m 953 433 b 399 435 901 433 463 439 b 286 333 333 431 286 393 b 393 257 286 285 325 260 b 940 256 457 254 864 251 b 1090 347 1018 260 1094 274 b 953 433 1086 419 1029 433 z "},"≠":{"ha":0,"x_min":0,"x_max":0,"o":"m 953 433 b 744 435 931 433 843 433 b 803 533 764 468 785 501 b 868 646 818 557 842 601 b 971 647 918 647 957 647 b 1086 744 1033 647 1086 688 b 983 831 1094 778 1044 826 b 968 831 981 831 975 831 b 989 943 986 869 1000 910 b 950 988 983 963 969 978 b 799 915 878 1025 835 975 b 749 833 793 906 774 875 b 404 831 604 833 442 833 b 296 719 339 826 288 785 b 421 643 303 671 339 649 b 636 643 442 640 533 642 b 515 436 594 571 551 496 b 399 435 460 436 415 436 b 286 333 333 431 286 393 b 393 257 286 285 325 260 b 408 257 397 257 403 257 b 401 243 406 250 403 246 b 433 103 369 181 382 133 b 569 147 458 88 517 67 b 635 254 578 160 603 200 b 940 256 763 253 900 253 b 1090 347 1018 260 1094 274 b 953 433 1086 419 1029 433 z "},"＜":{"ha":0,"x_min":0,"x_max":0,"o":"m 969 808 b 1088 911 1024 840 1079 871 b 1025 1004 1094 943 1069 989 b 996 1010 1017 1008 1007 1010 b 850 958 957 1010 903 990 l 825 943 b 385 661 732 886 450 714 l 379 657 b 283 543 339 625 293 589 b 335 432 269 489 296 463 b 765 176 378 397 621 260 b 850 129 803 156 833 139 b 1000 74 931 82 965 74 b 1082 154 1038 74 1082 111 l 1082 156 b 1004 269 1082 196 1082 228 b 514 531 932 307 560 506 b 960 803 558 557 907 772 z "},"＞":{"ha":0,"x_min":0,"x_max":0,"o":"m 1111 543 b 1014 657 1100 589 1054 625 l 1008 661 b 568 943 943 714 661 886 l 543 958 b 399 1010 492 990 438 1010 b 368 1004 388 1010 376 1008 b 306 911 324 989 300 943 b 424 808 314 871 369 840 l 435 803 b 879 531 488 772 836 557 b 390 269 833 506 463 307 b 311 156 311 228 311 196 l 311 154 b 393 74 311 111 357 74 b 544 129 429 74 463 82 b 628 176 561 139 590 156 b 1060 432 774 260 1017 397 b 1111 543 1097 463 1124 489 z "},"≦":{"ha":0,"x_min":0,"x_max":0,"o":"m 1040 181 b 968 181 1032 181 1006 181 l 951 181 b 754 183 904 181 832 182 b 481 188 653 186 547 188 b 338 186 404 188 350 188 b 221 94 267 183 221 147 b 333 21 221 68 235 24 b 735 13 336 21 557 13 b 1032 14 761 13 999 13 b 1160 47 1079 17 1132 22 b 1181 100 1175 61 1182 79 b 1040 181 1175 181 1083 181 z m 1185 431 b 1086 529 1185 474 1158 500 b 722 650 1047 546 875 601 b 490 725 628 681 538 708 b 1065 897 590 758 897 849 b 1182 974 1138 918 1176 943 b 1174 1044 1186 990 1190 1021 b 1125 1072 1164 1060 1147 1069 b 947 1042 1079 1079 1015 1061 b 885 1024 926 1035 906 1029 b 332 849 807 1003 381 869 b 210 736 289 829 219 799 b 265 633 201 682 232 656 b 874 426 310 606 801 447 b 963 396 900 418 932 407 b 975 392 967 394 971 393 b 968 392 972 392 971 392 l 951 392 b 754 396 904 393 832 394 b 481 400 653 397 547 400 b 338 399 404 400 350 400 b 221 307 267 394 221 358 b 333 232 221 281 235 236 b 735 225 336 232 557 225 b 1032 226 761 225 999 225 b 1160 260 1079 228 1132 233 b 1181 313 1175 274 1182 292 b 1150 369 1179 339 1167 357 b 1185 431 1171 383 1185 406 z "},"≧":{"ha":0,"x_min":0,"x_max":0,"o":"m 1064 399 b 921 400 1051 400 999 400 b 647 396 854 400 749 397 b 451 393 569 394 497 393 l 433 392 b 426 392 432 392 429 392 b 439 396 431 393 435 394 b 528 426 469 407 501 418 b 1136 633 600 449 1092 606 b 1192 736 1169 656 1200 682 b 1071 849 1182 799 1113 829 b 518 1024 1022 869 594 1003 b 454 1042 496 1029 475 1035 b 276 1072 386 1061 324 1079 b 228 1044 254 1069 239 1060 b 219 974 211 1021 215 990 b 336 897 226 943 264 918 b 911 725 506 849 811 758 b 679 650 864 710 774 681 b 315 529 526 601 354 546 b 218 431 244 500 218 474 b 251 369 218 406 231 383 b 221 313 235 357 222 339 b 242 260 219 292 226 274 b 371 226 269 233 322 228 b 667 225 403 225 640 225 b 1068 232 846 225 1067 232 b 1182 307 1167 236 1182 281 b 1064 399 1182 358 1136 394 z m 1064 186 b 921 188 1051 188 999 188 b 647 183 854 188 749 186 b 451 181 569 182 497 181 l 433 181 b 361 181 397 181 371 181 b 221 100 318 181 226 181 b 242 47 219 79 226 61 b 371 14 269 22 322 17 b 667 13 403 13 640 13 b 1068 21 846 13 1067 21 b 1182 94 1167 24 1182 68 b 1064 186 1182 147 1136 183 z "},"∞":{"ha":0,"x_min":0,"x_max":0,"o":"m 700 700 b 510 819 700 700 626 806 b 228 704 400 833 311 810 b 196 339 142 594 156 438 b 500 188 243 225 369 163 b 694 303 611 210 703 285 b 832 196 694 303 753 228 b 1151 260 924 157 1063 169 b 1189 650 1225 333 1253 524 b 896 811 1118 789 1003 813 b 700 700 789 808 700 700 z m 557 418 b 433 381 524 381 482 372 b 347 496 371 390 346 463 b 451 618 349 529 368 611 b 575 547 535 625 567 572 b 557 418 589 507 586 449 z m 1021 418 b 896 381 986 381 944 372 b 810 496 833 390 810 463 b 914 618 811 529 831 611 b 1039 547 997 625 1029 572 b 1021 418 1053 507 1049 449 z "},"∴":{"ha":0,"x_min":0,"x_max":0,"o":"m 694 758 b 806 865 757 753 806 811 b 711 982 806 919 783 968 b 583 869 640 994 579 919 b 694 758 589 821 618 763 z m 310 60 b 421 167 372 56 421 114 b 328 283 421 221 400 271 b 200 172 257 297 196 221 b 310 60 204 122 233 65 z m 1078 60 b 1189 167 1140 56 1189 114 b 1096 283 1189 221 1167 271 b 968 172 1024 297 964 221 b 1078 60 972 122 1001 65 z "},"♂":{"ha":0,"x_min":0,"x_max":0,"o":"m 1172 651 l 1082 971 b 978 1031 1069 1017 1022 1043 l 657 944 b 596 839 611 932 583 885 b 701 779 608 793 656 767 l 811 808 b 758 722 800 793 789 776 b 683 593 742 693 710 640 b 279 447 535 635 350 574 b 379 -22 200 307 199 100 b 404 -37 388 -28 396 -33 b 679 -61 486 -83 585 -92 b 874 100 768 -32 843 31 b 835 501 947 263 933 400 b 935 674 861 544 896 603 b 971 732 947 694 960 714 l 1007 606 b 1047 554 1013 582 1028 564 b 1113 546 1067 543 1089 539 b 1172 651 1158 558 1185 606 z m 714 178 b 490 126 679 117 569 81 b 474 136 485 129 479 132 b 436 343 400 193 401 281 b 525 414 453 371 488 399 b 653 408 557 426 604 435 b 653 408 653 408 653 408 b 667 399 657 406 663 401 b 714 178 750 336 751 243 z "},"♀":{"ha":0,"x_min":0,"x_max":0,"o":"m 958 324 b 875 324 947 324 922 324 b 783 326 801 325 811 325 b 783 375 783 346 783 363 b 1039 694 924 421 1039 556 b 721 1054 1039 854 940 1036 b 693 1056 713 1054 703 1056 b 442 940 599 1056 510 1014 b 350 706 378 871 343 781 b 606 369 368 517 456 401 b 606 326 606 358 606 346 b 408 325 518 326 417 325 b 303 226 344 321 303 282 b 404 150 303 200 315 154 b 606 147 428 150 503 149 b 607 26 606 96 606 44 b 644 -94 610 -19 615 -69 b 697 -111 658 -107 676 -112 b 781 18 771 -107 781 -47 b 782 107 781 28 782 60 b 782 147 782 124 782 138 b 949 150 847 147 925 149 b 1069 188 994 151 1044 158 b 1086 240 1082 201 1088 218 b 958 324 1082 314 1022 324 z m 696 544 b 696 544 696 544 696 544 b 678 546 689 544 683 546 b 528 715 575 560 528 640 b 699 871 528 785 607 871 b 717 869 704 871 711 871 b 851 708 810 856 851 779 b 808 603 851 675 835 633 b 696 544 786 576 750 544 z "},"°":{"ha":0,"x_min":0,"x_max":0,"o":"m 272 719 b 461 889 371 713 481 796 b 300 1071 461 972 413 1050 b 113 896 188 1092 106 972 b 272 719 119 818 153 729 z m 338 903 b 278 846 338 879 315 842 b 226 904 244 850 231 853 b 292 958 226 933 258 963 b 338 903 324 954 338 926 z "},"′":{"ha":0,"x_min":0,"x_max":0,"o":"m 249 1025 b 150 868 221 992 172 925 b 232 782 118 789 192 750 b 386 921 276 815 350 874 b 369 1064 422 968 419 1038 b 249 1025 321 1089 288 1071 z "},"″":{"ha":0,"x_min":0,"x_max":0,"o":"m 238 1025 b 138 868 208 992 161 925 b 221 782 106 789 181 750 b 375 921 264 815 339 874 b 358 1064 411 968 408 1038 b 238 1025 310 1089 276 1071 z m 488 1025 b 388 868 458 992 411 925 b 471 782 356 789 431 750 b 625 921 514 815 589 874 b 608 1064 661 968 658 1038 b 488 1025 560 1089 526 1071 z "},"℃":{"ha":0,"x_min":0,"x_max":0,"o":"m 268 754 b 444 910 360 747 444 832 b 294 1079 444 989 399 1060 b 121 917 190 1099 114 989 b 268 754 128 844 158 761 z m 329 924 b 274 871 329 901 308 867 b 225 925 243 875 231 894 b 286 975 225 951 256 979 b 329 924 317 971 329 944 z m 1083 267 b 1008 254 1060 267 1035 261 b 946 243 988 250 967 246 b 914 242 936 243 925 242 b 713 299 851 242 761 260 b 613 558 636 361 604 443 b 800 789 619 681 726 771 b 878 799 825 794 851 799 b 1025 760 933 799 985 785 b 1113 732 1054 742 1085 732 b 1183 764 1142 732 1168 743 b 1186 910 1210 797 1231 840 b 838 1049 1143 976 999 1049 b 821 1049 832 1049 826 1049 b 367 594 661 1043 408 918 b 613 58 325 260 524 108 b 903 3 675 24 783 3 b 1093 29 982 3 1053 13 b 1192 124 1147 51 1182 86 b 1168 224 1201 157 1193 192 b 1083 267 1146 253 1119 267 z "},"￥":{"ha":0,"x_min":0,"x_max":0,"o":"m 1139 982 b 1093 1042 1133 1007 1117 1028 b 1043 1056 1078 1050 1061 1056 b 919 979 981 1056 933 997 b 715 749 893 943 753 789 b 478 1010 675 793 513 968 b 369 1058 449 1046 401 1058 b 317 1040 347 1058 328 1051 b 296 894 276 1000 268 949 b 372 796 314 858 340 831 b 415 749 386 782 400 765 b 565 575 456 703 529 613 b 488 576 540 575 506 576 b 425 544 468 576 444 564 b 396 478 406 524 394 501 b 492 390 397 429 439 390 b 603 389 524 390 579 389 l 603 346 b 540 347 589 347 565 347 b 475 346 511 347 489 347 b 393 258 421 340 393 297 b 472 183 393 215 426 183 b 600 179 503 183 572 181 b 604 83 601 154 601 122 b 701 -12 608 26 649 -12 b 707 -12 703 -12 706 -12 b 808 88 785 -8 804 31 b 811 179 811 129 811 156 b 918 181 832 179 876 181 b 1014 267 981 181 1014 225 b 928 346 1014 303 983 342 b 808 346 897 349 835 347 l 808 392 b 882 390 824 392 853 390 b 935 392 903 390 921 390 b 1014 482 993 396 1014 443 b 943 567 1014 529 989 560 b 861 571 924 569 896 571 b 844 571 856 571 850 571 b 983 732 882 608 953 697 b 1038 796 997 751 1018 774 b 1117 890 1069 832 1101 869 b 1139 982 1136 918 1144 951 z "},"＄":{"ha":0,"x_min":0,"x_max":0,"o":"m 790 554 b 792 724 790 610 792 668 b 792 800 792 750 792 775 b 842 767 814 790 828 778 b 889 735 856 754 869 743 b 1008 804 936 715 1008 739 b 851 972 1008 858 967 932 b 793 988 833 979 814 985 b 765 1051 792 1011 782 1033 b 708 1078 749 1068 729 1078 b 635 1043 683 1078 653 1064 b 614 992 621 1028 614 1011 b 440 913 557 982 494 960 b 379 629 361 843 335 724 b 608 439 418 546 489 496 b 606 247 607 379 607 315 b 542 278 576 260 553 272 b 453 310 513 294 481 310 b 397 290 433 310 415 303 b 356 218 363 265 356 236 b 399 135 354 188 371 157 l 407 129 b 608 35 453 93 506 50 b 657 -28 615 6 632 -17 b 690 -35 667 -33 678 -35 b 767 8 717 -35 751 -24 b 772 33 768 13 771 22 b 1018 253 911 54 996 129 b 790 554 1042 389 910 492 z m 557 733 b 613 800 567 768 588 789 b 611 646 613 757 611 704 b 557 733 568 676 549 707 z m 824 256 b 786 222 815 239 803 229 b 788 314 788 272 788 313 b 789 353 788 321 788 335 b 831 307 808 339 825 324 b 824 256 836 292 833 275 z "},"￠":{"ha":0,"x_min":0,"x_max":0,"o":""},"￡":{"ha":0,"x_min":0,"x_max":0,"o":""},"％":{"ha":0,"x_min":0,"x_max":0,"o":"m 1093 982 b 1035 1013 1078 1001 1057 1013 b 924 946 999 1013 958 988 b 856 864 910 928 885 899 b 672 644 797 796 717 703 b 494 424 640 603 567 513 b 301 183 411 322 325 215 b 282 40 260 126 251 67 b 353 15 297 28 324 15 b 418 42 378 15 400 24 b 599 251 465 88 539 178 l 617 275 b 768 457 639 301 699 374 b 1078 833 899 613 1060 807 l 1079 836 b 1093 982 1106 876 1139 926 z m 611 939 b 424 1033 578 986 503 1033 b 331 1010 390 1033 360 1025 b 207 724 218 949 183 817 b 424 567 231 629 306 574 b 439 565 429 565 435 565 b 629 683 533 565 604 626 b 611 939 667 764 658 871 z m 486 772 b 425 733 482 758 467 733 b 382 753 408 733 393 740 b 367 818 367 772 363 800 b 438 860 371 840 406 860 b 471 850 450 860 463 857 b 486 772 489 835 496 800 z m 1172 308 b 963 471 1136 407 1054 471 b 906 463 944 471 925 468 b 735 246 797 431 735 353 b 865 33 735 165 793 69 b 956 14 892 21 922 14 b 1093 60 1006 14 1058 31 b 1172 308 1146 103 1208 213 z m 953 303 b 1017 250 992 303 1015 272 b 958 179 1018 221 1004 183 b 954 179 957 179 956 179 b 897 236 921 179 897 217 b 953 303 897 256 913 303 z "},"＃":{"ha":0,"x_min":0,"x_max":0,"o":"m 1065 664 b 1189 769 1139 664 1185 724 b 1083 890 1194 814 1157 882 b 1076 892 1081 890 1079 890 b 1083 933 1079 911 1082 926 b 1003 1058 1093 999 1053 1049 b 878 943 953 1068 893 1044 b 869 897 876 936 874 919 b 658 900 803 899 729 899 b 661 917 660 907 661 913 b 582 1076 676 986 657 1068 b 450 926 492 1086 469 1017 b 444 901 449 921 446 913 b 363 901 406 901 376 901 b 224 779 278 901 218 839 b 357 671 228 719 263 678 b 401 669 365 671 381 671 b 358 421 388 590 372 503 b 325 421 344 421 333 421 b 176 311 236 421 176 367 b 304 199 181 254 215 206 b 322 197 308 199 314 199 b 311 124 317 164 313 138 b 406 -14 301 35 351 -14 b 517 90 461 -14 497 26 b 538 194 521 104 529 142 b 753 192 607 193 682 193 b 740 103 747 149 742 117 b 833 -17 733 18 783 -17 b 939 67 883 -17 919 -3 b 964 190 944 82 953 128 b 1025 190 990 190 1013 190 b 1163 294 1119 190 1161 242 b 1057 413 1164 356 1126 408 b 1001 415 1047 414 1028 414 b 1040 664 1014 499 1028 586 b 1065 664 1051 664 1060 664 z m 790 418 b 578 419 721 418 646 419 b 618 667 592 501 606 589 b 831 665 688 667 763 665 b 790 418 818 586 803 499 z "},"＆":{"ha":0,"x_min":0,"x_max":0,"o":"m 1154 143 b 1097 215 1144 169 1117 197 b 1124 314 1117 240 1129 279 b 1017 404 1117 360 1068 401 l 1014 404 b 938 371 983 404 956 385 b 775 526 908 397 840 463 b 832 563 790 538 813 553 b 957 765 890 597 954 675 b 764 1060 961 872 913 1007 b 665 1076 733 1071 700 1076 b 385 910 543 1076 431 1008 b 385 669 347 829 347 753 b 465 554 407 622 443 578 b 353 426 435 529 381 481 b 346 143 306 335 303 235 b 699 -33 406 22 571 -33 b 715 -33 704 -33 710 -33 b 958 78 831 -29 921 43 b 1007 42 971 65 990 50 b 1113 40 1042 24 1088 22 b 1154 143 1143 61 1171 100 z m 640 676 b 575 771 622 692 589 726 b 579 832 568 793 569 814 b 626 872 590 854 611 868 b 650 875 633 875 642 875 b 735 811 690 875 726 849 b 640 676 747 764 713 715 z m 597 415 l 799 225 b 661 164 776 201 725 156 b 521 292 578 174 526 221 b 597 415 517 347 571 396 z "},"＊":{"ha":0,"x_min":0,"x_max":0,"o":"m 1053 411 b 863 551 1053 411 968 474 b 1047 690 956 619 1032 676 b 1113 858 1106 738 1171 785 b 1040 901 1090 885 1078 899 b 913 846 997 906 947 876 b 799 758 896 832 853 800 b 799 903 799 832 799 888 b 700 1056 794 976 797 1054 b 621 1029 665 1056 646 1054 b 586 899 590 999 583 943 b 588 751 588 878 588 822 b 460 843 522 799 474 833 b 274 858 396 883 332 932 b 247 782 251 832 240 817 b 336 678 254 742 297 703 b 519 549 361 663 433 611 b 324 400 424 478 346 419 b 274 243 261 346 232 292 b 281 235 275 240 278 238 b 458 254 343 172 382 199 b 586 347 458 254 511 293 b 588 182 585 267 586 204 b 686 46 593 101 619 46 b 696 47 689 46 693 46 b 790 192 786 54 789 100 b 793 353 790 192 792 260 b 939 250 864 301 919 263 b 1113 244 1011 206 1072 193 b 1118 253 1114 247 1117 250 b 1053 411 1165 326 1129 356 z "},"＠":{"ha":0,"x_min":0,"x_max":0,"o":"m 1064 933 b 704 1050 983 1006 849 1050 b 481 1006 617 1050 538 1035 b 190 600 322 926 214 775 b 436 90 161 374 257 174 b 754 19 561 32 678 19 b 872 31 796 19 838 24 b 1056 124 979 54 1042 85 b 1051 206 1067 150 1064 182 b 993 246 1039 228 1018 242 b 879 231 964 250 919 240 b 799 217 849 224 819 217 b 497 290 742 217 576 231 b 390 624 408 357 365 490 b 631 853 415 753 535 828 b 711 863 656 860 682 863 b 958 767 807 863 897 828 b 1008 543 1057 667 1010 547 b 943 507 996 515 975 503 b 926 628 946 526 950 571 b 688 758 896 706 789 764 b 461 524 581 753 464 676 b 615 321 458 414 540 342 b 724 307 647 311 686 307 b 854 332 776 307 824 315 b 951 313 865 326 900 313 b 1000 317 968 313 983 314 b 1197 522 1103 332 1181 413 b 1064 933 1213 617 1215 796 z m 776 515 b 690 461 758 474 719 457 b 628 497 664 464 639 479 b 624 546 618 511 617 528 b 708 614 636 588 669 614 b 747 606 721 614 733 611 b 778 575 763 599 772 589 b 776 515 788 554 783 529 z "},"§":{"ha":0,"x_min":0,"x_max":0,"o":""},"☆":{"ha":0,"x_min":0,"x_max":0,"o":"m 1235 539 b 1269 654 1268 564 1282 614 b 1178 719 1256 693 1219 714 l 892 726 l 786 1014 b 694 1079 772 1053 751 1056 b 603 1014 653 1079 617 1053 l 490 726 l 211 719 b 119 654 178 719 133 693 b 160 531 107 614 111 567 l 381 364 b 296 72 381 364 299 93 b 332 -35 294 40 299 -11 b 474 -21 365 -60 439 -46 l 694 131 l 944 -35 b 1000 -53 961 -47 981 -53 b 1001 -53 1001 -53 1001 -53 b 1097 29 1054 -53 1097 -24 b 1090 96 1097 43 1100 65 b 1007 357 1067 181 1007 357 z m 894 204 l 732 313 b 693 324 721 321 707 324 b 654 311 679 324 665 319 l 504 210 b 494 206 503 208 499 207 b 494 208 494 207 494 207 b 549 389 499 229 526 317 b 525 467 558 418 549 449 l 375 579 b 374 581 375 581 374 581 l 557 586 b 621 631 586 586 611 604 l 693 814 l 761 632 b 825 586 771 604 796 586 l 1011 581 l 861 461 b 839 383 838 443 829 413 b 894 211 839 383 878 267 b 894 204 894 208 894 207 z "},"★":{"ha":0,"x_min":0,"x_max":0,"o":"m 1235 539 b 1269 654 1268 564 1282 614 b 1178 719 1256 693 1219 714 l 892 726 l 786 1014 b 694 1079 772 1053 751 1056 b 603 1014 653 1079 617 1053 l 490 726 l 211 719 b 119 654 178 719 133 693 b 160 531 107 614 111 567 l 381 364 b 296 72 381 364 299 93 b 332 -35 294 40 299 -11 b 474 -21 365 -60 439 -46 l 694 131 l 944 -35 b 1000 -53 961 -47 981 -53 b 1001 -53 1001 -53 1001 -53 b 1097 29 1054 -53 1097 -24 b 1090 96 1097 43 1100 65 b 1007 357 1067 181 1007 357 z "},"○":{"ha":0,"x_min":0,"x_max":0,"o":"m 661 -60 b 1247 464 967 -82 1247 201 b 749 1031 1247 725 1081 1003 b 165 485 394 1061 143 725 b 661 -60 188 246 290 -33 z m 1013 486 b 672 172 1013 356 881 146 b 383 500 486 196 383 342 b 750 801 383 657 567 826 b 1013 486 933 775 1013 617 z "},"●":{"ha":0,"x_min":0,"x_max":0,"o":"m 661 -60 b 1247 464 967 -82 1247 201 b 749 1031 1247 725 1081 1003 b 165 485 394 1061 143 725 b 661 -60 188 246 290 -33 z "},"◎":{"ha":0,"x_min":0,"x_max":0,"o":"m 661 -60 b 1247 464 967 -82 1247 201 b 749 1031 1247 725 1081 1003 b 165 485 394 1061 143 725 b 661 -60 188 246 290 -33 z m 1013 486 b 672 172 1013 356 881 146 b 383 500 486 196 383 342 b 750 801 383 657 567 826 b 1013 486 933 775 1013 617 z m 703 239 b 951 479 833 239 951 353 b 725 732 951 596 874 719 b 525 651 649 739 578 708 b 461 478 479 601 456 536 b 686 239 474 335 556 249 b 703 239 692 239 697 239 z m 706 561 b 711 561 707 561 710 561 b 781 479 778 556 781 488 b 699 410 781 453 740 407 b 632 493 674 413 639 414 b 651 536 631 500 635 518 b 706 561 661 546 679 561 z "},"◇":{"ha":0,"x_min":0,"x_max":0,"o":"m 169 396 b 583 -33 221 336 511 31 b 803 -39 656 -99 742 -104 b 1189 347 863 25 1110 268 b 1225 575 1268 426 1290 507 b 806 1028 1161 643 894 947 b 571 1029 717 1108 642 1097 b 175 640 492 954 235 704 b 169 396 108 571 94 482 z m 650 164 b 375 450 614 193 401 424 b 363 546 332 493 335 517 b 685 850 392 575 663 831 b 751 824 708 869 731 844 b 1025 524 772 803 990 557 b 1024 449 1060 489 1040 465 b 726 160 1006 432 751 185 b 650 164 701 135 686 135 z "},"◆":{"ha":0,"x_min":0,"x_max":0,"o":"m 169 396 b 583 -33 221 336 511 31 b 803 -39 656 -99 742 -104 b 1189 347 863 25 1110 268 b 1225 575 1268 426 1290 507 b 806 1028 1161 643 894 947 b 571 1029 717 1108 642 1097 b 175 640 492 954 235 704 b 169 396 108 571 94 482 z "},"□":{"ha":0,"x_min":0,"x_max":0,"o":"m 189 849 b 193 154 183 760 188 264 b 365 -26 199 44 264 -29 b 985 -26 465 -24 858 -26 b 1199 128 1113 -26 1196 21 b 1208 844 1201 233 1214 708 b 1019 1035 1203 981 1132 1032 b 390 1040 897 1038 490 1043 b 189 849 281 1038 197 978 z m 396 251 b 394 729 390 306 394 685 b 464 817 394 799 417 817 b 976 808 511 817 942 811 b 1010 732 1011 804 1010 767 b 1004 239 1010 697 1004 296 b 942 178 1004 182 969 178 b 457 185 913 178 499 185 b 396 251 415 185 403 197 z "},"■":{"ha":0,"x_min":0,"x_max":0,"o":"m 189 849 b 193 154 183 760 188 264 b 365 -26 199 44 264 -29 b 985 -26 465 -24 858 -26 b 1199 128 1113 -26 1196 21 b 1208 844 1201 233 1214 708 b 1019 1035 1203 981 1132 1032 b 390 1040 897 1038 490 1043 b 189 849 281 1038 197 978 z "},"△":{"ha":0,"x_min":0,"x_max":0,"o":"m 228 -11 b 1201 -11 342 -11 1090 -11 b 1282 200 1313 -11 1342 96 b 840 985 1224 301 922 876 b 599 1013 772 1072 663 1072 b 119 210 518 936 165 288 b 228 -11 33 64 115 -11 z m 1056 165 b 357 168 1017 165 396 163 b 331 236 322 168 293 182 b 682 810 353 271 658 790 b 757 799 706 831 735 819 b 1072 235 778 776 1046 276 b 1056 165 1097 194 1096 165 z "},"▲":{"ha":0,"x_min":0,"x_max":0,"o":"m 228 -11 b 1201 -11 342 -11 1090 -11 b 1282 200 1313 -11 1342 96 b 840 985 1224 301 922 876 b 599 1013 772 1072 663 1072 b 119 210 518 936 165 288 b 228 -11 33 64 115 -11 z "},"▽":{"ha":0,"x_min":0,"x_max":0,"o":"m 1182 1047 b 208 1047 1068 1047 319 1047 b 128 838 97 1047 68 940 b 569 51 186 735 488 160 b 811 24 638 -36 747 -36 b 1290 826 892 101 1244 749 b 1182 1047 1376 972 1294 1047 z m 354 871 b 1053 869 393 871 1026 854 b 1079 800 1088 869 1117 856 b 728 226 1057 765 751 246 b 653 239 704 207 675 217 b 338 801 632 260 364 760 b 354 871 313 842 314 871 z "},"▼":{"ha":0,"x_min":0,"x_max":0,"o":"m 1182 1047 b 208 1047 1068 1047 319 1047 b 128 838 97 1047 68 940 b 569 51 186 735 488 160 b 811 24 636 -36 747 -36 b 1290 826 892 101 1244 749 b 1182 1047 1376 972 1294 1047 z "},"※":{"ha":0,"x_min":0,"x_max":0,"o":"m 385 621 b 235 638 347 660 296 679 b 224 465 174 596 185 497 b 382 464 263 433 324 414 b 385 621 431 506 424 582 z m 625 860 b 783 858 664 828 725 808 b 786 1015 832 900 825 976 b 636 1032 749 1054 697 1074 b 625 860 588 985 586 892 z m 628 251 b 617 79 567 210 578 111 b 775 78 656 47 717 28 b 778 235 824 119 817 196 b 628 251 740 274 689 293 z m 1165 622 b 1015 639 1128 661 1076 681 b 1004 467 954 597 965 499 b 1163 465 1053 418 1104 415 b 1165 622 1211 507 1204 583 z m 824 551 b 975 706 872 600 957 685 b 1035 819 1006 740 1038 781 b 1010 869 1033 838 1025 854 b 857 838 953 918 903 883 b 793 774 850 831 826 807 b 697 679 767 749 733 715 b 494 881 600 778 514 864 b 343 878 444 925 381 926 b 374 739 307 829 338 781 b 563 547 385 725 467 642 b 489 474 536 519 511 494 b 389 371 440 424 397 381 b 383 225 346 321 343 264 b 510 242 403 206 444 182 b 692 419 528 258 606 335 b 814 299 738 374 781 332 b 888 225 851 261 879 233 b 1033 215 932 182 996 176 b 1024 346 1060 240 1079 283 b 824 551 1011 361 924 450 z "},"〒":{"ha":0,"x_min":0,"x_max":0,"o":"m 368 776 b 444 775 378 775 403 775 b 893 781 560 775 738 778 b 1031 782 979 781 1011 782 b 1169 901 1108 782 1169 835 b 1046 1007 1169 946 1147 1001 b 699 1011 1010 1010 863 1011 b 350 1007 535 1011 388 1010 b 243 958 306 1004 267 986 b 219 872 224 935 215 904 b 368 776 229 797 300 782 z m 1010 697 b 932 699 997 697 990 699 b 492 701 807 700 632 701 b 343 700 410 701 361 701 b 210 575 263 694 210 646 b 338 479 210 542 226 485 b 586 476 367 478 465 476 b 589 72 586 354 585 133 b 697 -35 592 -7 650 -35 b 708 -35 701 -35 704 -35 b 796 106 763 -29 796 42 b 796 190 796 121 796 151 b 797 475 796 275 797 394 b 999 478 871 475 961 476 b 1153 526 1056 481 1121 489 b 1174 592 1168 543 1175 565 b 1010 697 1168 685 1092 697 z "},"→":{"ha":0,"x_min":0,"x_max":0,"o":"m 1199 499 b 869 696 1168 532 901 678 b 779 651 810 732 779 697 b 779 542 779 636 779 594 b 654 540 732 542 688 542 b 285 539 561 538 335 539 b 172 454 236 539 174 528 b 304 378 172 379 244 375 b 535 376 360 382 433 367 b 778 375 593 381 690 378 b 778 251 778 317 778 268 b 865 218 778 206 822 194 b 1188 400 907 243 1143 367 b 1199 499 1224 428 1224 472 z "},"←":{"ha":0,"x_min":0,"x_max":0,"o":"m 1085 539 b 875 540 1029 535 976 550 b 611 542 815 536 707 539 b 611 665 611 600 611 649 b 524 699 611 711 567 722 b 201 517 482 674 246 550 b 190 418 165 489 165 444 b 519 221 221 385 488 239 b 611 265 579 185 611 219 b 611 375 611 281 611 322 b 700 376 642 375 674 375 b 1104 378 793 379 1054 378 b 1217 464 1153 378 1215 389 b 1085 539 1232 533 1144 542 z "},"↑":{"ha":0,"x_min":0,"x_max":0,"o":"m 935 685 b 753 1007 910 726 786 963 b 654 1018 725 1043 681 1043 b 457 689 621 986 475 721 b 501 597 421 629 456 597 b 611 597 517 597 558 597 b 613 474 611 551 611 507 b 614 104 615 381 614 154 b 700 -8 614 56 625 -7 b 775 124 774 -8 778 64 b 776 319 771 179 786 218 b 778 597 772 381 775 497 b 901 597 836 597 885 597 b 935 685 947 597 958 642 z "},"↓":{"ha":0,"x_min":0,"x_max":0,"o":"m 888 394 b 778 394 872 394 831 394 b 776 519 778 442 778 486 b 775 924 774 613 775 874 b 689 1036 775 972 764 1035 b 614 904 619 1017 611 964 b 613 674 618 849 603 775 b 611 394 617 613 614 496 b 488 394 553 394 504 394 b 454 308 442 394 431 351 b 636 -14 479 267 603 31 b 735 -25 664 -50 708 -50 b 932 304 768 6 914 272 b 888 394 968 364 933 394 z "},"〓":{"ha":0,"x_min":0,"x_max":0,"o":"m 906 853 b 640 858 857 857 872 858 b 478 853 411 858 531 857 b 325 783 414 850 358 824 b 293 664 299 750 288 708 b 503 528 307 558 407 536 b 582 526 515 528 524 526 b 763 533 743 526 543 531 b 886 536 882 535 858 536 b 1081 703 994 536 1081 610 b 906 853 1081 767 1050 844 z m 864 381 b 794 382 846 381 876 382 b 654 386 619 383 853 386 b 475 383 539 386 499 385 b 285 208 360 376 285 307 b 467 74 285 161 308 81 b 719 68 529 71 440 68 b 846 72 826 68 792 69 b 1064 139 928 76 1018 88 b 1093 232 1086 164 1096 194 b 864 381 1086 363 978 381 z "},"∈":{"ha":0,"x_min":0,"x_max":0,"o":"m 1092 250 b 1015 249 1076 250 1050 250 b 604 258 913 247 661 250 b 417 392 536 267 450 300 b 476 392 432 392 453 392 b 946 382 582 390 828 382 b 1089 383 1015 382 1075 383 b 1194 482 1153 388 1194 426 b 1093 558 1194 508 1181 554 b 692 568 1060 560 857 568 b 422 567 638 568 486 568 b 596 700 460 653 549 682 b 1013 714 656 724 915 717 b 1078 711 1040 713 1063 711 b 1199 797 1156 711 1197 736 b 1199 800 1199 799 1199 799 b 1079 900 1199 863 1154 900 b 593 889 1018 900 717 897 b 218 469 399 876 218 744 b 549 81 240 178 424 92 b 1081 71 617 74 1014 71 b 1199 158 1154 71 1199 104 b 1092 250 1199 217 1154 250 z "},"∋":{"ha":0,"x_min":0,"x_max":0,"o":"m 842 892 b 310 900 774 897 376 900 b 192 813 236 900 192 868 b 299 721 192 756 235 721 b 374 722 314 721 340 722 b 786 714 476 725 729 721 b 972 579 854 706 940 671 b 914 579 957 579 938 579 b 444 589 808 581 563 589 b 301 588 375 589 315 589 b 196 489 238 583 196 544 b 297 413 196 463 208 417 b 697 403 331 411 533 403 b 968 404 751 403 904 403 b 794 271 931 319 842 289 b 376 258 733 249 474 254 b 313 260 349 258 328 260 b 192 175 235 260 193 236 b 192 171 192 174 192 172 b 311 71 192 108 236 71 b 797 82 372 71 674 74 b 1172 501 992 94 1172 228 b 842 892 1193 757 967 881 z "},"⊆":{"ha":0,"x_min":0,"x_max":0,"o":"m 513 276 b 1053 269 574 271 999 269 b 1168 351 1124 269 1168 301 b 1063 438 1168 404 1126 438 b 1001 438 1050 438 1029 438 l 996 438 b 931 436 981 438 957 436 b 563 444 807 436 601 440 b 399 611 513 450 399 478 b 550 778 399 724 493 758 l 558 781 b 803 794 571 786 621 794 b 993 792 876 794 954 793 l 999 792 b 1050 790 1021 790 1039 790 b 1168 871 1100 790 1165 799 l 1168 874 b 1051 967 1168 931 1124 967 b 551 958 1008 967 663 965 b 213 604 394 949 213 850 b 513 276 213 364 408 285 z m 1040 192 b 951 193 1031 192 997 193 b 481 201 846 193 600 201 b 339 200 413 201 351 201 b 232 103 274 196 232 158 b 333 26 232 75 246 31 b 735 17 367 25 569 17 b 1031 18 799 17 1001 17 b 1151 56 1076 21 1126 26 b 1168 108 1164 69 1169 88 b 1040 192 1164 182 1104 192 z "},"⊇":{"ha":0,"x_min":0,"x_max":0,"o":"m 833 444 b 465 436 794 440 589 436 b 400 438 439 436 415 438 l 394 438 b 333 438 367 438 346 438 b 228 351 269 438 228 404 b 343 269 228 301 272 269 b 883 276 397 269 822 271 b 1183 604 988 285 1183 364 b 844 958 1183 850 1001 949 b 344 967 733 965 386 967 b 228 874 272 967 228 931 l 228 871 b 346 790 231 799 296 790 b 397 792 357 790 375 790 l 403 792 b 593 794 442 793 518 794 b 838 781 775 794 824 786 l 846 778 b 997 611 903 758 997 724 b 833 444 997 478 883 450 z m 1035 199 b 946 200 1025 199 992 200 b 475 188 840 200 594 188 b 333 186 407 188 346 188 b 226 96 268 182 226 151 b 328 19 226 68 240 24 b 750 17 363 18 585 17 b 1025 25 814 17 996 24 b 1146 63 1071 28 1121 33 b 1163 115 1158 76 1164 94 b 1035 199 1158 189 1099 199 z "},"⊂":{"ha":0,"x_min":0,"x_max":0,"o":"m 1199 158 b 1092 250 1199 217 1154 250 b 1015 249 1076 250 1050 250 b 604 258 913 247 661 250 b 403 476 518 269 403 319 b 596 700 415 633 535 676 b 1013 714 656 724 915 717 b 1078 711 1040 713 1063 711 b 1199 797 1156 711 1197 736 b 1199 800 1199 799 1199 799 b 1079 900 1199 863 1154 900 b 593 889 1018 900 717 897 b 218 469 399 876 218 744 b 549 81 240 178 424 92 b 1081 71 617 74 1014 71 b 1199 158 1154 71 1199 104 z "},"⊃":{"ha":0,"x_min":0,"x_max":0,"o":"m 190 158 b 308 71 190 104 235 71 b 840 81 375 71 772 74 b 1171 469 965 92 1190 178 b 796 889 1171 744 990 876 b 310 900 672 897 371 900 b 190 800 235 900 190 863 b 190 797 190 799 190 799 b 311 711 192 736 233 711 b 376 714 326 711 349 713 b 793 700 474 717 733 724 b 986 476 854 676 992 633 b 785 258 986 319 871 269 b 372 249 728 250 476 247 b 297 250 339 250 313 250 b 190 158 235 250 190 217 z "},"∪":{"ha":0,"x_min":0,"x_max":0,"o":"m 1036 976 b 944 869 978 976 944 932 b 946 793 944 854 944 828 b 936 381 947 690 943 438 b 718 181 925 296 875 181 b 493 374 578 164 518 313 b 481 790 471 433 476 693 b 482 854 482 818 482 840 b 397 976 482 933 458 974 b 393 976 396 976 394 976 b 293 857 331 976 293 932 b 304 371 293 796 296 494 b 725 -4 318 176 450 -4 b 1114 326 1008 -11 1103 201 b 1122 858 1119 394 1122 792 b 1036 976 1124 932 1090 976 z "},"∩":{"ha":0,"x_min":0,"x_max":0,"o":"m 1008 -4 b 1096 114 1063 -4 1096 39 b 1086 644 1096 179 1092 576 b 697 976 1075 771 971 976 b 276 601 422 976 290 796 b 265 115 268 478 265 175 b 365 -4 265 40 303 -4 b 369 -4 367 -4 368 -4 b 454 117 431 -3 454 38 b 453 181 454 131 454 153 b 467 599 449 278 443 538 b 690 790 490 660 532 790 b 908 590 847 790 897 675 b 918 178 915 533 919 281 b 917 101 917 144 917 118 b 1008 -4 917 39 950 -4 z "},"∧":{"ha":0,"x_min":0,"x_max":0,"o":"m 1079 333 b 851 897 1054 411 879 850 b 718 1014 825 944 788 1006 b 599 963 661 1021 629 1001 b 329 343 565 919 360 422 b 246 117 299 265 246 151 b 319 42 246 79 275 42 l 321 42 b 435 133 361 42 393 56 b 704 776 472 206 679 731 b 946 154 732 732 946 154 b 1035 43 965 99 994 50 b 1135 97 1072 36 1125 43 b 1079 333 1146 158 1113 238 z "},"∨":{"ha":0,"x_min":0,"x_max":0,"o":"m 456 903 b 367 1014 436 957 407 1007 b 267 958 329 1021 276 1013 b 322 724 256 899 289 819 b 550 158 349 646 524 207 b 683 42 585 96 614 50 b 803 93 740 35 772 56 b 1072 713 838 136 1042 635 b 1157 940 1117 788 1157 906 b 1083 1015 1157 976 1126 1015 l 1082 1015 b 967 922 1040 1015 1008 1001 b 697 279 929 850 722 326 b 456 903 669 324 456 903 z "},"￢":{"ha":0,"x_min":0,"x_max":0,"o":"m 1028 597 b 1035 344 1028 597 1032 438 b 1114 229 1036 269 1079 229 b 1208 308 1154 229 1201 254 b 1215 647 1218 389 1215 565 b 1093 785 1215 728 1154 785 b 176 792 1032 785 238 799 b 93 700 115 785 93 740 b 181 597 93 658 119 597 b 1028 597 242 597 1028 597 z "},"⇒":{"ha":0,"x_min":0,"x_max":0,"o":""},"⇔":{"ha":0,"x_min":0,"x_max":0,"o":""},"∀":{"ha":0,"x_min":0,"x_max":0,"o":"m 1156 1026 b 1035 967 1100 1039 1075 1024 b 933 761 1029 958 993 889 l 461 767 b 364 971 414 868 375 950 b 231 1028 328 1036 271 1047 b 178 910 189 1008 153 961 b 583 39 201 860 551 92 b 774 -3 614 -14 715 -26 b 897 210 832 22 865 133 b 1217 885 928 288 1188 807 b 1156 1026 1244 963 1210 1015 z m 700 256 b 556 567 700 256 632 404 l 840 565 b 700 256 800 476 753 374 z "},"∃":{"ha":0,"x_min":0,"x_max":0,"o":"m 1049 892 b 944 986 1046 971 990 986 b 413 982 908 986 453 983 b 338 893 367 979 338 926 b 410 803 338 857 360 804 b 819 800 457 800 767 800 b 858 775 838 800 858 793 b 858 586 858 764 858 682 b 490 589 761 588 561 589 b 440 588 464 589 447 589 b 363 507 396 586 365 544 b 388 438 361 482 371 454 b 431 418 400 425 414 418 b 857 411 464 418 735 414 b 854 236 856 318 856 242 b 831 208 853 217 844 208 b 810 208 828 208 821 208 b 554 208 785 208 601 208 b 410 207 485 208 436 208 b 322 121 354 206 322 174 b 400 29 322 78 346 31 b 882 24 444 26 772 24 b 943 25 910 24 931 24 b 1046 136 1013 26 1046 63 b 1047 256 1046 151 1046 197 b 1049 892 1049 414 1053 819 z "},"∠":{"ha":0,"x_min":0,"x_max":0,"o":""},"⊥":{"ha":0,"x_min":0,"x_max":0,"o":""},"͡":{"ha":0,"x_min":0,"x_max":0,"o":"m 1119 782 b 1265 746 1178 731 1233 719 b 1247 903 1310 783 1310 840 b 688 1108 1185 965 992 1106 b 135 901 363 1111 186 960 b 126 768 83 843 104 793 b 267 778 150 743 196 736 b 706 928 338 818 483 938 b 1119 782 929 918 1076 819 z "},"∂":{"ha":0,"x_min":0,"x_max":0,"o":""},"∇":{"ha":0,"x_min":0,"x_max":0,"o":"m 1017 1040 b 342 1040 903 1040 453 1040 b 261 864 231 1040 222 978 b 585 44 306 735 499 224 b 757 24 628 -42 717 -42 b 1125 854 858 190 1068 701 b 1017 1040 1185 1013 1129 1040 z m 908 782 b 722 328 882 713 768 401 b 646 336 704 297 664 297 b 465 786 607 417 486 728 b 501 864 449 836 451 864 b 860 864 551 864 808 864 b 908 782 910 846 935 851 z "},"≡":{"ha":0,"x_min":0,"x_max":0,"o":"m 1026 250 b 954 250 1018 250 992 250 l 938 250 b 740 253 892 250 818 251 b 467 257 639 256 533 257 b 324 257 390 257 336 257 b 207 161 253 253 207 215 b 319 83 207 133 221 88 b 721 75 322 83 543 75 b 1018 76 747 75 985 75 b 1146 111 1065 79 1118 85 b 1167 167 1161 126 1168 144 b 1026 250 1161 250 1071 250 z m 1026 572 b 954 572 1018 572 992 572 l 938 574 b 740 576 892 574 818 575 b 467 581 639 578 533 581 b 324 579 390 581 336 581 b 207 483 253 575 207 538 b 319 407 207 457 221 410 b 721 399 322 407 543 399 b 1018 400 747 399 985 399 b 1146 435 1065 401 1118 408 b 1167 489 1161 449 1168 468 b 1026 572 1161 572 1071 572 z m 1026 896 b 954 896 1018 896 992 896 l 938 896 b 740 900 892 896 818 897 b 467 904 639 901 533 904 b 324 903 390 904 336 903 b 207 807 253 899 207 861 b 319 729 207 779 221 733 b 721 721 322 729 543 721 b 1018 722 747 721 985 721 b 1146 758 1065 725 1118 731 b 1167 813 1161 772 1168 792 b 1026 896 1161 896 1071 896 z "},"≒":{"ha":0,"x_min":0,"x_max":0,"o":"m 432 829 b 543 936 494 825 543 883 b 450 1053 543 990 521 1040 b 322 942 378 1067 317 990 b 432 829 326 892 356 835 z m 954 -40 b 1065 67 1017 -44 1065 14 b 972 183 1065 121 1044 169 b 844 72 900 197 840 121 b 954 -40 849 22 878 -35 z m 1008 739 b 919 740 999 739 965 740 b 497 742 814 740 617 742 b 356 740 429 742 369 742 b 250 643 292 736 250 699 b 351 567 250 615 263 571 b 772 564 385 565 607 564 b 1000 565 838 564 969 564 b 1121 603 1044 568 1094 574 b 1138 656 1133 617 1139 635 b 1008 739 1133 729 1074 739 z m 1008 447 b 919 449 999 447 965 449 b 497 450 814 450 617 450 b 356 450 429 450 369 450 b 250 351 292 444 250 407 b 351 275 250 325 263 279 b 772 272 385 274 607 272 b 1000 274 838 272 969 272 b 1121 311 1044 276 1094 283 b 1138 364 1133 325 1139 343 b 1008 447 1133 438 1074 447 z "},"≪":{"ha":0,"x_min":0,"x_max":0,"o":"m 863 990 b 801 1082 944 1050 865 1133 b 189 618 793 1075 401 796 b 199 424 111 554 140 475 b 796 -35 340 299 738 13 b 885 33 857 -85 924 -29 b 281 503 854 83 367 408 b 328 588 256 532 292 557 b 863 990 471 706 654 839 z m 1149 990 b 1088 1082 1231 1050 1151 1133 b 475 618 1079 1075 688 796 b 485 424 397 554 426 475 b 1082 -35 626 299 1024 13 b 1171 33 1143 -85 1210 -29 b 567 503 1140 83 653 408 b 615 588 542 532 578 557 b 1149 990 757 706 940 839 z "},"≫":{"ha":0,"x_min":0,"x_max":0,"o":"m 529 990 b 1064 588 739 839 922 706 b 1111 503 1100 557 1138 532 b 508 33 1025 408 538 83 b 597 -35 469 -29 536 -85 b 1194 424 656 13 1053 299 b 1204 618 1253 475 1281 554 b 590 1082 990 796 600 1075 b 529 990 526 1133 449 1050 z m 243 990 b 778 588 453 839 636 706 b 825 503 814 557 851 532 b 222 33 739 408 251 83 b 311 -35 183 -29 250 -85 b 908 424 369 13 767 299 b 918 618 967 475 994 554 b 304 1082 704 796 313 1075 b 243 990 240 1133 161 1050 z "},"√":{"ha":0,"x_min":0,"x_max":0,"o":""},"∽":{"ha":0,"x_min":0,"x_max":0,"o":""},"∝":{"ha":0,"x_min":0,"x_max":0,"o":""},"∵":{"ha":0,"x_min":0,"x_max":0,"o":"m 694 285 b 583 178 632 289 583 232 b 678 61 583 124 619 72 b 806 174 749 47 810 124 b 694 285 800 222 771 279 z m 1079 983 b 968 875 1017 988 968 929 b 1061 758 968 822 989 772 b 1189 871 1132 746 1193 822 b 1079 983 1185 921 1154 978 z m 311 983 b 200 875 249 988 200 929 b 293 758 200 822 222 772 b 421 871 365 746 425 822 b 311 983 417 921 388 978 z "},"∫":{"ha":0,"x_min":0,"x_max":0,"o":""},"∬":{"ha":0,"x_min":0,"x_max":0,"o":""},"Å":{"ha":0,"x_min":0,"x_max":0,"o":""},"‰":{"ha":0,"x_min":0,"x_max":0,"o":""},"♯":{"ha":0,"x_min":0,"x_max":0,"o":"m 1040 460 b 1007 457 1033 458 1022 458 b 1047 706 1021 542 1035 629 b 1076 710 1060 707 1071 708 b 1188 828 1151 718 1188 783 b 1083 935 1188 869 1149 926 b 1003 1058 1092 999 1053 1049 b 878 943 954 1068 893 1044 b 874 918 876 939 875 931 b 657 894 807 911 731 903 b 661 917 658 904 660 913 b 582 1076 676 986 657 1068 b 450 926 492 1086 469 1017 b 438 869 447 915 443 896 b 350 860 397 865 365 861 b 228 721 267 849 215 779 b 374 629 240 663 279 625 b 396 632 378 631 386 631 b 353 383 381 550 365 463 b 314 378 336 381 322 379 b 179 251 225 367 172 306 b 315 156 185 199 229 153 b 311 124 314 142 313 132 b 406 -14 301 35 351 -14 b 517 90 461 -14 497 26 b 535 176 521 103 526 133 b 754 201 604 185 682 193 b 740 103 747 153 742 117 b 833 -17 735 19 783 -17 b 939 67 883 -17 919 -3 b 969 226 944 85 956 144 b 1036 235 1000 231 1024 233 b 1160 356 1131 246 1165 303 b 1040 460 1154 415 1110 463 z m 575 408 b 617 656 589 490 604 576 b 833 681 688 663 763 672 b 792 433 821 601 806 515 b 575 408 722 426 646 417 z "},"♭":{"ha":0,"x_min":0,"x_max":0,"o":"m 404 892 b 411 125 407 796 397 271 b 625 -17 424 -21 510 -12 b 967 115 740 -19 868 6 b 975 561 1072 231 1086 425 b 632 660 861 700 651 657 b 628 885 632 660 628 831 b 533 1011 628 939 594 1004 b 404 892 472 1017 400 976 z m 611 238 b 607 383 607 290 607 343 b 682 458 607 436 629 458 b 833 389 733 458 796 458 b 764 208 865 329 826 242 b 611 238 704 176 614 178 z "},"♪":{"ha":0,"x_min":0,"x_max":0,"o":"m 971 794 b 800 985 882 863 806 965 b 726 1047 817 986 775 1046 b 660 929 660 1047 656 982 b 657 722 663 878 658 813 b 656 371 657 660 658 493 b 494 358 604 383 546 381 b 292 154 393 317 314 256 b 417 -61 268 54 335 -37 b 719 44 511 -89 647 -35 b 799 213 761 90 794 158 b 806 585 814 251 807 501 b 803 703 804 611 804 656 b 933 590 838 678 882 647 b 1018 344 1015 500 986 376 b 1104 369 1046 317 1085 325 b 971 794 1140 453 1150 656 z "},"†":{"ha":0,"x_min":0,"x_max":0,"o":"m 883 890 b 801 892 874 890 847 890 b 790 892 797 892 794 892 b 789 996 790 946 790 983 b 681 1099 785 1063 740 1107 b 604 982 622 1092 608 1035 b 603 893 604 974 604 942 b 488 892 549 893 496 893 b 381 793 422 888 381 849 b 483 717 381 767 394 721 b 603 714 508 717 524 715 b 606 192 603 531 604 300 b 606 90 606 140 606 101 b 700 -19 606 28 647 -19 b 785 79 736 -19 781 -3 b 790 715 788 110 790 456 b 875 717 826 715 858 715 b 996 754 919 719 969 725 b 1013 807 1008 768 1014 785 b 883 890 1008 881 947 890 z "},"‡":{"ha":0,"x_min":0,"x_max":0,"o":"m 883 375 b 801 375 874 375 847 375 b 789 375 797 375 793 375 b 790 715 790 485 790 607 b 875 717 826 715 858 715 b 996 754 919 719 969 725 b 1013 807 1008 768 1014 785 b 883 890 1008 881 947 890 b 801 892 874 890 847 890 b 790 892 797 892 794 892 b 789 996 790 946 790 983 b 681 1099 785 1063 740 1107 b 604 982 622 1092 610 1035 b 603 893 604 974 604 942 b 488 892 549 893 496 893 b 382 793 422 888 382 849 b 483 717 382 767 394 721 b 603 714 508 717 524 715 b 604 378 603 607 604 483 b 488 376 549 378 496 376 b 382 278 422 372 382 333 b 483 201 382 251 394 206 b 606 199 508 200 524 200 b 606 192 606 197 606 194 b 606 90 606 140 606 101 b 700 -19 606 28 647 -19 b 785 79 736 -19 781 -3 b 788 199 786 89 786 135 b 875 200 825 199 858 200 b 996 239 919 203 969 210 b 1013 290 1008 253 1014 269 b 883 375 1008 364 947 375 z "},"¶":{"ha":0,"x_min":0,"x_max":0,"o":""},"⃝":{"ha":0,"x_min":0,"x_max":0,"o":"m 661 -60 b 1247 464 967 -82 1247 201 b 749 1031 1247 725 1081 1003 b 165 485 394 1061 143 725 b 661 -60 188 246 290 -33 z m 1013 486 b 672 172 1013 356 881 146 b 383 500 486 196 383 342 b 750 801 383 657 567 826 b 1013 486 933 775 1013 617 z "},"０":{"ha":0,"x_min":0,"x_max":0,"o":"m 707 1056 b 239 642 467 1060 271 860 b 431 69 208 425 261 211 b 986 68 600 -72 847 -50 b 1131 746 1144 204 1204 539 b 707 1056 1067 925 903 1053 z m 547 278 b 489 682 488 326 404 474 b 725 824 533 792 657 831 b 929 614 814 817 907 728 b 843 265 949 507 938 342 b 547 278 757 196 635 207 z "},"１":{"ha":0,"x_min":0,"x_max":0,"o":"m 513 733 b 606 760 533 733 622 758 b 599 94 606 760 592 158 b 710 -12 607 21 671 -10 b 829 89 754 -15 825 24 b 844 854 835 154 844 772 b 744 1063 844 938 839 1040 b 476 965 649 1085 568 1028 b 396 806 383 901 381 853 b 513 733 410 760 450 735 z "},"２":{"ha":0,"x_min":0,"x_max":0,"o":"m 535 774 b 599 829 547 796 564 814 b 721 825 626 842 667 844 b 793 649 790 800 819 736 b 488 294 761 539 597 397 b 343 96 378 193 340 157 b 458 -3 346 36 426 -8 b 946 -3 513 -3 849 -3 b 1083 101 1042 -3 1090 29 b 969 210 1083 161 1056 199 b 736 215 896 210 739 208 b 865 336 736 215 803 269 b 1025 665 950 429 1004 506 b 764 1053 1044 807 957 1004 b 353 907 569 1101 407 1004 b 394 726 303 819 336 747 b 535 774 451 704 508 729 z "},"３":{"ha":0,"x_min":0,"x_max":0,"o":"m 876 539 b 994 731 876 539 983 633 b 885 1008 1008 853 982 943 b 683 1064 817 1054 738 1064 b 457 1006 603 1064 508 1042 b 397 906 419 978 399 943 b 426 833 396 878 407 850 b 576 824 467 799 519 794 b 675 844 590 831 639 844 b 732 826 700 844 719 838 b 751 717 778 788 768 750 b 633 633 736 686 672 654 b 572 500 588 608 551 554 b 685 414 590 454 636 435 l 706 404 b 785 275 733 392 796 343 b 686 217 779 232 728 217 b 665 217 679 217 672 217 b 533 300 617 222 572 260 b 357 285 482 349 393 339 b 407 94 329 242 336 167 b 696 -18 461 40 556 -18 b 769 -12 719 -18 744 -15 b 1008 290 917 10 1010 143 b 876 539 1007 429 876 539 z "},"４":{"ha":0,"x_min":0,"x_max":0,"o":"m 678 1001 b 286 515 625 943 328 569 b 256 350 246 463 231 396 b 393 267 281 304 318 269 b 703 263 469 264 719 256 b 706 65 703 263 697 118 b 818 -18 713 13 775 -18 b 914 71 861 -18 911 18 b 918 261 917 122 931 250 b 1018 263 918 261 950 263 b 1117 379 1086 263 1117 324 b 1036 483 1117 433 1074 482 b 924 489 999 486 924 489 b 926 942 924 511 925 803 b 815 1049 926 1008 858 1044 b 678 1001 772 1054 722 1051 z m 533 499 l 706 711 l 700 500 z "},"５":{"ha":0,"x_min":0,"x_max":0,"o":"m 471 1029 b 390 944 424 1029 392 994 b 390 535 390 818 390 588 b 549 443 390 467 464 426 b 750 436 594 453 685 468 b 803 246 828 397 849 307 b 585 225 761 190 646 182 b 419 261 529 264 471 289 b 379 115 376 239 346 175 b 682 -22 414 51 500 -17 b 1026 233 868 -28 999 92 b 906 594 1054 385 1017 515 b 597 649 799 672 597 649 l 596 801 b 858 804 596 801 771 804 b 992 917 944 804 990 853 b 864 1035 994 994 933 1035 b 471 1029 811 1035 592 1032 z "},"６":{"ha":0,"x_min":0,"x_max":0,"o":"m 825 611 b 711 626 785 621 747 626 b 554 585 631 626 579 601 b 626 793 554 669 576 732 b 735 832 647 818 686 832 b 817 819 763 832 790 828 b 871 810 836 813 854 810 b 947 849 915 810 939 833 b 926 976 969 882 976 935 b 724 1047 874 1021 800 1047 b 639 1036 694 1047 665 1043 b 336 568 504 999 356 857 b 581 14 318 265 396 89 b 704 -10 619 -1 660 -10 b 1017 213 828 -10 979 60 b 825 611 1068 417 960 576 z m 832 328 b 738 210 833 279 799 219 b 703 206 725 207 714 206 b 593 261 656 206 619 225 b 589 376 572 292 576 343 b 706 446 606 424 661 446 b 736 442 717 446 726 444 b 832 328 789 426 829 379 z "},"７":{"ha":0,"x_min":0,"x_max":0,"o":"m 524 825 b 518 642 524 825 524 682 b 415 575 514 601 460 575 b 319 649 369 575 324 603 b 317 892 314 694 315 840 b 482 1039 319 969 369 1040 b 967 1026 594 1036 899 1029 b 1085 861 1033 1024 1108 965 b 792 65 1068 788 825 110 b 661 6 751 11 728 -11 b 592 138 607 18 575 71 b 849 822 608 204 849 822 z "},"８":{"ha":0,"x_min":0,"x_max":0,"o":"m 474 563 b 344 357 474 563 360 483 b 469 53 331 239 354 143 b 864 19 588 -39 756 -24 b 1025 347 986 69 1053 206 b 903 556 1001 467 922 547 b 988 674 903 556 969 614 b 918 979 1006 733 1015 883 b 528 1029 821 1076 632 1085 b 385 753 424 974 382 868 b 474 563 386 638 474 563 z m 778 724 b 664 697 746 694 707 689 b 589 790 607 707 586 764 b 686 885 590 817 610 881 b 797 825 763 888 790 844 b 778 724 810 792 804 747 z m 776 408 b 818 275 817 372 828 326 b 693 182 807 207 729 181 b 563 294 657 183 569 204 b 639 428 554 383 611 418 b 776 408 682 443 744 439 z "},"９":{"ha":0,"x_min":0,"x_max":0,"o":"m 856 1011 b 681 1057 801 1049 731 1057 b 489 1018 613 1057 540 1042 b 322 729 394 971 325 850 b 463 432 321 611 372 500 b 681 381 522 388 625 381 b 689 381 683 381 686 381 b 581 138 668 332 596 179 b 586 39 568 108 571 69 b 640 -8 597 14 617 -1 b 679 -15 654 -12 667 -15 b 767 47 721 -15 743 7 b 931 425 796 94 910 368 b 944 464 935 438 939 450 b 999 700 969 525 1001 608 b 856 1011 993 831 949 944 z m 746 625 b 651 601 728 613 688 601 b 607 610 633 601 619 604 b 535 753 556 632 524 694 b 651 857 544 813 604 856 l 657 857 b 786 757 700 857 771 831 b 746 625 797 699 769 639 z "},"Ａ":{"ha":0,"x_min":0,"x_max":0,"o":"m 1217 136 b 856 990 1189 194 892 931 b 638 1038 819 1051 704 1065 b 497 794 572 1010 533 883 b 189 143 461 707 222 232 b 258 -19 156 54 194 -6 b 396 49 322 -33 350 -15 b 500 249 410 68 472 190 b 515 282 503 254 508 267 l 911 283 b 1004 67 947 193 983 104 b 1172 0 1046 -8 1126 -21 b 1217 136 1219 22 1244 78 z m 722 742 b 817 510 722 742 782 586 l 617 508 b 722 742 671 628 722 742 z "},"Ｂ":{"ha":0,"x_min":0,"x_max":0,"o":"m 1006 518 b 993 536 1000 526 994 535 b 1001 550 994 538 997 544 b 1056 846 1025 589 1086 690 b 849 1046 1038 933 956 1032 b 643 1056 786 1054 703 1056 b 486 1051 586 1056 528 1054 b 353 918 406 1046 353 993 b 353 879 353 913 353 899 b 358 106 351 406 353 146 b 478 -6 365 38 426 -6 b 525 -7 490 -6 506 -6 b 658 -11 558 -8 603 -11 b 840 -3 718 -11 778 -8 b 1088 264 983 11 1067 100 b 1006 518 1101 379 1033 476 z m 835 796 b 821 636 874 744 858 667 b 703 611 800 619 761 611 b 703 611 703 611 703 611 b 628 615 672 611 644 614 l 621 615 b 593 629 610 617 600 622 b 582 669 585 640 581 654 b 583 735 583 685 583 710 b 585 800 583 760 583 785 b 640 831 588 828 628 831 b 651 831 643 831 647 831 b 690 832 661 831 675 832 b 835 796 768 832 818 819 z m 582 263 b 583 324 583 278 583 301 b 585 383 583 346 583 369 b 640 415 588 413 628 415 b 653 415 643 415 647 415 b 696 415 663 415 678 415 b 853 381 782 415 836 404 b 838 229 892 329 876 260 b 711 206 818 214 775 206 b 625 210 675 206 642 208 l 621 210 b 593 224 610 210 600 215 b 582 263 585 233 581 247 z "},"Ｃ":{"ha":0,"x_min":0,"x_max":0,"o":"m 972 258 b 897 247 949 258 924 253 b 835 236 878 243 856 239 b 804 235 825 235 815 235 b 603 292 740 235 650 253 b 501 551 526 354 494 436 b 689 782 510 674 615 764 b 767 790 715 788 740 790 b 914 753 822 790 875 778 b 1001 724 943 733 974 724 b 1074 756 1032 724 1057 736 b 1075 903 1100 789 1121 833 b 726 1042 1033 969 888 1042 b 710 1040 721 1042 715 1040 b 257 588 550 1036 297 911 b 501 51 214 253 414 101 b 792 -6 564 15 672 -6 b 983 22 872 -6 942 4 b 1082 117 1036 44 1071 78 b 1057 217 1090 149 1082 183 b 972 258 1036 246 1010 258 z "},"Ｄ":{"ha":0,"x_min":0,"x_max":0,"o":"m 1051 875 b 621 1040 968 986 826 1040 b 550 1039 594 1040 571 1040 b 500 1039 529 1039 514 1038 b 494 1039 499 1039 497 1039 b 293 883 403 1039 300 990 b 290 404 289 836 290 596 b 290 149 290 288 290 186 b 415 -6 288 54 329 4 b 517 -8 436 -7 469 -8 b 713 -6 571 -8 640 -7 l 728 -6 b 1114 244 868 -3 1051 65 b 1051 875 1176 428 1176 713 z m 942 489 b 671 235 936 319 846 235 b 608 238 646 235 624 236 b 586 239 599 238 592 239 b 519 293 563 239 522 239 b 519 663 518 338 519 549 b 519 733 519 697 519 724 b 579 789 519 775 536 789 b 590 789 583 789 588 789 b 599 789 593 789 596 789 b 599 789 599 789 599 789 b 613 789 603 789 607 789 b 635 789 619 789 626 789 b 871 711 675 789 796 789 b 942 489 919 661 943 586 z "},"Ｅ":{"ha":0,"x_min":0,"x_max":0,"o":"m 953 225 b 615 228 894 228 679 228 b 565 260 592 228 565 236 b 567 408 565 272 565 333 b 853 406 644 407 774 406 b 915 407 885 406 906 406 b 1011 507 969 408 1008 461 b 981 594 1013 539 1000 572 b 926 618 965 610 947 618 b 568 626 888 618 682 624 b 571 758 568 697 569 753 b 600 793 574 782 583 793 b 625 793 604 793 613 793 b 772 793 657 793 714 793 b 951 794 860 793 921 793 b 1063 903 1021 797 1063 838 b 964 1018 1063 957 1032 1017 b 536 1024 910 1021 674 1024 b 460 1024 501 1024 476 1024 b 332 883 372 1021 332 976 b 331 735 332 864 332 807 b 328 114 328 536 324 204 b 457 -6 332 15 400 -6 b 950 1 503 -6 899 -1 b 1043 113 1006 4 1043 69 b 953 225 1043 157 1015 222 z "},"Ｆ":{"ha":0,"x_min":0,"x_max":0,"o":"m 574 760 b 597 788 578 785 586 788 l 622 788 b 772 788 654 788 713 788 b 951 789 860 788 921 788 b 1064 900 1022 790 1064 832 b 963 1011 1064 954 1033 1008 b 460 1015 900 1013 550 1018 b 331 874 372 1014 331 967 b 338 101 331 792 332 219 b 463 -19 343 -11 435 -19 b 471 -19 465 -19 468 -19 b 582 90 524 -17 582 28 b 581 213 582 96 581 144 b 576 461 579 278 578 371 b 935 465 675 461 894 463 b 1032 572 992 469 1031 524 b 1000 660 1033 604 1021 638 b 942 685 983 676 964 685 b 942 685 942 685 942 685 b 574 686 901 683 679 685 b 574 760 574 728 574 756 z "},"Ｇ":{"ha":0,"x_min":0,"x_max":0,"o":"m 1050 563 b 963 567 1032 565 1004 567 b 847 565 926 567 885 565 l 804 564 b 701 528 758 564 724 551 b 675 457 683 510 674 490 b 804 367 676 397 743 367 b 943 368 836 367 904 367 b 824 239 933 331 904 261 b 719 225 789 229 753 225 b 528 290 644 225 579 247 b 507 692 413 388 422 589 b 742 794 588 789 717 794 b 832 783 775 794 807 790 b 883 760 849 778 867 769 b 908 744 892 756 900 750 b 986 713 931 729 956 713 b 1068 754 1017 713 1047 728 b 1085 846 1086 776 1092 808 b 871 1013 1074 899 999 988 b 721 1028 832 1019 781 1028 b 382 907 593 1028 479 988 b 225 365 229 782 179 606 b 603 8 250 236 388 33 b 703 3 638 4 671 3 b 1015 103 831 3 933 35 b 1161 435 1161 224 1161 433 b 1050 563 1160 507 1104 557 z "},"Ｈ":{"ha":0,"x_min":0,"x_max":0,"o":"m 249 875 b 257 138 249 778 260 219 b 367 -7 254 60 293 -7 b 492 122 440 -7 485 32 b 493 401 497 182 493 401 l 903 396 b 910 117 903 396 900 163 b 1013 -6 926 43 939 1 b 1139 119 1086 -14 1139 26 b 1129 868 1139 218 1138 738 b 1038 1008 1125 942 1110 1000 b 901 847 964 1015 903 986 b 899 604 901 789 899 604 l 483 607 b 483 856 483 607 483 815 b 351 1008 483 921 461 1008 b 249 875 240 1008 249 875 z "},"Ｉ":{"ha":0,"x_min":0,"x_max":0,"o":"m 825 504 b 821 885 822 672 819 847 b 789 972 822 928 804 956 b 706 1010 767 996 735 1010 b 582 899 650 1010 590 971 b 590 158 572 825 586 253 b 707 4 593 85 625 4 b 714 6 710 4 711 4 b 829 143 806 11 826 63 b 825 504 831 175 828 335 z "},"Ｊ":{"ha":0,"x_min":0,"x_max":0,"o":"m 899 1019 l 894 1019 b 818 990 864 1019 838 1010 b 782 876 793 964 781 924 b 781 393 785 815 783 486 b 643 238 778 296 729 240 b 635 238 640 238 638 238 b 635 238 635 238 635 238 b 501 318 561 238 533 275 l 493 329 b 403 374 472 358 440 374 b 318 332 367 374 332 357 b 368 111 279 267 294 196 b 643 0 428 42 531 0 b 747 13 679 0 714 4 b 993 311 897 49 985 154 b 1013 874 1000 410 1013 785 b 899 1019 1013 968 974 1018 z "},"Ｋ":{"ha":0,"x_min":0,"x_max":0,"o":"m 1082 204 b 721 515 1051 238 765 476 b 992 761 750 543 917 704 b 1097 914 1060 814 1099 869 b 990 1018 1097 967 1046 1017 b 783 893 936 1018 872 965 l 769 882 b 735 854 758 872 747 864 b 521 690 688 815 614 758 b 521 925 519 804 519 900 b 488 1011 522 967 503 994 b 406 1047 467 1033 435 1047 b 283 936 350 1047 292 1008 b 288 146 275 861 283 224 b 403 -4 290 74 324 -4 b 413 -4 406 -4 408 -4 b 525 133 503 1 522 51 b 524 342 525 153 525 235 b 543 326 531 336 538 332 b 688 217 592 292 653 247 b 939 22 742 171 875 58 b 1007 4 960 10 983 4 b 1113 58 1053 4 1094 26 b 1082 204 1135 97 1121 164 z "},"Ｌ":{"ha":0,"x_min":0,"x_max":0,"o":"m 981 265 b 725 267 939 265 821 267 b 590 267 658 267 603 267 b 551 311 565 267 551 282 b 550 421 551 322 550 364 l 550 433 b 546 911 549 590 544 854 b 510 1014 547 953 535 989 b 415 1053 486 1039 453 1053 b 289 910 339 1053 292 999 b 292 185 286 844 289 308 b 479 10 294 47 415 10 b 979 13 542 10 903 11 b 1079 56 1018 14 1054 28 b 1111 140 1101 79 1113 108 b 981 265 1108 203 1067 265 z "},"Ｍ":{"ha":0,"x_min":0,"x_max":0,"o":"m 1194 690 l 1194 694 b 1193 846 1194 769 1193 828 b 1135 1013 1193 915 1189 968 b 1065 1036 1115 1028 1092 1036 b 963 999 1031 1036 992 1022 b 711 622 924 968 761 704 b 503 918 678 674 565 844 b 353 1024 453 976 408 1024 b 321 1019 343 1024 332 1022 b 231 860 260 999 231 947 b 229 739 231 843 229 800 l 229 733 b 228 114 226 540 221 179 b 338 3 239 17 301 3 b 344 3 340 3 343 3 b 458 118 407 6 456 56 b 460 576 460 158 460 474 b 615 390 497 529 569 440 b 718 339 647 357 682 339 b 813 383 753 339 785 354 b 960 593 835 406 917 529 l 963 489 b 976 111 968 349 975 150 b 1094 7 979 40 1040 4 b 1197 111 1151 10 1193 51 b 1194 690 1200 151 1197 489 z "},"Ｎ":{"ha":0,"x_min":0,"x_max":0,"o":"m 1057 1040 l 1054 1040 b 942 925 1000 1040 942 997 b 942 396 942 867 942 504 b 525 960 864 503 571 910 b 375 1033 468 1021 413 1033 b 356 1032 368 1033 361 1032 b 242 904 288 1022 246 975 b 250 132 240 858 243 215 b 364 15 257 49 313 13 b 476 117 417 18 474 56 b 475 614 478 168 476 510 b 960 28 557 504 888 65 b 1031 10 983 15 1007 10 b 1158 117 1103 10 1154 65 b 1167 929 1163 181 1167 874 b 1057 1040 1167 993 1110 1039 z "},"Ｏ":{"ha":0,"x_min":0,"x_max":0,"o":"m 1188 660 b 686 1031 1125 878 919 1031 l 675 1031 b 214 657 435 1026 251 838 b 401 97 165 421 271 197 b 714 8 475 42 592 8 b 981 71 814 8 906 31 b 1188 660 1157 167 1251 436 z m 946 410 b 700 258 917 307 796 254 b 460 439 583 264 482 340 b 533 722 432 558 460 661 b 701 778 575 758 636 778 b 888 706 776 778 844 751 b 946 410 979 610 971 492 z "},"Ｐ":{"ha":0,"x_min":0,"x_max":0,"o":"m 882 1036 b 524 1049 738 1044 607 1049 b 439 1046 485 1049 456 1047 b 319 910 363 1038 319 989 b 319 813 319 897 319 861 b 322 78 318 590 314 126 b 442 -22 332 10 392 -22 b 561 85 494 -22 553 15 b 564 401 565 129 565 350 b 681 400 583 400 626 400 b 890 407 758 400 829 401 b 1133 728 1051 421 1129 583 b 882 1036 1138 890 1025 1029 z m 572 647 b 574 754 571 668 572 718 b 575 796 575 772 575 789 b 604 835 575 828 586 835 b 842 828 631 835 790 832 b 906 736 888 824 908 779 b 819 626 901 665 874 631 b 699 624 794 625 753 624 b 624 624 669 624 642 624 l 603 625 b 572 647 581 625 574 625 z "},"Ｑ":{"ha":0,"x_min":0,"x_max":0,"o":"m 1114 229 b 1172 663 1189 353 1214 519 b 669 1025 1113 874 907 1029 b 218 660 432 1021 256 838 b 401 110 169 425 276 206 b 969 85 528 15 790 -14 b 979 90 974 86 976 89 b 1004 68 989 82 997 75 b 1143 64 1051 28 1117 33 b 1158 178 1185 78 1186 139 b 1114 229 1150 189 1135 207 z m 694 254 b 444 442 571 260 467 340 b 521 735 419 553 438 665 b 889 718 617 814 797 814 b 950 411 982 621 976 501 b 946 400 949 408 947 404 b 929 415 940 406 935 411 b 775 414 875 465 800 453 b 785 278 750 374 746 329 b 794 267 788 275 790 271 b 694 254 763 257 728 251 z "},"Ｒ":{"ha":0,"x_min":0,"x_max":0,"o":"m 938 424 b 1114 728 1049 475 1110 614 b 856 1029 1118 886 994 1022 b 407 1039 679 1039 472 1046 b 297 913 343 1032 297 994 b 299 85 297 840 289 144 b 410 -8 308 25 360 -8 b 519 90 461 -8 513 29 b 521 393 525 142 521 393 b 711 394 526 393 607 392 b 861 67 767 275 842 113 b 1006 8 890 -1 964 -11 b 1065 151 1047 29 1088 82 b 938 424 1051 193 992 317 z m 532 633 b 535 797 529 665 535 774 b 574 844 535 826 544 844 b 815 839 610 831 763 843 b 901 722 868 833 904 769 b 792 603 896 649 854 607 b 574 600 731 599 596 600 b 532 633 550 600 533 600 z "},"Ｓ":{"ha":0,"x_min":0,"x_max":0,"o":"m 1036 881 b 799 1057 1021 938 949 1017 b 704 1068 769 1064 738 1068 b 407 882 593 1068 457 1019 b 454 558 374 790 368 657 b 635 425 501 506 572 463 b 736 356 679 399 717 376 b 757 293 753 338 761 315 b 721 239 754 271 740 250 b 667 229 710 233 690 229 b 524 258 619 229 564 242 b 458 274 501 269 479 274 b 361 221 421 274 388 256 b 382 68 329 176 338 117 b 571 -7 408 39 511 -1 b 643 -10 596 -8 619 -10 b 885 51 744 -10 826 11 b 972 394 992 126 1031 276 b 754 600 931 478 833 558 b 619 731 690 633 625 675 b 688 825 614 775 644 815 b 711 828 694 826 703 828 b 846 792 756 828 815 811 b 932 763 878 772 904 763 b 974 768 946 763 958 765 b 1026 808 996 774 1014 788 b 1036 881 1040 831 1043 856 z "},"Ｔ":{"ha":0,"x_min":0,"x_max":0,"o":"m 1051 1061 b 358 1067 986 1069 436 1069 b 225 949 292 1064 215 1028 b 353 851 236 869 283 854 b 590 854 375 850 474 851 b 589 128 583 719 586 206 b 701 -14 592 57 622 -19 b 806 113 788 -10 803 39 b 808 857 808 172 806 747 b 1042 858 921 858 1015 860 b 1147 956 1110 856 1147 914 b 1051 1061 1147 999 1118 1054 z "},"Ｕ":{"ha":0,"x_min":0,"x_max":0,"o":"m 1017 1029 b 893 894 944 1029 893 974 b 894 800 893 876 893 842 b 892 404 897 671 901 475 b 710 249 878 297 824 250 b 704 249 708 249 706 249 b 519 394 586 249 549 317 b 503 796 490 469 499 674 b 506 876 504 831 506 858 b 390 1029 506 975 467 1026 b 385 1029 388 1029 386 1029 b 260 879 307 1029 260 972 b 274 390 260 803 263 546 b 714 7 289 147 450 7 l 719 7 b 1115 335 958 8 1101 178 b 1126 881 1122 421 1126 797 b 1017 1029 1126 974 1085 1029 z "},"Ｖ":{"ha":0,"x_min":0,"x_max":0,"o":"m 1133 1000 b 1081 1015 1117 1010 1099 1015 b 965 938 1031 1015 985 975 b 686 358 943 892 717 419 b 433 926 661 418 469 861 b 306 1022 400 986 353 1022 b 260 1010 290 1022 274 1018 b 211 840 197 975 182 919 b 546 94 229 792 454 243 b 676 21 575 49 624 21 b 800 88 728 21 774 46 b 1181 839 849 164 1167 800 b 1133 1000 1200 889 1199 960 z "},"Ｗ":{"ha":0,"x_min":0,"x_max":0,"o":"m 138 867 b 401 88 146 807 356 176 b 594 56 444 3 540 -6 b 697 343 626 93 708 343 b 800 60 697 343 763 124 b 1004 67 831 6 953 -21 b 1251 861 1056 156 1236 814 b 1203 992 1267 907 1247 972 b 1050 924 1147 1017 1076 1004 b 901 411 1011 810 919 404 b 796 735 901 411 842 644 b 597 740 750 826 638 815 b 503 438 574 697 515 433 b 365 904 503 438 393 821 b 213 1013 346 964 292 1039 b 138 867 163 996 126 947 z "},"Ｘ":{"ha":0,"x_min":0,"x_max":0,"o":"m 851 521 b 1122 835 981 672 1099 810 b 1119 1003 1178 893 1157 969 b 954 1001 1083 1035 1013 1053 b 700 713 931 981 822 856 b 492 979 597 843 508 954 b 329 1003 444 1042 367 1033 b 303 843 292 974 263 908 b 543 529 319 815 425 679 b 303 243 428 392 326 272 b 292 46 254 183 224 100 b 467 74 364 -11 411 17 b 696 338 486 92 582 204 b 904 79 796 211 882 106 b 1093 36 954 22 1031 -21 b 1096 211 1160 97 1142 147 b 851 521 1079 235 972 369 z "},"Ｙ":{"ha":0,"x_min":0,"x_max":0,"o":"m 233 856 b 568 450 251 824 574 435 b 569 129 568 450 565 207 b 692 -6 574 51 618 -4 b 807 108 753 -6 804 44 b 808 435 808 172 832 428 b 1121 835 808 435 1056 735 b 1124 1007 1153 883 1167 964 b 978 1007 1081 1051 1018 1039 b 696 678 936 975 707 668 b 422 982 696 678 468 931 b 247 1014 375 1036 303 1054 b 233 856 193 975 200 914 z "},"Ｚ":{"ha":0,"x_min":0,"x_max":0,"o":"m 456 788 b 744 792 500 788 753 774 b 442 369 744 792 500 465 b 315 138 400 303 315 217 b 449 7 315 57 375 10 b 1006 10 511 6 926 4 b 1108 119 1085 17 1113 65 b 997 221 1104 174 1068 224 b 621 225 951 219 629 204 b 983 747 621 225 954 690 b 1029 926 1018 818 1047 875 b 893 1017 1013 976 965 1014 b 456 1018 822 1018 557 1021 b 311 893 356 1017 308 961 b 456 788 313 826 382 788 z "},"ａ":{"ha":0,"x_min":0,"x_max":0,"o":"m 843 63 b 931 -12 843 63 868 -12 b 1044 96 993 -12 1043 22 b 986 525 1046 164 1089 364 b 535 638 915 638 700 718 b 336 279 357 551 331 404 b 615 6 343 103 478 17 b 843 63 751 -6 843 63 z m 817 286 b 675 199 792 235 738 199 b 546 349 581 199 531 278 b 722 467 563 421 613 496 b 817 286 831 438 846 344 z "},"ｂ":{"ha":0,"x_min":0,"x_max":0,"o":"m 369 907 b 376 140 372 813 363 288 b 604 0 389 -6 489 3 b 1008 131 719 -4 924 10 b 982 571 1094 251 1094 435 b 611 683 868 708 633 678 b 607 900 611 683 607 846 b 499 1026 607 956 560 1019 b 369 907 438 1033 367 993 z m 590 254 b 586 393 586 307 586 351 b 661 468 586 446 608 468 b 819 399 713 468 783 468 b 771 225 851 339 833 258 b 590 254 711 192 593 194 z "},"ｃ":{"ha":0,"x_min":0,"x_max":0,"o":"m 865 10 b 986 133 924 26 986 60 b 910 244 986 213 936 239 b 735 240 869 254 796 233 b 600 385 619 254 586 314 b 839 463 625 500 749 494 b 971 531 897 442 950 468 b 918 674 997 607 953 651 b 600 708 864 708 744 749 b 343 336 419 660 333 503 b 593 17 354 171 461 47 b 865 10 726 -17 803 -8 z "},"ｄ":{"ha":0,"x_min":0,"x_max":0,"o":"m 1007 144 b 1006 911 1019 290 1003 815 b 875 1029 1007 996 936 1036 b 767 901 814 1021 767 956 b 767 683 768 847 774 681 b 397 568 767 683 510 707 b 375 128 286 431 288 247 b 781 1 461 8 665 -4 b 1007 144 896 6 994 -3 z m 794 394 b 792 256 794 353 794 308 b 611 224 789 196 671 192 b 560 397 549 257 529 338 b 719 468 597 467 667 468 b 794 394 771 468 794 447 z "},"ｅ":{"ha":0,"x_min":0,"x_max":0,"o":"m 396 385 b 664 7 396 121 521 32 b 947 78 839 -24 922 32 b 846 215 990 154 913 231 b 650 265 676 176 664 258 b 901 299 650 265 829 253 b 961 563 990 356 1017 460 b 642 706 904 667 804 724 b 396 385 479 689 396 517 z m 794 479 b 642 432 810 425 681 404 b 674 528 615 453 635 492 b 794 479 726 549 783 525 z "},"ｆ":{"ha":0,"x_min":0,"x_max":0,"o":"m 986 982 b 681 951 904 1036 749 1010 b 561 689 613 894 561 824 b 447 685 515 688 475 688 b 325 517 344 678 307 601 b 532 425 340 439 431 431 b 557 424 539 424 547 424 b 560 99 556 288 554 143 b 669 -1 567 33 622 -6 b 771 108 717 1 771 50 b 778 428 771 149 775 304 b 874 432 814 429 847 431 b 1003 546 949 433 1007 481 b 897 682 1000 600 965 675 b 793 686 878 683 840 685 b 821 740 800 707 808 725 b 931 753 847 779 900 769 b 1051 808 961 736 1024 754 b 986 982 1078 863 1067 928 z "},"ｇ":{"ha":0,"x_min":0,"x_max":0,"o":"m 813 154 b 675 14 821 68 765 29 b 514 39 622 4 585 31 b 417 -87 443 46 403 -32 b 642 -221 435 -154 521 -214 b 940 -96 768 -228 875 -181 b 1024 417 1035 26 1046 256 b 774 751 997 603 913 715 b 390 576 613 794 456 724 b 464 214 344 472 374 292 b 813 154 569 122 743 150 z m 799 410 b 654 367 779 358 718 357 b 596 521 599 375 557 464 b 763 532 633 579 733 564 b 799 410 793 499 817 458 z "},"ｈ":{"ha":0,"x_min":0,"x_max":0,"o":"m 357 893 b 364 121 353 851 357 190 b 469 0 371 36 397 -6 b 582 126 533 6 567 36 b 585 308 588 165 583 265 b 811 313 592 457 801 460 b 817 96 814 271 813 139 b 928 0 821 53 853 0 b 1028 86 997 0 1022 50 b 1029 324 1033 118 1038 215 b 865 613 1018 464 967 567 b 592 636 704 685 594 635 b 581 893 592 636 582 807 b 457 1036 581 954 550 1036 b 357 893 364 1036 363 965 z "},"ｉ":{"ha":0,"x_min":0,"x_max":0,"o":"m 707 663 b 832 786 794 669 832 728 b 750 921 832 844 807 892 b 565 811 701 947 579 921 b 707 663 556 729 619 657 z m 572 143 b 685 -12 581 69 589 -4 b 813 101 758 -18 797 28 b 819 438 826 175 819 315 b 703 611 819 556 771 611 b 571 463 646 608 578 572 b 572 143 563 351 565 217 z "},"ｊ":{"ha":0,"x_min":0,"x_max":0,"o":"m 717 658 b 871 785 807 650 867 733 b 736 929 874 836 831 921 b 594 783 642 938 594 842 b 717 658 594 724 654 664 z m 608 439 b 558 64 613 293 644 103 b 414 79 524 49 460 50 b 265 69 367 108 303 111 b 272 -111 217 17 236 -74 b 579 -190 342 -181 458 -210 b 828 67 683 -172 815 -83 b 843 443 838 185 847 350 b 739 604 839 536 824 604 b 608 439 654 604 606 532 z "},"ｋ":{"ha":0,"x_min":0,"x_max":0,"o":"m 801 383 b 971 533 801 383 921 494 b 1004 692 1021 574 1031 642 b 843 718 978 742 897 756 b 650 569 811 696 717 622 b 649 900 650 729 649 874 b 521 1022 649 964 599 1022 b 429 894 443 1022 429 957 b 436 111 429 838 439 179 b 536 -8 432 42 464 -14 b 649 104 608 -1 646 51 b 650 201 650 115 650 151 b 819 35 711 140 786 64 b 990 38 888 -25 968 13 b 990 185 1014 65 1024 144 b 801 383 957 225 801 383 z "},"ｌ":{"ha":0,"x_min":0,"x_max":0,"o":"m 807 147 b 814 875 810 218 811 789 b 710 1006 817 960 761 1006 b 586 888 657 1006 596 969 b 579 164 576 806 575 263 b 703 0 582 82 611 -7 b 807 147 801 6 803 61 z "},"ｍ":{"ha":0,"x_min":0,"x_max":0,"o":"m 243 582 b 249 79 243 518 243 188 b 358 -15 253 11 314 -15 b 451 53 403 -15 443 13 b 465 394 461 93 457 350 b 546 461 475 439 501 465 b 608 381 590 457 604 425 b 624 74 614 336 610 118 b 713 -3 636 29 658 -3 b 815 79 767 -3 811 29 b 828 382 819 128 815 332 b 896 444 842 431 860 444 b 972 382 932 444 963 431 b 976 76 981 332 967 131 b 1067 -11 985 22 1014 -11 b 1163 69 1121 -11 1158 21 b 1167 463 1167 119 1185 328 b 963 682 1150 597 1057 674 b 768 618 868 692 778 599 b 617 694 768 618 719 689 b 460 636 526 697 460 636 b 343 710 435 697 400 710 b 243 582 285 710 243 658 z "},"ｎ":{"ha":0,"x_min":0,"x_max":0,"o":"m 339 593 b 349 86 331 507 338 160 b 456 -14 361 11 400 -18 b 554 78 510 -11 551 15 b 556 328 556 133 557 238 b 697 467 553 439 622 467 b 824 358 771 467 815 443 b 833 79 831 282 826 165 b 940 -14 840 4 890 -17 b 1026 79 992 -10 1022 32 b 1018 392 1031 126 1035 282 b 775 671 994 547 919 640 b 556 632 621 706 556 632 b 442 711 551 668 492 714 b 339 593 390 707 346 671 z "},"ｏ":{"ha":0,"x_min":0,"x_max":0,"o":"m 693 -7 b 1044 308 914 -7 1035 144 b 688 690 1051 457 978 688 b 356 264 396 693 319 425 b 693 -7 399 74 556 -7 z m 832 307 b 665 218 818 251 758 199 b 560 386 569 236 544 325 b 758 472 574 438 658 522 b 832 307 846 429 844 347 z "},"ｐ":{"ha":0,"x_min":0,"x_max":0,"o":"m 385 576 b 393 -114 372 431 397 -18 b 507 -232 390 -199 446 -239 b 606 -107 568 -225 606 -161 b 604 28 606 -51 619 4 b 956 139 604 28 842 1 b 983 586 1068 275 1068 465 b 597 718 897 707 713 721 b 385 576 481 714 399 724 z m 579 325 b 582 463 579 365 579 411 b 764 493 586 522 704 525 b 813 319 825 460 844 379 b 653 250 775 250 706 250 b 579 325 601 250 579 272 z "},"ｑ":{"ha":0,"x_min":0,"x_max":0,"o":"m 975 -114 b 983 576 972 -18 997 431 b 772 718 971 724 889 714 b 386 586 657 721 472 707 b 414 139 301 465 301 275 b 765 28 528 1 772 4 b 763 -107 765 28 763 -53 b 863 -232 763 -161 801 -225 b 975 -114 924 -239 979 -199 z m 788 463 b 790 325 790 411 790 365 b 715 250 790 272 768 250 b 557 319 664 250 593 250 b 606 493 525 379 543 460 b 788 463 665 525 783 522 z "},"ｒ":{"ha":0,"x_min":0,"x_max":0,"o":"m 422 579 b 440 119 429 481 428 188 b 579 10 451 53 446 -26 b 667 242 661 31 642 156 b 892 453 697 349 774 419 b 1024 599 1001 483 1043 519 b 811 663 1006 679 910 693 b 632 551 714 631 651 538 b 632 622 632 551 632 556 b 518 735 632 690 592 735 b 422 579 444 735 417 678 z "},"ｓ":{"ha":0,"x_min":0,"x_max":0,"o":"m 475 604 b 568 340 443 496 494 407 b 721 199 625 288 744 258 b 542 204 706 158 619 188 b 428 49 426 229 397 88 b 667 -42 458 8 515 -40 b 922 128 811 -44 888 3 b 789 429 963 275 857 372 b 693 540 743 467 651 490 b 869 540 736 592 797 540 b 956 679 953 542 979 625 b 715 774 931 736 838 778 b 475 604 618 769 517 744 z "},"ｔ":{"ha":0,"x_min":0,"x_max":0,"o":"m 897 707 b 797 711 882 708 815 710 b 707 886 797 790 797 886 b 597 713 617 886 600 832 b 369 572 490 710 369 672 b 585 474 369 479 504 471 b 589 136 583 350 583 204 b 696 -4 599 43 621 -4 b 794 132 769 -4 794 51 b 794 474 794 178 794 339 b 867 474 806 474 857 474 b 1010 576 953 474 1008 517 b 897 707 1011 619 985 696 z "},"ｕ":{"ha":0,"x_min":0,"x_max":0,"o":"m 349 550 b 367 235 353 486 328 432 b 806 10 406 39 554 -42 b 1026 519 1058 61 1031 414 b 931 704 1021 646 1001 700 b 813 615 860 710 817 679 b 790 269 807 551 822 335 b 611 233 760 204 656 208 b 571 575 565 257 574 513 b 454 711 567 638 533 717 b 349 550 376 707 342 667 z "},"ｖ":{"ha":0,"x_min":0,"x_max":0,"o":"m 268 526 b 517 93 290 463 415 257 b 844 86 600 -43 774 -26 b 1125 525 893 165 1110 482 b 1085 688 1142 568 1157 643 b 919 629 1013 733 953 678 b 679 265 886 581 697 258 b 481 617 679 265 522 540 b 308 699 439 694 376 738 b 268 526 243 660 238 607 z "},"ｗ":{"ha":0,"x_min":0,"x_max":0,"o":"m 1151 650 b 1103 703 1139 675 1126 694 b 1064 713 1085 710 1082 713 b 951 638 1011 713 969 685 b 861 382 932 589 888 460 b 794 544 844 431 814 511 b 700 606 772 582 746 606 b 606 549 654 606 628 583 b 547 399 594 531 565 450 b 468 624 522 471 482 589 b 339 724 450 669 406 724 b 303 718 326 724 315 721 b 242 582 242 700 231 647 b 451 64 250 531 415 125 b 546 -1 476 24 497 -1 b 608 36 581 -1 583 13 b 701 240 626 53 701 240 b 789 43 717 235 772 68 b 869 -6 808 14 824 -6 b 958 49 917 -6 935 14 b 1133 508 989 93 1061 296 b 1154 571 1144 542 1151 564 b 1151 650 1164 596 1163 624 z "},"ｘ":{"ha":0,"x_min":0,"x_max":0,"o":"m 1010 208 b 858 376 997 226 946 283 b 993 517 924 444 978 501 b 1025 601 1015 540 1026 569 b 996 676 1025 633 1018 656 b 835 676 953 715 882 717 b 699 539 819 663 765 607 b 576 669 638 601 588 654 b 478 721 553 703 518 721 b 404 697 450 721 424 713 b 389 538 360 663 350 601 b 539 372 401 515 457 457 b 394 215 469 299 410 235 b 350 97 375 193 346 147 b 390 28 354 71 368 46 b 457 6 417 8 433 6 b 553 57 497 6 526 31 b 699 210 567 71 626 133 b 822 75 760 147 808 92 b 943 7 858 32 903 7 b 1015 36 969 7 994 17 b 1010 208 1100 110 1033 174 z "},"ｙ":{"ha":0,"x_min":0,"x_max":0,"o":"m 351 506 b 561 188 381 443 582 178 b 468 81 561 188 517 153 b 438 -128 419 8 378 -82 b 615 -104 518 -192 563 -149 b 1043 449 678 -51 986 371 b 1068 657 1101 526 1132 589 b 901 647 1006 724 933 681 b 706 401 854 597 725 386 b 561 621 706 401 610 550 b 372 690 508 699 435 733 b 351 506 310 647 311 593 z "},"ｚ":{"ha":0,"x_min":0,"x_max":0,"o":"m 488 497 b 693 501 544 496 699 488 b 454 235 693 501 500 285 b 385 78 410 183 369 131 b 492 -8 396 43 442 -8 b 915 -8 543 -8 851 -19 b 1036 92 982 -8 1031 28 b 950 197 1040 156 990 194 b 694 207 910 200 701 192 b 969 539 694 207 946 504 b 885 704 1024 615 943 704 b 500 701 826 704 596 704 b 372 581 411 699 369 639 b 488 497 375 522 426 501 z "},"ぁ":{"ha":0,"x_min":0,"x_max":0,"o":"m 964 375 b 708 469 889 454 810 469 l 703 469 b 704 485 703 476 703 481 b 707 503 704 488 706 493 b 776 506 740 503 764 504 b 847 581 818 508 843 535 b 831 631 850 597 843 617 b 775 654 815 646 796 654 b 718 656 764 654 743 654 b 719 683 718 669 719 678 b 672 757 719 713 719 743 b 649 760 664 760 657 760 b 578 690 614 760 586 735 b 572 657 576 682 575 672 b 522 658 550 657 536 658 b 439 626 490 660 458 649 b 422 571 425 611 419 590 b 515 504 431 511 476 504 l 556 503 b 556 460 554 489 556 472 b 556 449 556 456 556 451 b 378 249 460 413 392 319 b 483 10 357 147 407 35 b 656 17 539 -10 599 -7 b 722 -14 671 -1 697 -14 b 753 -6 735 -14 744 -11 b 779 97 782 11 790 47 b 878 250 792 115 853 208 b 879 101 892 231 921 176 b 864 25 867 81 856 50 b 896 -6 868 11 879 1 b 924 -11 904 -10 914 -11 b 1021 69 960 -11 996 18 b 964 375 1054 138 1053 282 z m 764 313 l 763 310 b 719 225 757 296 743 260 b 706 317 714 253 710 283 b 724 318 713 318 718 318 b 764 313 749 318 760 314 z m 603 140 b 588 139 599 139 593 139 b 531 182 569 139 539 144 b 574 281 522 225 535 257 b 603 140 582 229 592 181 z "},"あ":{"ha":0,"x_min":0,"x_max":0,"o":"m 1085 539 b 685 679 968 661 846 681 b 692 750 685 717 688 704 b 807 753 742 750 785 751 b 906 858 874 758 901 806 b 806 960 910 910 863 960 b 707 960 788 960 751 960 b 710 1014 708 985 710 1004 b 646 1115 710 1058 710 1097 b 517 1022 583 1135 531 1099 b 507 963 513 1007 510 988 b 421 965 467 964 443 965 b 279 843 340 971 269 915 b 411 751 289 772 335 751 b 482 750 428 751 442 750 b 483 650 481 715 483 668 b 211 351 343 600 233 463 b 365 -1 182 203 251 38 b 628 14 463 -33 553 -19 b 767 -25 654 -25 724 -50 b 800 124 810 1 815 60 b 961 372 807 132 961 372 b 972 125 968 350 1056 274 b 992 -24 942 69 926 3 b 1169 85 1057 -51 1125 -7 b 1085 539 1214 178 1222 394 z m 424 250 b 506 418 408 325 435 379 b 557 179 519 338 536 254 b 424 250 497 165 438 183 z m 799 449 b 714 292 792 432 767 360 b 689 467 704 346 696 407 b 799 449 754 472 806 465 z "},"ぃ":{"ha":0,"x_min":0,"x_max":0,"o":"m 639 257 b 593 271 624 260 608 263 b 503 439 536 304 513 381 b 415 538 493 497 458 538 b 393 533 408 538 401 536 b 328 388 331 514 322 467 b 531 97 342 215 456 119 b 608 82 556 90 583 82 b 672 106 633 82 653 90 b 692 229 713 136 714 194 b 639 257 678 249 660 253 z m 1000 517 b 875 597 985 535 933 597 b 832 583 860 597 846 593 b 804 540 815 572 806 557 b 838 451 799 508 819 475 b 889 372 858 424 875 397 b 976 292 915 328 936 292 b 1004 296 985 292 994 293 b 1056 344 1031 304 1049 321 b 1000 517 1072 396 1036 469 z "},"い":{"ha":0,"x_min":0,"x_max":0,"o":"m 185 557 b 474 140 204 297 379 169 b 672 150 561 115 618 107 b 697 318 728 194 726 275 b 557 376 668 361 614 343 b 421 629 471 426 435 542 b 274 758 404 726 340 781 b 185 557 188 731 176 665 z m 926 656 b 1160 431 1031 522 1044 394 b 1149 738 1292 472 1226 636 b 918 833 1090 814 993 886 b 926 656 846 782 890 703 z "},"ぅ":{"ha":0,"x_min":0,"x_max":0,"o":"m 592 588 b 738 553 629 575 689 563 b 758 550 744 551 751 550 b 833 606 796 550 825 572 b 792 683 840 633 824 663 b 626 740 760 703 671 732 b 601 743 618 742 610 743 b 518 688 558 743 526 721 b 592 588 506 640 528 610 z m 917 397 b 664 531 874 508 754 531 b 632 531 653 531 642 531 b 410 419 526 525 431 476 b 411 357 400 396 401 375 b 478 318 424 336 447 322 b 581 343 501 314 542 328 b 653 365 608 353 633 363 b 756 321 700 374 739 357 b 743 229 769 292 764 254 b 658 161 719 200 689 181 b 579 86 625 139 592 118 b 588 15 571 63 574 36 b 656 -19 603 -7 628 -19 b 675 -18 661 -19 668 -19 b 865 107 747 0 818 46 b 917 397 935 197 953 303 z "},"う":{"ha":0,"x_min":0,"x_max":0,"o":"m 549 872 b 764 819 604 854 693 835 b 897 893 833 806 883 840 b 839 997 906 928 883 968 b 594 1082 793 1025 664 1067 b 443 1010 524 1096 458 1067 b 549 872 429 953 447 907 z m 1021 574 b 606 767 954 744 763 775 b 281 608 449 758 311 689 b 375 469 254 535 297 482 b 633 542 433 460 563 529 b 779 319 799 568 851 408 b 536 110 699 222 568 192 b 667 -32 504 26 582 -53 b 944 151 765 -8 872 57 b 1021 574 1051 289 1072 440 z "},"ぇ":{"ha":0,"x_min":0,"x_max":0,"o":"m 640 607 b 660 597 644 606 651 601 b 774 554 689 583 738 558 b 790 553 779 553 785 553 b 861 594 824 553 850 568 b 835 683 872 621 867 661 b 697 753 806 703 731 744 b 669 757 689 756 678 757 b 596 710 649 757 613 751 b 640 607 581 671 599 625 z m 953 143 b 810 224 883 154 835 182 b 822 322 785 265 813 314 b 906 444 836 335 901 408 b 886 508 908 464 900 489 b 822 540 875 522 854 539 b 546 547 781 544 642 547 b 493 546 525 547 507 547 b 406 511 443 544 418 526 b 392 449 392 494 388 472 b 485 379 400 408 435 382 b 671 382 517 378 624 381 b 424 129 608 322 458 175 b 394 50 400 100 390 74 b 432 0 399 31 411 14 b 474 -12 444 -8 458 -12 b 556 28 507 -12 536 10 b 663 133 590 61 640 111 b 736 44 678 103 710 68 b 918 -15 772 13 857 -15 b 926 -14 921 -15 924 -15 b 1024 57 985 -12 1021 14 b 953 143 1028 99 1024 132 z "},"え":{"ha":0,"x_min":0,"x_max":0,"o":"m 621 901 b 818 822 651 889 751 831 b 939 878 885 814 924 843 b 903 997 953 911 946 967 b 700 1101 858 1028 749 1088 b 561 1042 653 1115 588 1107 b 621 901 540 990 563 928 z m 1083 189 b 863 313 976 206 900 249 b 882 474 822 381 867 458 b 1004 650 908 499 999 603 b 976 738 1008 678 997 711 b 889 782 961 756 933 779 b 476 792 828 788 618 792 b 397 792 444 792 418 792 b 275 743 326 789 292 764 b 256 658 256 719 250 689 b 385 563 268 601 317 565 b 689 567 438 560 629 565 b 300 171 626 506 360 247 b 261 61 268 131 256 93 b 311 -7 265 35 282 13 b 367 -24 329 -18 347 -24 b 483 33 414 -24 456 7 b 654 201 542 88 628 175 b 768 58 674 153 726 94 b 1033 -28 819 13 943 -28 b 1044 -28 1038 -28 1042 -28 b 1181 71 1126 -24 1176 13 b 1083 189 1185 132 1181 174 z "},"ぉ":{"ha":0,"x_min":0,"x_max":0,"o":"m 706 436 b 704 496 706 456 706 476 b 778 497 740 496 764 496 b 853 578 821 500 849 529 b 838 624 856 594 850 611 b 776 649 824 639 800 649 b 700 649 765 649 736 649 b 614 754 699 718 669 754 b 549 651 554 754 549 693 b 506 653 531 651 517 653 b 414 621 468 656 433 643 b 399 567 401 606 396 588 b 499 496 407 504 454 496 b 539 496 507 496 521 496 b 551 496 543 496 547 496 b 553 421 553 464 554 435 b 533 414 550 419 542 417 b 360 236 488 400 390 372 b 389 69 346 172 356 113 b 515 6 418 31 464 8 b 526 6 519 6 524 6 b 706 222 633 6 699 85 b 707 278 707 238 707 257 b 719 278 711 278 715 278 b 778 261 743 278 763 272 b 811 119 842 215 819 142 b 804 22 803 96 789 50 b 832 -1 810 10 819 1 b 864 -7 843 -6 854 -7 b 949 56 907 -7 931 25 b 925 343 978 107 1006 225 b 706 436 869 425 756 435 z m 546 185 b 526 176 542 179 535 176 b 506 181 521 176 514 178 b 492 197 497 183 493 192 b 506 251 488 214 493 238 b 533 267 514 261 524 267 b 551 256 543 267 550 263 b 546 185 558 224 556 197 z m 1003 611 b 933 654 982 635 961 654 b 901 644 924 654 913 651 b 875 606 888 638 878 622 b 893 540 871 585 878 561 b 907 522 899 535 903 529 b 943 478 918 510 929 494 b 1000 449 960 460 981 449 b 1044 471 1017 449 1032 456 b 1003 611 1079 510 1035 578 z "},"お":{"ha":0,"x_min":0,"x_max":0,"o":"m 706 625 b 703 735 704 663 704 700 b 822 738 754 736 799 736 b 926 849 892 743 921 793 b 821 944 931 904 881 944 b 697 944 799 944 753 944 b 697 949 697 946 697 947 b 578 1101 696 1049 658 1101 b 489 947 497 1103 492 1021 b 489 947 489 947 489 947 b 415 950 460 949 433 949 b 265 833 329 956 256 908 b 404 736 275 758 324 736 b 496 735 422 736 456 735 b 497 611 497 681 499 633 b 207 336 496 585 265 597 b 432 3 167 149 269 10 b 706 317 593 -6 694 107 b 707 408 707 342 707 374 b 829 383 743 413 792 410 b 883 160 915 321 907 221 b 907 -8 860 97 843 10 b 1069 72 990 -32 1032 7 b 1035 490 1115 153 1149 322 b 706 625 949 617 768 626 z m 411 244 b 408 368 372 260 375 331 b 494 368 440 406 489 397 b 411 244 510 299 503 210 z m 1151 892 b 1013 940 1113 935 1071 974 b 1004 799 972 917 961 853 b 1079 706 1028 768 1047 742 b 1215 696 1110 668 1168 642 b 1151 892 1263 749 1190 850 z "},"か":{"ha":0,"x_min":0,"x_max":0,"o":"m 792 817 b 706 849 769 831 740 840 b 729 919 718 883 726 908 b 665 1065 742 992 718 1049 b 497 964 592 1088 524 1039 b 456 871 483 926 469 897 b 256 856 364 871 283 864 b 154 696 172 833 147 754 b 271 606 160 649 197 606 b 347 610 286 606 314 607 b 213 304 304 494 240 361 b 249 138 178 232 201 169 b 421 183 299 104 367 114 b 608 607 435 200 528 413 b 719 474 668 593 710 567 b 603 165 731 363 651 278 b 651 6 581 115 596 32 b 799 46 689 -14 760 -4 b 943 431 838 96 932 250 b 792 817 954 610 910 744 z m 1306 582 b 1125 865 1285 661 1176 810 b 968 882 1074 921 1018 929 b 967 724 917 835 915 785 b 1093 544 1003 679 1050 599 b 1235 467 1140 486 1179 446 b 1306 582 1272 479 1318 529 z "},"が":{"ha":0,"x_min":0,"x_max":0,"o":"m 792 817 b 706 849 769 831 740 840 b 729 919 718 883 726 908 b 665 1065 742 992 718 1049 b 497 964 592 1088 524 1039 b 456 871 483 926 469 897 b 256 856 364 871 283 864 b 154 696 172 833 147 754 b 271 606 160 649 197 606 b 347 610 286 606 314 607 b 213 304 304 494 240 361 b 249 138 178 232 201 169 b 421 183 299 104 367 114 b 608 607 435 200 528 413 b 719 474 668 593 710 567 b 603 165 731 363 651 278 b 651 6 581 115 596 32 b 799 46 689 -14 760 -4 b 943 431 838 96 932 250 b 792 817 954 610 910 744 z m 1158 826 b 1167 831 1161 828 1164 828 b 1149 982 1214 853 1213 897 b 1036 1049 1104 1042 1075 1068 b 1021 936 996 1029 1001 975 b 1036 911 1026 928 1031 919 b 968 882 1013 911 989 903 b 967 724 917 835 915 785 b 1093 544 1003 679 1050 599 b 1235 467 1140 486 1179 446 b 1306 582 1272 479 1318 529 b 1158 826 1289 647 1213 758 z m 1303 1042 b 1185 1117 1264 1106 1225 1136 b 1169 1003 1144 1096 1147 1042 b 1303 906 1210 933 1249 879 b 1303 1042 1350 929 1344 972 z "},"き":{"ha":0,"x_min":0,"x_max":0,"o":"m 1118 613 b 1011 726 1113 668 1072 725 b 821 717 988 726 911 722 b 794 782 813 738 803 760 b 900 793 839 786 878 790 b 1008 886 974 804 1013 838 b 915 986 1006 935 968 986 b 739 978 892 986 819 983 b 613 1096 717 1061 692 1110 b 521 963 539 1082 514 1043 b 458 958 496 961 474 960 b 331 828 368 950 314 894 b 493 763 347 760 414 756 b 563 767 507 764 532 765 b 583 700 569 744 576 722 b 449 690 525 696 476 692 b 304 542 347 682 285 618 b 488 468 322 465 399 461 b 688 482 518 471 599 476 b 751 393 710 444 732 415 b 951 322 804 335 865 278 b 946 501 1035 365 988 440 b 993 507 965 504 982 506 b 1118 613 1078 519 1122 557 z m 799 136 b 575 239 729 172 636 176 b 388 354 504 310 476 388 b 367 133 313 326 301 235 b 724 -39 446 10 572 -37 b 799 136 842 -39 882 94 z "},"ぎ":{"ha":0,"x_min":0,"x_max":0,"o":"m 799 136 b 575 239 729 172 636 176 b 388 354 504 310 476 388 b 367 133 313 326 301 235 b 724 -39 446 10 572 -37 b 799 136 842 -39 882 94 z m 976 1049 b 947 979 950 1036 943 1008 b 915 986 938 983 926 986 b 739 978 892 986 819 982 b 613 1096 717 1061 692 1110 b 521 963 539 1082 514 1043 b 458 958 496 961 474 960 b 331 828 368 950 314 894 b 493 763 347 760 414 756 b 563 767 507 764 532 765 b 583 700 569 744 576 722 b 449 690 525 696 476 692 b 304 542 347 682 285 618 b 488 468 322 465 399 461 b 688 482 518 471 599 476 b 751 393 710 444 732 415 b 951 322 804 335 865 278 b 946 501 1035 365 988 440 b 993 507 965 503 982 506 b 1118 613 1078 519 1122 557 b 1011 726 1113 668 1072 725 b 821 717 988 726 911 722 b 794 782 813 738 803 760 b 900 793 839 786 878 790 b 1008 868 964 803 1003 829 b 1107 829 1042 833 1078 815 b 1089 982 1154 853 1153 897 b 976 1049 1044 1042 1015 1068 z m 1244 1042 b 1125 1117 1206 1106 1165 1136 b 1111 1003 1085 1096 1088 1042 b 1243 906 1150 933 1189 879 b 1244 1042 1290 929 1285 972 z "},"く":{"ha":0,"x_min":0,"x_max":0,"o":"m 363 371 b 749 19 429 311 667 68 b 938 38 832 -31 883 -17 b 926 214 979 81 971 165 b 575 531 882 264 588 521 b 928 842 575 531 878 792 b 929 1018 994 908 972 968 b 724 1006 878 1078 779 1056 b 342 635 669 957 429 728 b 363 371 254 542 293 433 z "},"ぐ":{"ha":0,"x_min":0,"x_max":0,"o":"m 363 371 b 749 19 429 311 667 68 b 938 38 832 -31 883 -17 b 926 214 979 81 971 165 b 575 531 882 264 588 521 b 928 842 575 531 878 792 b 929 1018 994 908 972 968 b 724 1006 878 1078 779 1056 b 342 635 669 957 429 728 b 363 371 254 542 293 433 z m 1024 885 b 1168 779 1063 808 1124 757 b 1150 931 1215 801 1214 846 b 1038 997 1106 990 1076 1017 b 1024 885 997 978 1003 924 z m 1171 951 b 1304 854 1211 882 1250 828 b 1306 990 1351 878 1346 921 b 1186 1065 1267 1056 1226 1085 b 1171 951 1146 1044 1149 990 z "},"け":{"ha":0,"x_min":0,"x_max":0,"o":"m 442 825 b 353 996 449 914 404 981 b 199 872 301 1010 226 983 b 233 293 154 693 204 381 b 382 167 263 204 301 154 b 471 332 461 179 485 258 b 442 825 456 406 433 738 z m 1164 818 b 1039 843 1146 829 1094 838 b 1035 892 1038 864 1036 881 b 911 1047 1025 972 986 1047 b 793 890 838 1047 779 978 b 800 850 796 875 799 863 b 683 843 749 849 706 846 b 531 699 571 826 531 772 b 693 581 531 624 611 581 b 808 581 713 581 765 581 b 682 163 785 315 711 235 b 742 -10 653 89 658 28 b 967 213 829 -49 917 78 b 1036 581 1010 325 1029 460 b 1082 581 1051 581 1072 581 b 1233 683 1147 581 1226 632 b 1164 818 1242 735 1224 782 z "},"げ":{"ha":0,"x_min":0,"x_max":0,"o":"m 442 825 b 353 996 449 914 404 981 b 199 872 301 1010 226 983 b 233 293 154 693 204 381 b 382 167 263 204 301 154 b 471 332 461 179 485 258 b 442 825 456 406 433 738 z m 1167 817 b 1181 821 1171 818 1175 819 b 1163 974 1226 844 1225 889 b 1049 1040 1117 1033 1089 1060 b 1035 928 1008 1021 1014 967 b 1111 833 1056 886 1083 853 b 1039 843 1090 838 1064 840 b 1035 892 1038 864 1036 881 b 911 1047 1025 972 986 1047 b 793 890 838 1047 779 978 b 800 850 796 875 799 863 b 683 843 749 849 706 846 b 531 699 571 826 531 772 b 693 581 531 625 611 581 b 808 581 713 581 765 581 b 682 163 785 315 711 235 b 742 -10 653 89 658 28 b 967 213 829 -49 917 78 b 1036 581 1010 325 1029 460 b 1082 581 1051 581 1072 581 b 1233 683 1147 581 1226 632 b 1167 817 1242 735 1224 781 z m 1317 1033 b 1197 1108 1278 1097 1238 1128 b 1183 993 1157 1088 1161 1033 b 1315 897 1222 925 1263 871 b 1317 1033 1363 921 1358 964 z "},"こ":{"ha":0,"x_min":0,"x_max":0,"o":"m 565 778 b 824 658 657 763 778 701 b 983 643 875 610 938 613 b 1007 797 1029 674 1044 736 b 603 1018 954 881 756 1018 b 421 911 526 1018 436 1003 b 565 778 408 836 468 794 z m 324 264 b 704 31 394 136 556 50 b 968 114 863 11 953 50 b 874 272 982 176 946 271 b 543 413 739 278 614 321 b 360 483 485 488 431 519 b 324 264 289 449 261 378 z "},"ご":{"ha":0,"x_min":0,"x_max":0,"o":"m 565 778 b 824 658 657 763 778 701 b 983 643 875 610 938 613 b 1007 797 1029 674 1044 736 b 603 1018 954 881 756 1018 b 421 911 526 1018 436 1003 b 565 778 408 836 468 794 z m 324 264 b 704 31 394 136 556 50 b 968 114 863 11 953 50 b 874 272 982 176 946 271 b 543 413 739 278 614 321 b 360 483 485 488 431 519 b 324 264 289 449 261 378 z m 963 915 b 1107 808 1001 839 1063 786 b 1089 961 1154 832 1153 876 b 976 1028 1044 1021 1015 1047 b 963 915 936 1007 942 954 z m 1111 981 b 1243 885 1150 911 1189 858 b 1244 1021 1290 908 1285 951 b 1125 1096 1206 1085 1172 1111 b 1111 981 1085 1075 1088 1019 z "},"さ":{"ha":0,"x_min":0,"x_max":0,"o":"m 931 683 b 999 708 957 692 979 700 b 1083 864 1071 739 1103 782 b 947 944 1069 925 1013 958 b 826 919 926 940 882 931 b 789 1018 811 958 799 993 b 644 1104 756 1104 710 1124 b 568 935 579 1085 547 1028 b 585 869 574 911 579 890 b 453 846 529 858 481 850 b 318 683 360 831 301 767 b 494 597 333 601 406 590 b 689 625 546 601 615 611 b 824 447 729 557 775 501 b 1040 407 904 358 989 349 b 960 639 1093 467 1051 521 b 931 683 950 651 940 667 z m 792 171 b 579 299 719 201 644 232 b 375 483 507 374 481 500 b 319 235 283 468 261 349 b 675 -43 394 83 533 -24 b 865 26 772 -56 828 -49 b 792 171 893 81 850 146 z "},"ざ":{"ha":0,"x_min":0,"x_max":0,"o":"m 792 171 b 579 299 719 201 644 232 b 375 483 507 374 481 500 b 319 235 283 468 261 349 b 675 -43 394 83 533 -24 b 865 26 772 -56 828 -49 b 792 171 893 81 850 146 z m 983 1054 b 967 947 946 1035 949 985 b 947 944 960 946 954 946 b 826 919 926 940 882 931 b 789 1018 811 958 799 993 b 644 1104 756 1104 710 1124 b 568 935 579 1085 547 1028 b 585 869 574 911 579 890 b 453 846 529 858 481 850 b 318 683 360 831 301 767 b 494 597 333 601 406 590 b 689 625 546 601 615 611 b 824 447 729 557 775 501 b 1042 407 904 358 989 349 b 960 639 1093 467 1051 521 b 931 683 950 651 940 667 b 999 708 957 692 979 700 b 1089 829 1060 735 1092 769 b 1114 835 1097 829 1107 831 b 1096 988 1161 858 1160 903 b 983 1054 1051 1047 1022 1074 z m 1251 1046 b 1132 1121 1213 1111 1172 1142 b 1118 1007 1092 1101 1094 1046 b 1250 911 1157 938 1196 885 b 1251 1046 1297 935 1293 976 z "},"し":{"ha":0,"x_min":0,"x_max":0,"o":"m 367 879 b 454 115 340 619 342 242 b 885 24 567 -12 744 -22 b 1051 193 997 61 1057 114 b 885 293 1044 274 958 326 b 639 333 813 260 699 247 b 621 856 579 419 621 763 b 513 1017 621 949 586 1003 b 367 879 439 1029 375 960 z "},"じ":{"ha":0,"x_min":0,"x_max":0,"o":"m 367 879 b 454 115 340 619 342 242 b 885 24 567 -12 744 -22 b 1051 193 997 61 1057 114 b 885 293 1044 274 958 326 b 639 333 813 260 699 247 b 621 856 579 419 621 763 b 513 1017 621 949 586 1003 b 367 879 439 1029 375 960 z m 882 904 b 1028 797 921 828 983 775 b 1008 950 1074 821 1072 865 b 896 1017 964 1010 936 1036 b 882 904 856 996 861 943 z m 1031 969 b 1163 874 1069 900 1108 847 b 1164 1010 1210 897 1206 940 b 1044 1085 1125 1074 1085 1104 b 1031 969 1004 1064 1008 1008 z "},"す":{"ha":0,"x_min":0,"x_max":0,"o":"m 1210 822 b 1082 932 1203 885 1151 935 b 899 931 1058 931 986 931 b 893 992 897 956 894 976 b 768 1103 883 1050 849 1096 b 644 988 708 1107 642 1064 b 647 933 644 969 646 951 b 396 936 535 935 435 936 b 226 788 296 939 211 872 b 394 683 242 703 300 688 b 654 683 444 681 544 682 b 653 639 653 657 653 639 b 404 589 608 665 475 646 b 378 294 335 531 290 414 b 606 217 461 182 606 217 b 557 163 622 213 626 200 b 453 49 515 140 444 104 b 567 -53 461 -14 503 -49 b 789 50 632 -57 721 -33 b 894 447 865 144 888 260 b 901 690 899 521 900 607 b 1104 700 997 693 1076 697 b 1210 822 1186 710 1218 744 z m 585 390 b 529 467 544 389 517 438 b 636 483 543 494 607 517 b 585 390 667 450 654 392 z "},"ず":{"ha":0,"x_min":0,"x_max":0,"o":"m 1188 881 b 1140 964 1181 903 1165 931 b 1026 1031 1096 1024 1067 1050 b 1007 931 992 1013 992 968 b 899 931 976 931 939 931 b 893 992 897 956 894 976 b 768 1103 883 1050 849 1096 b 644 988 708 1107 642 1064 b 647 933 644 969 646 951 b 396 936 535 935 435 936 b 226 788 296 939 211 872 b 394 683 242 703 300 688 b 654 683 444 681 544 682 b 653 639 653 657 653 639 b 404 589 608 665 475 646 b 378 294 335 531 290 414 b 606 217 461 182 606 217 b 557 163 622 213 626 200 b 453 49 515 140 444 104 b 567 -53 461 -14 503 -49 b 789 50 632 -57 721 -33 b 894 447 865 144 888 260 b 901 690 899 521 900 607 b 1104 700 997 693 1076 697 b 1210 822 1186 710 1218 744 b 1188 881 1207 843 1199 864 z m 585 390 b 529 467 544 389 517 438 b 636 483 543 494 607 517 b 585 390 667 450 654 392 z m 1294 1024 b 1175 1099 1256 1088 1215 1118 b 1161 983 1135 1078 1139 1024 b 1294 888 1201 915 1240 861 b 1294 1024 1340 911 1336 954 z "},"せ":{"ha":0,"x_min":0,"x_max":0,"o":"m 1132 854 b 1029 860 1094 860 1047 860 b 1021 929 1028 871 1025 896 b 925 1014 1015 967 988 1010 b 819 946 878 1018 833 989 b 810 858 811 915 810 874 l 583 858 b 575 944 585 874 586 914 b 494 1018 560 992 533 1017 b 381 957 436 1019 401 1001 b 361 868 369 932 363 885 b 329 869 354 868 343 869 b 236 858 307 869 271 867 b 139 744 175 843 136 797 b 208 638 142 668 189 644 b 351 625 233 629 325 626 b 401 217 349 581 340 344 b 747 -1 464 88 592 1 b 835 -3 778 -3 807 -3 b 1071 63 950 -3 1029 8 b 1083 175 1096 96 1100 138 b 1003 236 1068 210 1036 233 b 913 236 979 238 946 236 b 846 233 892 235 869 233 b 696 254 786 233 739 240 b 583 613 550 300 578 569 l 804 613 b 817 500 804 585 811 517 b 907 422 833 449 863 424 l 910 422 b 1000 478 946 422 985 446 b 1019 621 1021 521 1021 597 b 1060 619 1028 621 1043 619 b 1124 622 1088 619 1104 621 b 1244 736 1182 628 1244 669 b 1132 854 1244 826 1192 846 z "},"ぜ":{"ha":0,"x_min":0,"x_max":0,"o":"m 1199 835 b 1160 972 1222 860 1211 903 b 1046 1038 1115 1032 1086 1058 b 1032 925 1007 1018 1013 965 b 1078 860 1046 900 1061 878 b 1029 860 1057 860 1039 860 b 1021 929 1028 871 1025 896 b 925 1014 1015 967 988 1010 b 819 946 878 1018 833 989 b 810 858 811 915 810 874 l 583 858 b 575 944 585 874 586 914 b 494 1018 560 992 533 1017 b 381 957 436 1019 401 1001 b 361 868 369 932 363 885 b 329 869 354 868 343 869 b 236 858 307 869 271 867 b 139 744 175 843 136 797 b 208 638 142 668 189 644 b 351 625 233 629 325 626 b 401 217 349 581 340 344 b 747 -1 464 88 592 1 b 835 -3 778 -3 807 -3 b 1071 63 950 -3 1029 8 b 1083 175 1096 96 1100 138 b 1003 236 1068 210 1036 233 b 913 236 979 238 946 236 b 846 233 890 235 869 233 b 696 254 786 233 739 240 b 583 613 550 300 578 569 l 804 613 b 817 500 804 585 811 517 b 907 422 833 449 863 424 l 910 422 b 1000 478 946 422 985 446 b 1019 621 1021 521 1021 597 b 1060 619 1028 621 1043 619 b 1124 622 1088 619 1104 621 b 1244 736 1182 628 1244 669 b 1199 835 1244 789 1226 818 z m 1314 1031 b 1196 1106 1275 1096 1236 1126 b 1181 992 1156 1086 1158 1031 b 1314 896 1221 922 1260 868 b 1314 1031 1361 919 1356 961 z "},"そ":{"ha":0,"x_min":0,"x_max":0,"o":"m 1038 140 b 1001 161 1025 147 1013 154 b 922 247 963 182 926 201 b 963 393 915 310 931 361 b 1051 549 1026 457 1056 506 b 949 649 1049 590 1011 649 l 656 649 b 999 933 718 681 978 817 b 974 1017 1003 958 993 992 b 901 1058 961 1035 938 1056 b 829 1060 886 1060 864 1060 b 626 1057 772 1060 694 1058 b 493 1054 569 1056 522 1054 b 350 936 399 1054 350 994 b 447 829 350 871 401 835 b 500 826 461 828 478 826 b 578 829 529 826 560 828 b 356 679 539 807 417 735 b 328 654 346 669 336 661 b 253 514 272 604 242 576 b 408 418 265 451 317 418 l 728 418 b 699 183 714 396 667 307 b 896 -40 732 51 822 -19 b 960 -51 919 -47 940 -51 b 1056 3 1003 -51 1035 -33 b 1038 140 1078 39 1085 108 z "},"ぞ":{"ha":0,"x_min":0,"x_max":0,"o":"m 990 1044 b 968 1024 981 1040 972 1032 b 901 1058 954 1039 932 1056 b 829 1060 886 1060 864 1060 b 626 1057 772 1060 694 1058 b 493 1054 569 1056 522 1054 b 350 936 399 1054 350 994 b 447 829 350 871 401 835 b 500 826 461 828 478 826 b 578 829 529 826 561 828 b 356 679 539 807 417 735 b 328 654 346 669 336 661 b 253 514 272 604 242 576 b 408 418 265 451 317 418 l 728 418 b 699 183 714 396 668 307 b 896 -40 732 51 822 -19 b 960 -51 919 -47 940 -51 b 1056 1 1003 -51 1035 -33 b 1038 140 1078 39 1085 108 b 1001 161 1025 147 1013 154 b 922 247 963 182 926 201 b 963 393 915 310 931 361 b 1051 549 1026 457 1056 506 b 949 649 1049 590 1011 649 l 656 649 b 990 908 714 678 940 797 b 1122 826 1029 846 1082 807 b 1103 979 1168 850 1167 893 b 990 1044 1058 1039 1031 1065 z m 1258 1038 b 1139 1113 1219 1103 1179 1133 b 1125 999 1099 1093 1103 1038 b 1257 903 1164 929 1203 875 b 1258 1038 1304 926 1300 968 z "},"た":{"ha":0,"x_min":0,"x_max":0,"o":"m 813 656 b 954 756 900 658 951 693 b 860 897 956 818 921 888 b 710 910 836 900 778 904 b 638 1092 725 999 721 1065 b 467 925 558 1118 504 1054 b 382 929 433 926 403 928 b 214 785 276 933 206 872 b 393 678 222 697 299 682 b 401 676 394 678 399 678 b 264 167 347 481 276 222 b 335 -29 244 83 246 -10 b 496 96 422 -47 471 18 b 654 661 517 160 604 457 b 813 656 719 657 778 656 z m 897 583 b 757 446 796 576 736 506 b 900 369 778 386 831 372 b 1097 353 942 368 1033 356 b 1176 503 1163 350 1225 419 b 897 583 1133 578 1015 590 z m 1110 210 b 874 246 1064 213 946 229 b 713 174 792 265 735 244 b 883 -12 685 83 771 18 b 1196 65 996 -43 1171 -32 b 1110 210 1221 163 1157 208 z "},"だ":{"ha":0,"x_min":0,"x_max":0,"o":"m 813 656 b 954 756 900 658 951 693 b 860 897 956 818 921 888 b 710 910 836 900 778 904 b 638 1092 725 999 721 1065 b 467 925 558 1118 504 1054 b 382 929 433 926 403 928 b 214 785 276 933 206 872 b 393 678 222 697 299 682 b 401 676 394 678 399 678 b 264 167 347 481 276 222 b 335 -29 244 83 246 -10 b 496 96 422 -47 471 18 b 654 661 517 160 604 457 b 813 656 719 657 778 656 z m 897 583 b 757 446 796 576 736 506 b 900 369 778 386 831 372 b 1097 353 942 368 1033 356 b 1176 503 1163 350 1225 419 b 897 583 1133 578 1015 590 z m 1110 210 b 874 246 1064 213 946 229 b 713 174 792 265 735 244 b 883 -12 685 83 771 18 b 1196 65 996 -43 1171 -32 b 1110 210 1221 163 1157 208 z m 1114 808 b 1096 961 1161 832 1160 876 b 983 1028 1051 1021 1022 1047 b 969 914 943 1007 949 954 b 1114 808 1008 838 1069 786 z m 1251 1019 b 1132 1094 1213 1085 1172 1115 b 1118 981 1113 1061 1094 1019 b 1250 885 1157 911 1196 858 b 1251 1019 1297 908 1293 951 z "},"ち":{"ha":0,"x_min":0,"x_max":0,"o":"m 946 556 b 656 611 825 646 656 611 b 686 708 674 608 669 653 b 851 711 758 708 822 710 b 990 825 946 718 986 772 b 878 929 993 878 953 929 b 751 931 854 929 807 929 b 763 971 757 947 760 961 b 685 1118 778 1043 756 1101 b 529 1014 618 1133 550 1093 b 507 931 525 999 517 968 b 386 932 458 931 415 932 b 256 818 299 933 251 878 b 382 717 260 760 304 725 b 447 714 394 715 418 714 b 418 611 435 671 425 635 b 390 414 400 549 368 458 b 553 378 411 371 486 349 b 756 401 626 411 706 418 b 842 274 790 390 861 372 b 700 163 828 201 760 175 b 597 56 642 150 606 113 b 694 -58 590 6 628 -49 b 896 -21 765 -71 808 -65 b 1081 244 983 22 1065 135 b 946 556 1096 354 1068 464 z "},"ぢ":{"ha":0,"x_min":0,"x_max":0,"o":"m 932 1035 b 918 924 893 1015 897 963 b 878 929 906 928 892 929 b 751 931 854 929 807 929 b 763 971 757 947 760 961 b 685 1118 778 1043 756 1101 b 529 1014 618 1133 550 1093 b 507 931 525 999 517 968 b 386 932 458 931 415 932 b 256 818 299 933 251 878 b 382 717 260 760 304 725 b 447 714 394 715 418 714 b 418 611 435 671 425 635 b 390 414 400 549 368 458 b 553 378 411 371 486 349 b 756 401 626 411 706 418 b 842 274 790 390 861 372 b 700 163 828 201 760 175 b 597 56 642 150 606 113 b 694 -58 590 6 628 -49 b 896 -21 765 -71 808 -65 b 1081 244 983 22 1065 135 b 946 556 1096 354 1068 464 b 656 611 825 646 656 611 b 686 708 674 608 669 653 b 851 711 758 708 822 710 b 990 825 946 718 986 772 b 989 832 990 828 989 829 b 1064 817 1015 813 1042 806 b 1046 968 1110 839 1108 883 b 932 1035 1001 1028 972 1054 z m 1200 1028 b 1081 1103 1161 1093 1121 1122 b 1067 989 1040 1082 1044 1028 b 1199 893 1106 919 1146 865 b 1200 1028 1246 915 1242 958 z "},"っ":{"ha":0,"x_min":0,"x_max":0,"o":"m 935 575 b 683 644 885 621 800 644 b 501 631 614 644 546 636 l 488 629 b 354 517 407 619 354 575 b 376 457 354 493 361 472 b 464 429 396 439 425 429 b 519 435 483 431 500 432 b 619 444 546 439 575 443 b 667 447 633 444 650 446 b 729 451 688 449 708 451 b 829 397 789 451 819 435 b 738 235 857 293 793 263 l 729 231 b 624 110 671 201 619 171 b 722 25 628 60 668 25 b 751 29 732 25 742 26 b 981 199 854 51 932 108 b 935 575 1040 310 1050 469 z "},"つ":{"ha":0,"x_min":0,"x_max":0,"o":"m 356 632 b 579 653 421 633 465 649 b 892 579 693 656 860 697 b 743 329 933 415 825 369 b 594 163 661 289 588 246 b 768 53 601 82 676 33 b 1093 293 860 74 1001 124 b 1029 826 1185 463 1182 686 b 390 903 876 968 535 919 b 206 749 278 890 206 829 b 356 632 206 671 264 629 z "},"づ":{"ha":0,"x_min":0,"x_max":0,"o":"m 356 632 b 579 653 421 633 465 649 b 892 579 693 656 860 697 b 743 329 933 415 825 369 b 594 163 661 289 588 246 b 768 53 601 82 676 33 b 1093 293 860 74 1001 124 b 1029 826 1185 463 1182 686 b 390 903 876 968 535 919 b 206 749 278 890 206 829 b 356 632 206 671 264 629 z m 1033 914 b 1179 808 1074 838 1135 786 b 1161 961 1225 832 1224 876 b 1047 1028 1117 1021 1088 1047 b 1033 914 1008 1007 1013 954 z m 1182 981 b 1315 885 1222 911 1261 858 b 1315 1019 1361 908 1357 951 b 1196 1094 1276 1085 1238 1115 b 1182 981 1156 1075 1160 1019 z "},"て":{"ha":0,"x_min":0,"x_max":0,"o":"m 746 719 b 699 235 686 633 624 404 b 1011 -7 778 53 922 -32 b 1076 197 1106 21 1129 119 b 940 428 1046 242 928 253 b 1051 769 954 636 1011 647 b 928 969 1093 890 1024 958 b 433 975 838 981 540 975 b 218 850 325 974 218 960 b 357 721 219 742 297 726 b 746 719 483 711 746 719 z "},"で":{"ha":0,"x_min":0,"x_max":0,"o":"m 746 719 b 699 235 686 633 624 404 b 1011 -7 778 53 922 -32 b 1076 197 1106 21 1129 119 b 940 428 1046 242 928 253 b 1051 769 954 636 1011 647 b 928 969 1093 890 1024 958 b 433 975 838 981 540 975 b 218 850 325 974 218 960 b 357 721 219 742 297 726 b 746 719 483 711 746 719 z m 1050 922 b 1196 817 1090 846 1151 794 b 1178 968 1242 839 1240 883 b 1064 1035 1133 1028 1104 1054 b 1050 922 1025 1015 1029 961 z m 1199 989 b 1332 892 1239 919 1278 865 b 1332 1028 1378 915 1374 958 b 1213 1103 1293 1093 1253 1122 b 1199 989 1172 1082 1176 1028 z "},"と":{"ha":0,"x_min":0,"x_max":0,"o":"m 336 469 b 389 108 272 303 297 201 b 821 -12 507 -11 664 -15 b 1072 99 971 -8 1047 7 b 956 231 1096 186 1022 221 b 551 340 888 239 524 172 b 940 629 568 432 825 588 b 1089 769 1054 671 1090 722 b 947 881 1086 817 1031 892 b 638 738 786 860 638 713 b 561 900 638 738 599 808 b 418 1032 533 972 472 1029 b 296 906 339 1035 293 971 b 436 610 299 839 456 606 b 336 469 436 610 354 514 z "},"ど":{"ha":0,"x_min":0,"x_max":0,"o":"m 940 629 b 1089 769 1054 671 1090 722 b 1054 840 1088 790 1075 818 b 1015 976 1076 867 1065 908 b 901 1043 971 1036 942 1063 b 888 931 863 1022 867 969 b 922 876 897 910 910 892 b 638 738 771 847 638 738 b 561 900 638 713 599 808 b 418 1032 533 972 472 1029 b 296 906 339 1035 293 971 b 436 610 299 839 436 610 b 336 469 456 604 354 514 b 389 108 272 303 297 201 b 821 -12 507 -11 664 -15 b 1072 99 971 -8 1047 7 b 956 231 1096 186 1022 221 b 551 340 888 239 524 172 b 940 629 568 432 825 588 z m 1169 1036 b 1050 1111 1131 1100 1090 1131 b 1036 996 1010 1090 1014 1035 b 1169 900 1076 928 1115 874 b 1169 1036 1215 924 1211 967 z "},"な":{"ha":0,"x_min":0,"x_max":0,"o":"m 568 683 b 644 686 597 683 624 685 b 792 800 744 693 789 743 b 671 904 796 857 751 904 b 661 904 668 904 664 904 b 663 910 661 907 663 908 b 614 1092 679 974 688 1068 b 439 981 525 1119 465 1071 b 413 915 435 968 425 944 b 338 918 388 917 361 918 b 186 793 243 919 182 857 b 308 694 189 733 233 704 b 221 486 267 606 229 522 b 288 342 203 414 233 354 b 436 400 342 328 401 333 b 568 683 450 426 513 558 z m 1263 632 b 1150 764 1240 674 1189 719 b 993 797 1096 826 1038 840 b 994 653 949 756 958 697 b 1117 525 1014 629 1067 561 b 1239 518 1167 489 1214 500 b 1263 632 1265 536 1285 590 z m 993 344 b 1004 476 993 344 1004 415 b 903 607 1004 536 981 597 b 796 482 825 617 800 550 b 797 401 792 429 797 401 b 489 338 722 422 564 419 b 456 36 415 257 392 119 b 785 -50 519 -49 661 -87 b 943 106 922 -10 943 106 b 1010 93 956 89 975 99 b 1124 136 1054 86 1103 100 b 1114 261 1140 168 1149 210 b 993 344 1081 311 993 344 z m 744 164 b 668 136 742 147 697 129 b 633 186 640 143 628 160 b 711 211 640 214 685 214 b 744 164 738 207 749 181 z "},"に":{"ha":0,"x_min":0,"x_max":0,"o":"m 508 185 b 499 224 504 199 500 213 b 492 257 497 232 494 243 b 460 560 478 322 453 432 b 488 736 463 624 476 683 b 506 861 499 785 507 828 b 394 1004 503 944 460 1000 b 246 851 328 1008 272 950 b 206 532 226 779 201 668 b 282 129 210 349 231 236 b 435 7 317 54 375 7 b 489 24 454 7 474 13 b 508 185 546 63 525 133 z m 1149 853 b 936 946 1113 896 1029 933 b 875 950 917 949 897 950 b 683 903 796 950 724 932 b 625 807 651 879 631 844 b 642 740 622 781 628 757 b 765 711 674 699 707 692 b 890 726 796 722 836 726 b 979 711 928 726 950 719 b 1044 694 997 706 1018 700 b 1079 692 1057 692 1068 692 b 1163 739 1136 692 1157 725 b 1149 853 1174 767 1185 808 z m 1178 181 b 1043 292 1171 251 1099 299 b 1011 290 1033 292 1024 290 b 824 324 947 290 856 304 b 750 342 803 335 776 342 b 644 292 704 342 665 324 b 674 125 610 239 621 175 b 849 54 711 90 774 65 b 969 43 894 47 931 43 b 1068 54 1001 43 1033 46 b 1178 181 1167 76 1182 135 z "},"ぬ":{"ha":0,"x_min":0,"x_max":0,"o":"m 1294 246 b 1179 329 1265 289 1197 321 b 1150 582 1182 357 1190 486 b 975 778 1106 692 999 764 b 994 864 979 793 990 835 b 940 992 1003 911 993 972 b 801 951 875 1018 828 1003 b 764 849 782 913 768 865 b 728 851 757 850 746 851 b 578 836 689 851 638 846 b 524 822 560 833 542 828 b 514 861 518 842 515 856 b 401 983 490 951 453 990 b 307 853 369 979 294 958 b 333 721 311 811 321 768 b 207 583 283 681 239 633 b 158 267 163 514 129 385 b 288 90 178 189 222 128 b 410 58 325 69 367 58 b 554 94 457 58 506 71 b 654 33 592 44 629 33 b 689 40 667 33 679 36 b 736 157 726 57 758 97 l 725 188 b 713 219 721 199 717 208 b 718 226 715 222 717 224 b 893 585 815 340 881 546 b 978 499 910 578 958 549 b 986 388 997 451 989 404 b 956 390 978 389 967 390 b 810 336 910 390 847 375 b 776 111 760 282 732 188 b 971 22 814 44 904 22 b 1021 26 989 22 1006 24 b 1143 131 1096 40 1133 110 b 1204 113 1153 128 1175 121 b 1290 139 1242 100 1272 110 l 1294 144 b 1294 246 1308 168 1328 197 z m 667 647 b 700 644 678 647 689 646 b 628 463 693 621 665 539 b 576 629 610 517 593 574 b 667 647 606 640 636 647 z m 361 329 b 399 489 339 367 356 428 b 463 293 417 431 439 360 b 438 290 454 292 446 290 b 361 329 403 290 375 304 z m 976 193 b 939 181 967 183 954 179 b 901 215 913 183 901 200 b 967 254 903 235 922 254 b 996 253 975 254 985 254 b 976 193 994 238 992 210 z "},"ね":{"ha":0,"x_min":0,"x_max":0,"o":"m 1250 300 b 1124 396 1224 340 1124 396 b 1061 746 1144 374 1156 613 b 678 819 974 869 833 881 b 578 908 672 868 632 910 b 567 908 575 908 571 908 b 567 921 567 914 567 918 b 451 1053 567 988 528 1058 b 346 915 376 1049 346 997 b 344 896 346 911 346 904 b 283 896 322 896 301 896 b 150 778 204 899 149 849 b 282 672 151 708 207 671 b 340 675 296 672 317 674 b 338 569 339 640 339 606 b 193 403 271 501 215 436 b 179 208 135 318 132 251 b 331 238 217 174 292 182 b 331 86 329 163 329 104 b 431 -17 335 10 394 -17 b 551 81 467 -17 551 4 b 558 494 551 118 556 306 b 783 640 617 553 689 611 b 922 581 861 664 899 651 b 924 467 944 510 924 467 b 682 393 892 481 746 467 b 669 96 611 313 604 193 b 976 6 724 15 856 -24 b 1119 150 1097 36 1119 150 b 1256 176 1167 128 1232 146 b 1250 300 1281 208 1278 261 z m 917 215 b 857 182 907 194 883 178 b 815 253 806 190 801 226 b 900 275 829 278 868 293 b 917 215 931 256 925 236 z "},"の":{"ha":0,"x_min":0,"x_max":0,"o":"m 786 656 b 953 503 786 656 907 664 b 864 142 1010 310 874 253 b 1043 67 858 76 964 -17 b 1135 636 1100 128 1256 331 b 426 886 1024 915 686 971 b 188 329 154 799 118 492 b 597 199 224 244 378 100 b 786 656 836 307 785 668 z m 392 565 b 575 647 433 654 551 686 b 449 422 604 599 588 408 b 392 565 392 428 357 490 z "},"は":{"ha":0,"x_min":0,"x_max":0,"o":"m 357 1003 b 189 815 260 1028 219 932 b 175 224 158 700 139 382 b 365 28 211 65 297 3 b 424 229 432 53 449 83 b 428 754 399 378 386 518 b 357 1003 450 875 454 979 z m 1240 719 b 1174 844 1247 750 1235 825 b 1054 858 1151 851 1107 856 b 1046 917 1051 878 1049 897 b 851 953 1024 1076 872 1058 b 846 864 846 925 844 903 b 763 861 817 863 789 863 b 619 739 649 854 619 800 b 758 647 619 678 685 647 b 861 649 775 647 814 647 b 869 419 869 519 869 419 b 564 175 674 461 533 315 b 844 4 594 35 686 4 b 1058 144 1003 4 1058 144 b 1217 260 1186 108 1254 199 b 1064 358 1181 321 1064 358 b 1076 540 1075 347 1076 450 b 1074 653 1076 572 1075 611 b 1138 653 1103 653 1126 653 b 1240 719 1186 653 1235 690 z m 871 208 b 774 165 865 176 822 150 b 779 267 733 179 718 246 b 871 208 840 289 878 246 z "},"ば":{"ha":0,"x_min":0,"x_max":0,"o":"m 357 1003 b 189 815 260 1028 219 932 b 175 224 158 700 139 382 b 365 28 211 65 297 3 b 424 229 432 53 449 83 b 428 754 399 378 386 518 b 357 1003 450 875 454 979 z m 1208 824 b 1182 972 1246 849 1240 892 b 1068 1038 1138 1032 1108 1058 b 1054 925 1028 1018 1033 964 b 1103 856 1068 899 1085 874 b 1054 858 1088 857 1072 858 b 1046 917 1051 878 1049 897 b 851 953 1024 1076 872 1058 b 846 864 846 925 844 903 b 763 861 817 863 789 863 b 619 739 649 854 619 800 b 758 647 619 678 685 647 b 861 649 775 647 815 647 b 869 419 869 519 869 419 b 564 175 674 461 533 315 b 844 4 594 35 686 4 b 1058 144 1003 4 1058 144 b 1217 260 1186 108 1254 199 b 1064 358 1181 321 1064 358 b 1076 540 1075 347 1076 450 b 1074 653 1076 572 1075 611 b 1138 653 1103 653 1126 653 b 1240 719 1186 653 1235 690 b 1208 824 1246 743 1239 793 z m 871 208 b 774 165 865 176 822 150 b 779 267 733 179 718 246 b 871 208 840 289 878 246 z m 1336 1031 b 1217 1106 1297 1096 1257 1126 b 1203 992 1185 1083 1181 1031 b 1335 896 1242 922 1282 868 b 1336 1031 1382 919 1378 961 z "},"ぱ":{"ha":0,"x_min":0,"x_max":0,"o":"m 357 1003 b 189 815 260 1028 219 932 b 175 224 158 700 139 382 b 365 28 211 65 297 3 b 424 229 432 53 449 83 b 428 754 399 378 386 518 b 357 1003 450 875 454 979 z m 1278 1113 b 1046 996 1183 1179 1051 1090 b 1092 856 1042 940 1058 892 b 1054 858 1079 857 1067 858 b 1046 917 1051 878 1049 897 b 851 953 1024 1076 872 1058 b 846 864 846 925 844 903 b 763 861 817 863 789 863 b 619 739 649 854 619 800 b 758 647 619 678 685 647 b 861 649 775 647 814 647 b 869 419 869 519 869 419 b 564 175 674 461 533 315 b 844 4 594 35 686 4 b 1058 144 1003 4 1058 144 b 1217 260 1186 108 1254 199 b 1064 358 1181 321 1064 358 b 1076 540 1075 347 1076 450 b 1074 653 1076 572 1075 611 b 1138 653 1103 653 1126 653 b 1240 719 1186 653 1235 690 b 1222 807 1244 740 1240 778 b 1367 919 1303 813 1361 876 b 1278 1113 1372 969 1372 1046 z m 871 208 b 774 165 865 176 822 150 b 779 267 733 179 718 246 b 871 208 840 289 878 246 z m 1193 933 b 1186 1000 1157 940 1160 986 b 1246 974 1213 1013 1239 1007 b 1193 933 1253 940 1225 926 z "},"ひ":{"ha":0,"x_min":0,"x_max":0,"o":"m 1269 829 b 1029 907 1251 850 1125 907 b 969 894 1006 907 986 903 l 964 893 b 871 761 932 878 883 854 b 732 349 846 557 800 422 b 599 293 688 300 629 293 b 496 325 550 293 513 308 b 504 665 414 407 447 554 b 546 735 517 689 532 713 b 603 858 574 781 600 824 b 524 968 606 921 576 963 b 294 975 468 975 383 975 b 140 863 207 975 147 932 b 228 742 133 793 181 751 b 303 735 257 736 286 735 b 211 432 278 699 211 589 b 447 67 211 260 300 124 b 613 33 504 44 560 33 b 900 171 718 33 813 79 b 1081 663 1040 318 1075 606 b 1192 643 1100 656 1144 643 b 1243 649 1211 643 1228 644 b 1288 700 1263 654 1278 672 b 1269 829 1300 739 1297 796 z "},"び":{"ha":0,"x_min":0,"x_max":0,"o":"m 1199 868 b 1149 982 1203 893 1188 931 b 1036 1049 1104 1042 1076 1068 b 1022 936 996 1029 1001 975 b 1039 906 1028 925 1033 915 b 1029 906 1036 906 1033 906 b 969 894 1006 906 986 903 l 964 893 b 871 761 932 878 883 854 b 732 349 846 557 800 422 b 599 293 688 300 629 293 b 496 325 550 293 513 308 b 506 665 414 407 447 554 b 546 735 517 689 532 713 b 603 858 574 781 600 824 b 524 968 606 921 576 963 b 294 975 468 975 383 975 b 140 863 207 975 147 932 b 228 742 133 793 181 751 b 303 735 257 736 286 735 b 211 432 278 699 211 589 b 447 67 211 260 300 124 b 613 33 504 44 560 33 b 900 171 718 33 813 79 b 1081 663 1040 318 1075 606 b 1192 643 1100 656 1144 643 b 1243 649 1211 643 1228 644 b 1288 700 1263 654 1278 672 b 1269 829 1300 739 1297 796 b 1199 868 1263 838 1235 853 z m 1304 1042 b 1185 1117 1265 1106 1225 1136 b 1171 1003 1144 1096 1149 1042 b 1303 906 1210 933 1249 879 b 1304 1042 1350 929 1346 972 z "},"ぴ":{"ha":0,"x_min":0,"x_max":0,"o":"m 1278 1113 b 1046 996 1183 1179 1051 1090 b 1060 904 1043 963 1049 932 b 1029 907 1050 906 1039 907 b 969 894 1006 907 986 903 l 964 893 b 871 761 932 878 883 854 b 732 349 846 557 800 422 b 599 293 688 300 629 293 b 496 325 550 293 513 308 b 504 665 414 407 447 554 b 546 735 517 689 532 713 b 603 858 574 781 600 824 b 524 968 606 921 576 963 b 294 975 468 975 383 975 b 140 863 207 975 147 932 b 228 742 133 793 181 751 b 303 735 257 736 286 735 b 211 432 278 700 211 589 b 447 67 211 260 300 124 b 613 33 504 44 560 33 b 900 171 718 33 813 79 b 1081 663 1040 318 1075 606 b 1192 643 1100 656 1144 643 b 1243 649 1211 643 1228 644 b 1288 700 1263 654 1278 672 b 1276 819 1299 736 1297 786 b 1367 919 1328 842 1363 886 b 1278 1113 1372 969 1372 1046 z m 1186 1000 b 1246 974 1213 1013 1239 1007 b 1193 933 1253 940 1225 926 b 1186 1000 1157 940 1160 986 z "},"ふ":{"ha":0,"x_min":0,"x_max":0,"o":"m 899 883 b 744 1026 876 925 818 979 b 639 1061 711 1049 672 1061 b 551 1018 600 1061 569 1046 b 578 861 515 961 524 910 b 694 778 614 831 656 804 l 714 765 b 804 738 742 747 774 738 b 882 767 835 738 863 747 b 899 883 915 799 922 842 z m 1199 442 b 1076 524 1168 492 1119 524 b 1031 511 1060 524 1044 519 b 992 368 978 479 965 431 b 1068 213 1011 322 1040 256 b 1182 150 1092 174 1135 150 b 1221 157 1196 150 1210 153 b 1282 249 1263 171 1285 204 b 1199 442 1279 307 1222 404 z m 800 597 b 665 675 771 636 718 675 b 606 656 643 675 624 668 b 561 583 579 633 564 610 b 600 481 557 551 569 518 b 614 464 604 475 608 469 b 690 313 642 431 685 382 b 669 242 693 283 686 260 b 600 213 650 221 619 213 b 539 222 582 213 561 217 b 458 232 513 226 486 232 b 372 135 404 232 372 174 b 556 -17 372 88 411 -4 b 597 -19 569 -18 585 -19 b 903 217 753 -19 867 69 b 800 597 943 389 835 551 z m 338 531 b 282 546 321 540 301 546 b 165 457 231 546 185 511 b 149 411 158 439 153 424 b 118 310 133 369 125 349 b 183 171 106 239 131 186 b 226 164 197 165 213 164 b 331 225 271 164 308 186 b 390 390 350 263 381 350 b 338 531 403 440 392 503 z "},"ぶ":{"ha":0,"x_min":0,"x_max":0,"o":"m 899 883 b 744 1026 876 925 818 979 b 639 1061 711 1049 672 1061 b 551 1018 600 1061 569 1046 b 578 861 515 961 524 910 b 694 778 614 831 656 804 l 714 765 b 804 738 742 747 774 738 b 882 767 835 738 863 747 b 899 883 915 799 922 842 z m 1199 442 b 1076 524 1168 492 1119 524 b 1031 511 1060 524 1044 519 b 992 368 978 479 965 431 b 1068 213 1011 322 1040 256 b 1182 150 1092 174 1135 150 b 1221 157 1196 150 1210 153 b 1282 249 1263 171 1285 204 b 1199 442 1279 307 1222 404 z m 800 597 b 665 675 771 636 718 675 b 606 656 643 675 624 668 b 561 583 579 633 564 610 b 600 481 557 551 569 518 b 614 464 604 475 608 469 b 690 313 642 431 685 382 b 669 242 693 283 686 260 b 600 213 650 221 619 213 b 539 222 582 213 561 217 b 458 232 513 226 486 232 b 372 135 404 232 372 174 b 556 -17 372 88 411 -4 b 597 -19 569 -18 585 -19 b 903 217 753 -19 867 69 b 800 597 943 389 835 551 z m 338 531 b 282 546 321 540 301 546 b 165 457 231 546 185 511 b 149 411 158 439 153 424 b 118 310 133 369 125 349 b 183 171 106 239 131 186 b 226 164 197 165 213 164 b 331 225 271 164 308 186 b 390 390 350 263 381 350 b 338 531 403 440 392 503 z m 979 893 b 1125 786 1019 817 1081 764 b 1107 939 1171 810 1169 854 b 993 1006 1063 999 1033 1025 b 979 893 954 985 958 932 z m 1128 958 b 1261 863 1168 889 1207 836 b 1261 999 1307 886 1303 929 b 1142 1074 1222 1063 1182 1093 b 1128 958 1101 1053 1106 997 z "},"ぷ":{"ha":0,"x_min":0,"x_max":0,"o":"m 899 883 b 744 1026 876 925 818 979 b 639 1061 711 1049 672 1061 b 551 1018 600 1061 569 1046 b 578 861 515 961 524 910 b 694 778 614 831 656 804 l 714 765 b 804 738 742 747 774 738 b 882 767 835 738 863 747 b 899 883 915 799 922 842 z m 1199 442 b 1076 524 1168 492 1119 524 b 1031 511 1060 524 1044 519 b 992 368 978 479 965 431 b 1068 213 1011 322 1040 256 b 1182 150 1092 174 1135 150 b 1221 157 1196 150 1210 153 b 1282 249 1263 171 1285 204 b 1199 442 1279 307 1222 404 z m 800 597 b 665 675 771 636 718 675 b 606 656 643 675 624 668 b 561 583 579 633 564 610 b 600 481 557 551 569 518 b 614 464 604 475 608 469 b 690 313 642 431 685 382 b 669 242 693 283 686 260 b 600 213 650 221 619 213 b 539 222 582 213 561 217 b 458 232 513 226 486 232 b 372 135 404 232 372 174 b 556 -17 372 88 411 -4 b 597 -19 569 -18 585 -19 b 903 217 753 -19 867 69 b 800 597 943 389 835 551 z m 338 531 b 282 546 321 540 301 546 b 165 457 231 546 185 511 b 149 411 158 439 153 424 b 118 310 133 369 125 349 b 183 171 106 239 131 186 b 226 164 197 165 213 164 b 331 225 271 164 308 186 b 390 390 350 263 381 350 b 338 531 403 440 392 503 z m 1231 1076 b 997 961 1136 1143 1003 1054 b 1136 772 992 867 1042 789 b 1318 883 1236 756 1313 833 b 1231 1076 1324 933 1324 1010 z m 1144 897 b 1138 964 1110 904 1111 950 b 1197 938 1165 978 1192 971 b 1144 897 1204 904 1178 892 z "},"へ":{"ha":0,"x_min":0,"x_max":0,"o":"m 385 517 b 554 656 414 538 568 647 b 979 158 554 656 899 246 b 1175 104 1042 90 1129 69 b 1207 267 1221 140 1243 193 b 711 881 1172 342 772 817 b 488 940 651 944 563 974 b 213 715 413 908 278 794 b 203 513 150 640 157 558 b 385 517 249 467 322 469 z "},"べ":{"ha":0,"x_min":0,"x_max":0,"o":"m 385 517 b 554 656 414 538 568 647 b 979 158 554 656 899 246 b 1175 104 1042 90 1129 69 b 1207 267 1221 140 1243 193 b 711 881 1172 342 772 817 b 488 940 651 944 563 974 b 213 715 413 908 278 794 b 203 513 150 640 157 558 b 385 517 249 467 322 469 z m 918 872 b 1064 767 958 796 1019 744 b 1046 919 1110 789 1108 833 b 932 985 1001 979 972 1006 b 918 872 892 965 897 913 z m 1067 939 b 1199 843 1106 869 1146 815 b 1200 978 1246 867 1242 908 b 1081 1053 1161 1043 1121 1074 b 1067 939 1040 1033 1044 978 z "},"ぺ":{"ha":0,"x_min":0,"x_max":0,"o":"m 385 517 b 554 656 414 538 568 647 b 979 158 554 656 899 246 b 1175 104 1042 90 1129 69 b 1207 267 1221 140 1243 193 b 711 881 1172 342 772 817 b 488 940 651 944 563 974 b 213 715 413 908 278 794 b 203 513 150 640 157 558 b 385 517 249 467 322 469 z m 1129 1061 b 897 946 1035 1128 903 1039 b 1035 757 892 851 942 774 b 1218 868 1135 740 1213 818 b 1129 1061 1224 918 1224 994 z m 1044 882 b 1038 949 1010 889 1011 935 b 1097 922 1064 961 1090 956 b 1044 882 1104 889 1078 875 z "},"ほ":{"ha":0,"x_min":0,"x_max":0,"o":"m 357 1003 b 189 815 260 1028 219 932 b 175 224 158 700 139 382 b 365 28 211 65 297 3 b 424 229 432 53 449 83 b 428 754 399 378 386 518 b 357 1003 450 875 454 979 z m 1217 260 b 1064 358 1181 321 1064 358 b 1076 540 1075 347 1076 450 b 1076 549 1076 543 1076 546 b 1083 549 1079 549 1081 549 b 1186 615 1132 549 1181 585 b 1119 732 1193 646 1181 713 b 1074 742 1108 735 1092 738 b 1064 824 1071 768 1068 796 b 1083 824 1071 824 1078 824 b 1186 890 1132 824 1181 860 b 1119 1007 1193 921 1181 988 b 739 1031 1058 1025 875 1038 b 589 908 625 1025 589 969 b 735 818 589 847 661 818 b 847 819 754 818 797 818 b 853 757 849 801 851 782 b 739 756 814 758 775 758 b 589 633 625 750 589 694 b 735 542 589 572 661 542 b 867 544 757 542 808 543 b 869 419 869 469 869 419 b 564 175 674 461 533 315 b 844 4 594 35 686 4 b 1058 144 1003 4 1058 144 b 1217 260 1186 108 1254 199 z m 871 208 b 774 165 865 176 822 150 b 779 267 733 179 718 246 b 871 208 840 289 878 246 z "},"ぼ":{"ha":0,"x_min":0,"x_max":0,"o":"m 357 1003 b 189 815 260 1028 219 932 b 175 224 158 700 139 382 b 365 28 211 65 297 3 b 424 229 432 53 449 83 b 428 754 399 378 386 518 b 357 1003 450 875 454 979 z m 1083 824 b 1132 835 1100 824 1117 828 b 1196 826 1154 821 1176 817 b 1178 979 1243 850 1242 893 b 1064 1044 1133 1039 1104 1065 b 1042 1021 1053 1039 1046 1031 b 739 1031 957 1031 836 1036 b 589 908 625 1025 589 969 b 735 818 589 847 661 818 b 847 819 754 818 797 818 b 854 757 850 801 851 782 b 739 756 814 758 775 758 b 589 633 625 750 589 694 b 735 542 589 572 661 542 b 867 544 757 542 808 543 b 869 419 869 469 869 419 b 564 175 674 461 533 315 b 844 4 594 35 686 4 b 1058 144 1004 4 1058 144 b 1217 260 1186 108 1254 199 b 1064 358 1181 321 1064 358 b 1076 540 1075 347 1076 450 b 1076 549 1076 543 1076 546 b 1083 549 1079 549 1082 549 b 1186 615 1132 549 1181 585 b 1119 732 1193 646 1181 713 b 1074 742 1108 735 1092 738 b 1064 824 1071 768 1068 796 b 1083 824 1071 824 1078 824 z m 871 208 b 774 165 865 176 822 150 b 779 267 733 179 718 246 b 871 208 840 289 878 246 z m 1332 1038 b 1214 1113 1293 1103 1254 1133 b 1199 999 1174 1093 1176 1038 b 1332 903 1239 929 1278 875 b 1332 1038 1379 926 1374 968 z "},"ぽ":{"ha":0,"x_min":0,"x_max":0,"o":"m 357 1003 b 189 815 260 1028 219 932 b 175 224 158 700 139 382 b 365 28 211 65 297 3 b 424 229 432 53 449 83 b 428 754 399 378 386 518 b 357 1003 450 875 454 979 z m 1286 1113 b 1058 1018 1200 1174 1081 1103 b 739 1031 975 1031 843 1036 b 589 908 625 1025 589 969 b 735 818 589 847 661 818 b 847 819 754 818 797 818 b 853 757 850 801 851 782 b 739 756 814 758 775 758 b 589 633 625 750 589 694 b 735 542 589 572 661 542 b 867 544 757 542 808 543 b 869 419 869 469 869 419 b 564 175 674 461 533 315 b 844 4 594 35 686 4 b 1058 144 1004 4 1058 144 b 1217 260 1186 108 1254 199 b 1064 358 1181 321 1064 358 b 1076 540 1075 347 1076 450 b 1076 549 1076 543 1076 546 b 1083 549 1079 549 1081 549 b 1186 615 1132 549 1181 585 b 1119 732 1193 646 1181 713 b 1074 742 1108 735 1092 738 b 1064 824 1071 768 1068 796 b 1083 824 1071 824 1078 824 b 1128 833 1099 824 1114 828 b 1193 808 1146 821 1168 813 b 1375 919 1292 792 1369 869 b 1286 1113 1381 969 1381 1046 z m 871 208 b 774 165 865 176 822 150 b 779 267 733 179 718 246 b 871 208 840 289 878 246 z m 1201 933 b 1181 949 1190 936 1185 942 b 1176 957 1179 951 1178 954 b 1194 1000 1172 972 1179 992 b 1254 974 1221 1013 1247 1007 b 1201 933 1261 940 1235 926 z "},"ま":{"ha":0,"x_min":0,"x_max":0,"o":"m 1058 311 b 849 396 1011 353 849 396 b 843 486 865 375 846 436 b 965 493 897 489 943 490 b 1097 601 1042 500 1093 546 b 981 711 1100 658 1046 701 b 844 714 960 715 907 715 b 847 760 846 729 846 744 b 963 764 899 761 942 763 b 1058 878 1031 771 1063 808 b 954 964 1056 929 1013 965 b 849 963 936 964 897 964 b 839 1040 846 992 843 1018 b 642 1061 815 1150 671 1122 b 626 961 628 1033 625 994 b 517 963 579 961 539 963 b 376 853 433 965 375 922 b 514 754 378 783 436 753 b 636 757 535 756 581 756 b 636 708 636 740 636 724 b 492 703 574 706 519 703 b 338 593 410 701 340 667 b 494 483 335 519 407 490 b 642 482 518 482 575 482 b 643 443 643 458 643 443 b 381 379 572 444 450 436 b 313 126 311 322 269 242 b 688 -8 364 -6 531 -57 b 839 156 819 33 839 156 b 975 126 846 139 929 131 b 1083 169 1021 121 1058 138 b 1058 311 1107 200 1106 268 z m 557 163 b 528 231 519 158 503 206 b 618 232 553 256 611 257 b 557 163 626 207 614 171 z "},"み":{"ha":0,"x_min":0,"x_max":0,"o":"m 471 714 b 168 508 435 704 222 694 b 347 151 115 322 229 179 b 625 239 467 124 560 150 b 714 497 697 340 714 497 l 900 474 b 856 286 900 474 883 385 b 771 138 843 240 782 175 b 900 25 744 44 832 -17 b 1067 282 997 85 1035 156 b 1089 421 1085 354 1099 400 b 1251 511 1089 421 1240 401 b 1118 661 1263 621 1133 660 b 1022 913 1118 661 1157 910 b 915 707 910 915 915 707 l 706 735 b 692 935 706 735 740 856 b 438 1021 653 997 578 1022 b 294 872 353 1021 275 968 b 478 799 310 786 490 788 b 471 714 478 799 488 746 z m 486 460 b 421 388 486 415 469 382 b 394 481 383 393 374 449 b 486 460 417 514 486 503 z "},"む":{"ha":0,"x_min":0,"x_max":0,"o":"m 1058 333 b 976 299 1025 333 994 319 b 768 217 964 283 890 203 b 604 479 618 233 610 382 l 604 499 b 603 704 601 538 601 621 b 631 706 614 704 624 704 b 747 796 704 707 740 756 b 688 896 754 828 738 871 b 606 910 674 903 642 907 b 606 965 606 936 606 957 b 496 1076 601 1021 554 1069 b 382 963 436 1083 386 1032 b 382 915 382 951 382 935 b 300 913 346 915 317 914 b 190 811 246 906 189 876 b 307 706 192 749 226 717 b 381 701 319 704 344 703 b 381 669 381 689 381 678 b 339 674 371 672 357 674 b 281 665 318 674 299 671 b 144 496 224 650 157 590 b 261 294 131 397 199 325 b 406 271 317 267 382 269 b 531 65 425 161 458 119 b 756 -1 589 21 664 -1 b 878 11 794 -1 835 3 b 1142 164 996 32 1096 90 b 1122 311 1167 206 1164 276 b 1058 333 1106 325 1083 333 z m 313 482 b 361 519 313 507 343 519 b 381 492 379 519 381 513 b 364 442 381 471 389 446 b 313 482 338 436 313 456 z m 1285 619 b 1163 783 1268 667 1208 742 b 1006 801 1107 833 1043 842 b 1007 664 967 758 967 713 b 1031 635 1014 656 1022 646 b 1110 544 1054 604 1082 568 b 1201 506 1136 519 1168 506 b 1253 521 1221 506 1239 511 b 1285 619 1286 546 1299 581 z "},"め":{"ha":0,"x_min":0,"x_max":0,"o":"m 1200 524 b 972 815 1167 678 1042 772 b 947 951 972 864 964 908 b 757 964 911 1039 794 1038 b 732 861 736 921 732 861 b 604 856 754 839 685 867 b 585 851 599 854 592 853 b 457 997 568 947 538 1007 b 368 811 390 990 347 928 b 375 776 369 803 372 790 b 344 763 364 771 354 767 b 154 383 247 719 132 536 b 500 69 175 231 239 33 b 561 83 521 72 542 78 b 688 65 589 49 629 32 b 722 179 722 86 729 126 b 935 561 842 289 911 454 b 938 571 936 564 936 567 b 1014 408 971 536 1003 486 b 957 151 1035 275 964 219 b 1143 82 943 8 1097 14 b 1200 524 1207 175 1244 308 z m 704 617 b 660 456 708 592 692 517 b 625 624 647 511 635 569 b 704 617 667 635 701 639 z m 406 297 b 365 453 357 328 357 407 b 424 546 372 493 394 524 b 482 300 442 464 463 376 b 406 297 453 288 425 285 z "},"も":{"ha":0,"x_min":0,"x_max":0,"o":"m 1092 211 b 946 250 1063 278 989 269 b 728 228 901 232 801 193 b 646 368 681 250 656 289 b 779 374 703 369 753 372 b 892 493 854 379 886 433 b 776 597 897 553 842 597 b 646 594 754 597 704 596 b 651 658 647 617 649 638 b 756 660 697 660 736 660 b 878 750 824 660 874 703 b 783 860 883 807 836 854 b 685 863 768 861 732 863 b 692 893 688 874 689 885 b 624 1061 707 967 692 1035 b 457 961 554 1088 489 1053 b 433 864 449 938 440 904 b 338 865 388 865 351 865 b 211 756 285 865 206 824 b 326 657 217 688 275 661 b 406 654 340 656 369 654 b 401 590 404 632 403 611 b 350 592 382 590 364 590 b 189 465 258 597 178 547 b 339 360 200 383 253 360 b 406 361 353 360 376 360 b 496 108 415 269 439 179 b 986 18 636 -68 897 -29 b 1092 211 1075 65 1124 133 z "},"ゃ":{"ha":0,"x_min":0,"x_max":0,"o":"m 1038 569 b 865 647 990 625 940 647 b 861 669 864 656 863 664 b 774 731 854 703 822 738 b 704 632 732 725 707 690 b 704 622 704 629 704 626 b 593 583 668 611 631 597 b 585 604 590 590 588 599 b 468 686 557 672 514 703 b 418 551 413 665 396 621 b 432 510 422 538 428 524 b 401 494 422 504 411 500 b 361 475 386 488 372 481 b 304 414 324 457 310 432 b 313 350 297 392 301 369 b 397 297 335 315 364 297 b 432 304 408 297 419 300 b 503 338 440 307 467 319 b 517 304 507 326 513 317 b 551 219 529 279 540 250 b 636 39 576 157 601 90 b 719 -12 658 6 689 -12 b 761 0 733 -12 749 -8 b 785 124 799 24 806 63 b 736 236 772 156 756 192 b 688 342 721 267 706 301 b 657 414 676 368 667 392 b 718 443 679 425 700 435 b 721 428 719 438 719 432 b 796 353 728 379 765 353 l 799 353 b 869 436 842 356 865 385 b 871 486 869 446 869 464 b 903 468 883 483 894 478 b 917 435 917 449 917 449 b 917 411 917 429 917 421 b 986 335 919 368 954 339 b 1071 393 1019 331 1057 357 b 1038 569 1083 424 1092 508 z "},"や":{"ha":0,"x_min":0,"x_max":0,"o":"m 1204 831 b 943 942 1140 904 1068 943 b 938 983 942 958 940 972 b 819 1067 926 1032 882 1076 b 724 929 756 1058 726 1004 b 724 907 724 924 724 915 b 540 843 664 890 601 868 b 524 885 535 857 529 872 b 363 1000 489 971 432 1025 b 296 811 292 974 261 917 b 319 742 303 789 311 765 b 204 685 275 719 235 700 b 136 514 118 643 103 567 b 303 447 163 471 214 418 b 417 501 315 451 360 474 b 443 444 425 483 433 464 b 619 49 497 322 543 161 b 792 -8 672 -29 742 -40 b 824 165 843 24 854 78 b 679 492 794 244 746 338 b 631 608 661 533 644 572 b 743 663 669 628 708 647 b 747 626 744 647 746 635 b 854 522 757 558 810 521 b 949 636 922 526 946 579 b 951 722 950 653 951 685 b 1018 690 979 721 1001 710 b 1042 599 1049 649 1038 660 b 1136 494 1044 539 1094 500 b 1253 575 1182 489 1233 528 b 1204 831 1271 624 1278 744 z "},"ゅ":{"ha":0,"x_min":0,"x_max":0,"o":"m 951 581 b 800 644 915 613 861 635 b 719 738 790 710 767 738 b 661 714 701 738 676 731 b 642 643 650 701 639 679 b 585 625 621 639 601 633 b 468 550 533 604 494 575 b 394 618 464 588 433 615 l 390 618 b 310 525 351 618 310 589 b 313 239 310 501 311 267 b 393 163 315 186 357 163 b 431 172 407 163 419 165 b 494 289 472 194 483 240 l 488 290 l 496 290 l 496 293 b 501 317 497 301 500 310 b 607 463 515 367 557 425 b 649 483 618 471 633 478 b 647 346 650 439 649 390 b 642 274 646 322 644 297 b 561 244 607 279 581 269 b 543 186 547 228 542 207 b 576 128 546 164 558 143 b 624 103 588 119 604 111 b 624 97 624 101 624 99 l 619 65 b 681 -22 614 22 636 -8 b 699 -25 686 -25 693 -25 b 768 25 729 -25 756 -6 b 782 78 772 38 778 56 b 794 78 786 78 790 78 b 1039 256 910 82 1001 149 b 951 581 1079 372 1046 500 z m 806 340 b 808 489 807 389 808 439 b 897 376 835 481 883 454 b 815 253 910 304 861 264 b 800 250 811 251 806 250 b 806 340 803 289 804 322 z "}}}
